SplineFontDB: 3.2
FontName: EvanKurtzArt
FullName: EvanKurtzArt Handwriting - Ballpoint
FamilyName: EvanKurtzArt Handwriting
Weight: Ballpoint
Copyright: Copyright (c) 2024, Evan Kurtz
UComments: "2024-10-31: Created with FontForge (http://fontforge.org)"
Version: 002.000
ItalicAngle: 0
UnderlinePosition: -100
UnderlineWidth: 50
Ascent: 800
Descent: 200
InvalidEm: 0
LayerCount: 2
Layer: 0 0 "Back" 1
Layer: 1 0 "Fore" 0
XUID: [1021 762 -767011079 15874]
StyleMap: 0x0000
FSType: 0
OS2Version: 0
OS2_WeightWidthSlopeOnly: 0
OS2_UseTypoMetrics: 1
CreationTime: 1730390293
ModificationTime: 1731163456
OS2TypoAscent: 0
OS2TypoAOffset: 1
OS2TypoDescent: 0
OS2TypoDOffset: 1
OS2TypoLinegap: 90
OS2WinAscent: 0
OS2WinAOffset: 1
OS2WinDescent: 0
OS2WinDOffset: 1
HheadAscent: 0
HheadAOffset: 1
HheadDescent: 0
HheadDOffset: 1
MarkAttachClasses: 1
DEI: 91125
LangName: 1033
Encoding: ISO8859-1
UnicodeInterp: none
NameList: AGL For New Fonts
DisplaySize: -48
AntiAlias: 1
FitToEm: 0
WinInfo: 96 16 4
BeginPrivate: 0
EndPrivate
BeginChars: 256 98

StartChar: A
Encoding: 65 65 0
Width: 450
Flags: W
VStem: 26.8906 43.0957<3.50394 77.3335> 111.981 45.1016<383.458 556.818>
LayerCount: 2
Fore
SplineSet
416.80078125 7.455078125 m 1
 416.721679688 7.4931640625 l 1
 420.650390625 -4.3310546875 414.286132812 -17.099609375 402.461914062 -21.02734375 c 0
 400.103515625 -21.814453125 397.708007812 -22.2060546875 395.350585938 -22.2060546875 c 0
 385.922851562 -22.2060546875 377.122070312 -16.2353515625 373.978515625 -6.806640625 c 0
 360.700195312 33.029296875 351.547851562 146.997070312 342.786132812 278.643554688 c 1
 269.400390625 266.189453125 197.350585938 252.439453125 142.232421875 232.287109375 c 1
 116.186523438 156.38671875 91.1611328125 81.9794921875 69.986328125 17.8251953125 c 0
 66.1357421875 6.1982421875 53.7216796875 -0.2060546875 42.015625 3.330078125 c 0
 30.3076171875 6.904296875 23.58984375 19.162109375 26.890625 30.9482421875 c 0
 27.75390625 34.01171875 111.981445312 337.21875 111.981445312 534.275390625 c 0
 111.981445312 546.729492188 122.080078125 556.825195312 134.532226562 556.825195312 c 0
 146.986328125 556.825195312 157.083007812 546.729492188 157.083007812 534.275390625 c 0
 157.083007812 486.229492188 152.446289062 432.76171875 145.297851562 379.018554688 c 1
 208.193359375 557.768554688 274.547851562 734.162109375 298 754 c 0
 306.015625 760.758789062 316.346679688 762.448242188 325.657226562 758.479492188 c 0
 353.432617188 746.693359375 361.407226562 691.26171875 382.50390625 363.2265625 c 0
 383.172851562 352.698242188 383.83984375 342.01171875 384.547851562 331.325195312 c 1
 391.736328125 332.504882812 l 2
 404.071289062 334.586914062 415.622070312 326.258789062 417.6640625 313.961914062 c 0
 419.708007812 301.665039062 411.37890625 290.075195312 399.122070312 288.032226562 c 2
 387.532226562 286.108398438 l 1
 395.743164062 162.515625 405.09375 42.537109375 416.80078125 7.455078125 c 1
160.736328125 285.713867188 m 1
 160.775390625 285.713867188 l 1
 214.321289062 301.625 276.865234375 313.213867188 339.91796875 323.861328125 c 0
 339.131835938 335.921875 338.346679688 348.1015625 337.561523438 360.318359375 c 0
 330.25390625 473.580078125 320.825195312 620.233398438 309.943359375 687.765625 c 1
 278.59375 618.700195312 218.80078125 453.504882812 160.736328125 285.713867188 c 1
EndSplineSet
EndChar

StartChar: B
Encoding: 66 66 1
Width: 525
Flags: W
HStem: -0.779297 61.9141<101.43 331.979>
VStem: 35.6182 44.9834<333.815 562.5>
LayerCount: 2
Fore
SplineSet
58.12890625 141.08203125 m 1
 55.1044921875 141.08203125 52.080078125 141.7109375 49.1337890625 143.006835938 c 0
 37.740234375 148.03515625 32.515625 161.509765625 37.46484375 173.060546875 c 0
 72.076171875 253.518554688 54.986328125 375.932617188 43.671875 456.900390625 c 0
 38.6044921875 493.19921875 34.5966796875 521.877929688 35.6181640625 540.970703125 c 0
 36.2861328125 553.541992188 46.8935546875 563.20703125 59.3076171875 562.5390625 c 0
 71.7216796875 561.87109375 81.2685546875 551.106445312 80.6015625 538.53515625 c 0
 79.814453125 523.881835938 83.7431640625 495.791992188 88.30078125 463.303710938 c 0
 100.323242188 377.227539062 118.471679688 247.114257812 78.75390625 154.791992188 c 0
 75.060546875 146.188476562 66.7724609375 141.08203125 58.08984375 141.08203125 c 1
 58.12890625 141.08203125 l 1
490.154296875 179.974609375 m 1
 490.115234375 179.974609375 l 1
 433.740234375 43.7314453125 317.415039062 -0.779296875 214.133789062 -0.779296875 c 0
 172.293945312 -0.779296875 132.615234375 6.5283203125 99.890625 18 c 0
 88.1435546875 22.125 81.8974609375 35.1279296875 85.9833984375 47.0322265625 c 0
 90.0673828125 58.935546875 102.915039062 65.259765625 114.661132812 61.134765625 c 0
 182.036132812 37.486328125 373.397460938 15.95703125 448.58984375 197.614257812 c 0
 456.330078125 216.352539062 456.368164062 233.521484375 448.668945312 250.138671875 c 0
 418.654296875 314.920898438 282.961914062 356.759765625 231.8515625 372.513671875 c 0
 214.525390625 377.856445312 206.668945312 380.33203125 201.522460938 382.92578125 c 0
 194.13671875 386.618164062 189.067382812 393.768554688 187.96875 401.977539062 c 0
 185.375 420.9140625 200.618164062 434.939453125 251.022460938 481.3359375 c 0
 300.442382812 526.828125 403.333007812 621.506835938 397.439453125 664.720703125 c 0
 397.008789062 667.666992188 396.104492188 674.541992188 382.51171875 681.416992188 c 0
 281.115234375 732.803710938 187.025390625 682.557617188 96 634 c 0
 86.689453125 629.05078125 77.4580078125 624.099609375 68.3037109375 619.345703125 c 0
 57.265625 613.571289062 43.671875 617.970703125 37.9765625 629.20703125 c 0
 32.279296875 640.442382812 36.640625 654.192382812 47.71875 659.967773438 c 0
 56.75390625 664.682617188 65.830078125 669.553710938 75.0224609375 674.42578125 c 0
 171.390625 725.849609375 280.604492188 784.111328125 402.705078125 722.275390625 c 0
 431.5 707.69921875 440.025390625 686.328125 442.108398438 670.967773438 c 0
 450.553710938 608.974609375 374.30078125 533.114257812 281.3515625 447.55078125 c 0
 269.997070312 437.099609375 257.111328125 425.236328125 247.171875 415.532226562 c 1
 314.823242188 394.670898438 451.33984375 351.810546875 489.448242188 269.5859375 c 0
 502.685546875 241.025390625 502.921875 210.852539062 490.154296875 179.974609375 c 1
EndSplineSet
EndChar

StartChar: C
Encoding: 67 67 2
Width: 650
Flags: W
HStem: -14.3779 21G<326.328 391.777>
LayerCount: 2
Fore
SplineSet
340.293945312 -14.3779296875 m 0
 312.361328125 -14.3779296875 285.686523438 -10.4501953125 260.228515625 -2.5537109375 c 0
 169.321289062 25.57421875 96.2105603681 106.202802221 54.3330078125 224.439453125 c 0
 -13.513671875 415.997070312 179.42578125 650.661132812 247.901367188 697.802734375 c 0
 303.135742188 735.872070312 379.115234375 677.610351562 414 632 c 0
 451.243164062 583.32421875 439.733398438 557.946289062 429.51953125 547.181640625 c 0
 420.71875 537.872070312 406.458007812 537.872070312 397.658203125 547.181640625 c 0
 390.311523438 554.959960938 389.09375 566.82421875 394.043945312 575.939453125 c 0
 390.390625 590.435546875 360.21875 631.25390625 321.483398438 652.154296875 c 0
 309.5 658.596679688 287.186523438 667.946289062 272.455078125 657.810546875 c 0
 219.615234375 621.431640625 36.359789126 411.17112464 96.5263671875 241.212890625 c 0
 117.818359375 181.067382812 169.047851562 75.427734375 272.87890625 43.29296875 c 0
 377.890625 10.763671875 511.3046875 58.0244140625 669.506835938 183.69921875 c 0
 679.446289062 191.596679688 693.58984375 189.475585938 701.0546875 178.907226562 c 0
 708.51953125 168.37890625 706.515625 153.411132812 696.536132812 145.475585938 c 0
 562.689453125 39.16796875 443.260742188 -14.3388671875 340.293945312 -14.3779296875 c 0
EndSplineSet
EndChar

StartChar: D
Encoding: 68 68 3
Width: 752
Flags: W
HStem: 445.796 47.9277<21.4719 141.23>
VStem: 73.7148 41.7607<-44.3928 69.6221>
LayerCount: 2
Fore
SplineSet
725.857421875 348.681640625 m 1
 725.817382812 348.681640625 l 1
 745.5 261.625 726.171875 177.868164062 669.915039062 106.4453125 c 0
 610.083007812 30.466796875 517.91796875 6.7373046875 426.185546875 6.7373046875 c 0
 283.931640625 6.7373046875 142.778320312 63.78125 124.864257812 71.28515625 c 1
 115.16015625 35.73046875 109.583007812 4.9716796875 115.475585938 -11.5283203125 c 0
 120.150390625 -24.5732421875 114.572265625 -39.3818359375 103.021484375 -44.646484375 c 0
 100.271484375 -45.9033203125 97.4033203125 -46.4931640625 94.6142578125 -46.4931640625 c 0
 85.697265625 -46.4931640625 77.25 -40.4833984375 73.71484375 -30.5830078125 c 0
 57.8828125 13.810546875 77.7216796875 76.3916015625 102.864257812 155.631835938 c 0
 128.87109375 237.581054688 158.3359375 330.452148438 146.118164062 406.313476562 c 0
 142.583007812 428.313476562 135.354492188 442.612304688 124 450 c 0
 108.364257812 460.21484375 82.0830078125 458.721679688 50.0634765625 445.795898438 c 0
 38.357421875 441.081054688 25.4716796875 447.956054688 21.2685546875 461.1953125 c 0
 17.0634765625 474.435546875 23.1923828125 489.009765625 34.900390625 493.723632812 c 0
 80.275390625 512.032226562 118.854492188 512.150390625 146.549804688 494.077148438 c 0
 169.729492188 478.952148438 184.5 452.513671875 190.471679688 415.427734375 c 0
 204.889648438 326.131835938 173.225585938 226.423828125 145.333007812 138.46484375 c 0
 143.329101562 132.138671875 141.326171875 125.813476562 139.322265625 119.487304688 c 1
 139.361328125 119.487304688 139.438476562 119.487304688 139.438476562 119.487304688 c 2
 143.053710938 117.916992188 501.063476562 -31.5263671875 636.326171875 140.270507812 c 0
 682.799804688 199.317382812 698.239257812 265.19921875 682.2109375 336.110351562 c 0
 659.424804688 436.877929688 569.146484375 539.846679688 467.553710938 580.938476562 c 0
 317.717773438 641.596679688 227.0859375 551.237304688 179.51171875 503.860351562 c 1
 179.51171875 503.860351562 165.092773438 490.423828125 146.040039062 509.673828125 c 0
 133.192382812 522.677734375 146.708007812 541.377929688 146.708007812 541.377929688 c 1
 196.521484375 590.99609375 307.857421875 699.62109375 482.7578125 628.827148438 c 0
 599.239257812 581.685546875 699.221679688 466.5 725.857421875 348.681640625 c 1
EndSplineSet
EndChar

StartChar: E
Encoding: 69 69 4
Width: 484
Flags: W
HStem: -10.9004 52.4473<147.281 244.713> 212.397 20G<458.579 463.156>
VStem: 155.528 42.7832<400.538 471.841>
LayerCount: 2
Fore
SplineSet
228.443359375 447.721679688 m 5
 223.099609375 447.721679688 217.756835938 449.921875 213.474609375 454.361328125 c 4
 204.1640625 463.986328125 203.33984375 480.564453125 211.58984375 491.407226562 c 4
 236.614257812 524.2109375 267.768554688 564.989257812 342.174804688 588.640625 c 4
 406.368164062 609.029296875 605.349609375 735.17578125 607.354492188 736.432617188 c 4
 618.313476562 743.384765625 631.986328125 738.671875 637.91796875 725.982421875 c 4
 643.889648438 713.252929688 639.842773438 697.303710938 628.922851562 690.390625 c 4
 620.5546875 685.0859375 423.26171875 560 354 538 c 4
 292.518554688 518.474609375 268.474609375 487.006835938 245.256835938 456.560546875 c 4
 240.818359375 450.74609375 234.611328125 447.759765625 228.403320312 447.759765625 c 5
 228.443359375 447.721679688 l 5
458.579101562 232.357421875 m 5
 458.579101562 232.397460938 l 5
 467.733398438 222.536132812 468.243164062 205.958007812 459.797851562 195.310546875 c 4
 443.139648438 174.37109375 293.893554688 -9.2890625 186.525390625 -10.900390625 c 4
 186.014648438 -10.900390625 185.54296875 -10.900390625 185.032226562 -10.900390625 c 4
 159.063476562 -10.900390625 137.299804688 -0.6064453125 120.25 19.7431640625 c 4
 27.37890625 130.489257812 87.681640625 282.486328125 127.556640625 383.057617188 c 4
 140.049804688 414.643554688 150.854492188 441.868164062 154.193359375 460.134765625 c 4
 155.333007812 466.185546875 155.528320312 470.232421875 155.528320312 472.708007812 c 5
 139.146484375 472.471679688 95.6181640625 445.364257812 80.650390625 436.053710938 c 6
 73.2646484375 431.458007812 l 6
 62.3046875 424.661132812 48.6728515625 429.532226562 42.818359375 442.33984375 c 4
 36.96484375 455.147460938 41.16796875 471.018554688 52.16796875 477.814453125 c 6
 59.396484375 482.29296875 l 6
 111.29296875 514.625 156.549804688 539.4140625 184.28515625 515.134765625 c 4
 199.174804688 502.092773438 203.889648438 479.897460938 198.311523438 449.17578125 c 4
 193.951171875 425.131835938 182.1640625 395.393554688 168.493164062 360.978515625 c 4
 163.54296875 348.407226562 158.396484375 335.482421875 153.368164062 322.243164062 c 5
 155.41015625 321.732421875 157.454101562 320.907226562 159.377929688 319.689453125 c 4
 170.33984375 312.814453125 174.424804688 296.904296875 168.493164062 284.134765625 c 4
 165.349609375 277.41796875 163.66015625 271.759765625 162.875 267.634765625 c 5
 192.889648438 277.890625 294.756835938 337.2109375 333.139648438 396.807617188 c 4
 340.604492188 408.435546875 354.747070312 410.752929688 364.686523438 402.071289062 c 4
 374.6640625 393.390625 376.66796875 376.928710938 369.204101562 365.33984375 c 4
 321.51171875 291.286132812 192.104492188 213.696289062 157.1796875 213.696289062 c 4
 156.864257812 213.696289062 156.51171875 213.696289062 156.197265625 213.696289062 c 4
 142.76171875 214.326171875 131.76171875 220.96484375 124.806640625 232.474609375 c 5
 110.153320312 169.265625 110.547851562 106.407226562 152.502929688 56.357421875 c 4
 161.108398438 46.064453125 171.438476562 41.0361328125 185.896484375 41.546875 c 4
 260.579101562 42.6474609375 385.03515625 178.654296875 426.717773438 230.982421875 c 4
 435.204101562 241.58984375 449.46484375 242.217773438 458.579101562 232.357421875 c 5
EndSplineSet
EndChar

StartChar: F
Encoding: 70 70 5
Width: 442
Flags: W
HStem: 299.089 21G<240.783 275.708> 715.478 21G<607.711 612.622>
VStem: 66.1973 44.7471<-1.4493 223.263>
LayerCount: 2
Fore
SplineSet
607.7109375 715.595703125 m 5
 516.17578125 643.03515625 405.5859375 614.827148438 308 590 c 4
 249.701171875 575.149414062 197.333007812 561.791992188 158.912109375 541.48046875 c 5
 127.6015625 466.95703125 89.96484375 198.399414062 110.944335938 23.5380859375 c 4
 112.436523438 11.1630859375 103.59765625 -0.033203125 91.26171875 -1.5263671875 c 4
 90.3583984375 -1.64453125 89.4541015625 -1.6826171875 88.55078125 -1.6826171875 c 4
 77.314453125 -1.6826171875 67.572265625 6.7236328125 66.197265625 18.15625 c 4
 47.615234375 173.060546875 71.541015625 438.435546875 100.022460938 515.317382812 c 4
 97.7431640625 516.49609375 95.5830078125 518.067382812 93.775390625 520.109375 c 4
 85.3681640625 529.303710938 86.037109375 543.563476562 95.2294921875 551.931640625 c 4
 103.754882812 559.709960938 113.143554688 566.663085938 123.358398438 572.94921875 c 4
 123.75 573.852539062 124.143554688 574.794921875 124.537109375 575.69921875 c 4
 130.5859375 589.881835938 135.811523438 602.098632812 139.936523438 613.256835938 c 4
 144.258789062 624.923828125 157.22265625 630.896484375 168.890625 626.57421875 c 4
 179.497070312 622.646484375 185.3515625 611.60546875 183.111328125 600.881835938 c 5
 217.092773438 613.216796875 255.592773438 623.038085938 296.922851562 633.567382812 c 4
 390.108398438 657.294921875 495.747070312 684.24609375 579.740234375 750.794921875 c 4
 589.483398438 758.53515625 603.665039062 756.884765625 611.404296875 747.141601562 c 4
 619.143554688 737.399414062 617.493164062 723.216796875 607.75 715.477539062 c 5
 607.7109375 715.595703125 l 5
419.650390625 372.002929688 m 6
 419.650390625 371.963867188 l 5
 362.293945312 315.509765625 298.729492188 299.088867188 252.686523438 299.088867188 c 4
 228.879882812 299.088867188 209.787109375 303.44921875 198.58984375 308.94921875 c 4
 187.432617188 314.44921875 182.797851562 327.963867188 188.297851562 339.12109375 c 4
 193.797851562 350.317382812 207.311523438 354.913085938 218.467773438 349.413085938 c 4
 237.993164062 339.827148438 317.5859375 334.720703125 388.025390625 404.098632812 c 4
 396.865234375 412.859375 411.165039062 412.743164062 419.88671875 403.864257812 c 4
 428.608398438 395.024414062 428.529296875 380.723632812 419.650390625 372.002929688 c 6
EndSplineSet
EndChar

StartChar: G
Encoding: 71 71 6
Width: 518
Flags: W
HStem: 651.385 57.2012<324.163 392.74>
LayerCount: 2
Fore
SplineSet
190.61328125 -5.4326171875 m 1
 125.831054688 -5.4326171875 69.103515625 44.9716796875 40.228515625 129.7890625 c 0
 19.9169921875 189.424804688 25.1826171875 366.2109375 62.66015625 450.596679688 c 0
 131.763671875 606.127929688 297.82421875 688.549804688 360.25 708.5859375 c 0
 374.274414062 713.143554688 388.927734375 703.94921875 392.935546875 688.157226562 c 0
 396.942382812 672.364257812 388.810546875 655.903320312 374.78515625 651.384765625 c 0
 334.321289062 638.381835938 176.274414062 573.24609375 110 424 c 0
 88.9814453125 376.66015625 71.224609375 205.138671875 89.6484375 151.083007812 c 0
 112.122070312 85.0419921875 153.41015625 49.056640625 200.278320312 54.6748046875 c 0
 252.528320312 61 320.846679688 125.03515625 348.189453125 283.356445312 c 1
 280.657226562 306.103515625 267.770507812 317.143554688 270.32421875 342.28515625 c 0
 270.795898438 346.763671875 274.41015625 369.1953125 301.282226562 370.806640625 c 0
 306.427734375 371.083007812 317.978515625 373.752929688 329.173828125 376.306640625 c 0
 384.135742188 388.877929688 476.064453125 409.856445312 497.16015625 332.583007812 c 0
 506.981445312 296.556640625 490.875 269.37109375 476.61328125 245.368164062 c 0
 453.435546875 206.278320312 427.11328125 162.002929688 480.974609375 45.0498046875 c 0
 487.692382812 30.474609375 482.625 12.521484375 469.66015625 4.978515625 c 0
 456.657226562 -2.564453125 440.747070312 3.1318359375 434.028320312 17.7080078125 c 0
 365.828125 165.853515625 406.057617188 233.583007812 432.653320312 278.407226562 c 0
 444.596679688 298.521484375 448.877929688 306.888671875 446.638671875 315.138671875 c 0
 442.75 329.400390625 419.453125 330.813476562 394.388671875 328.103515625 c 1
 401.814453125 321.66015625 405.899414062 311.013671875 404.407226562 300.013671875 c 0
 375.846679688 89.7568359375 283.131835938 4.900390625 205.935546875 -4.4501953125 c 0
 200.7890625 -5.0791015625 195.682617188 -5.3935546875 190.653320312 -5.3935546875 c 2
 190.61328125 -5.4326171875 l 1
EndSplineSet
EndChar

StartChar: H
Encoding: 72 72 7
Width: 442
Flags: W
HStem: 269.679 21G<210.625 229.306>
VStem: 411.808 44.7061<579.612 745.228>
LayerCount: 2
Fore
SplineSet
62.8330078125 -2.767578125 m 1
 51.3603515625 -2.767578125 41.578125 6.3857421875 40.439453125 18.642578125 c 0
 33.2890625 95.91796875 56.349609375 178.260742188 80.7861328125 265.435546875 c 0
 99.6435546875 332.693359375 119.12890625 402.229492188 123.135742188 468.149414062 c 0
 123.490234375 474.04296875 123.920898438 480.1328125 124.314453125 486.338867188 c 0
 128.125 542.59765625 132.916992188 612.642578125 99.2890625 629.260742188 c 0
 88.013671875 634.838867188 83.1826171875 648.943359375 88.4853515625 660.806640625 c 0
 93.7890625 672.671875 107.224609375 677.739257812 118.4609375 672.161132812 c 0
 180.060546875 641.674804688 174.05078125 553.635742188 169.256835938 482.921875 c 0
 168.82421875 476.83203125 168.432617188 470.861328125 168.078125 465.125 c 0
 163.756835938 393.899414062 143.525390625 321.771484375 124 252 c 0
 100.821289062 169.3828125 78.939453125 91.322265625 85.263671875 23.2392578125 c 0
 86.4814453125 10.197265625 77.4072265625 -1.392578125 65.0322265625 -2.689453125 c 0
 64.2861328125 -2.767578125 63.5390625 -2.806640625 62.8330078125 -2.806640625 c 1
 62.8330078125 -2.767578125 l 1
455.295898438 366.713867188 m 2
 455.375 366.674804688 l 2
 460.12890625 354.575195312 454.666992188 340.70703125 443.157226562 335.678710938 c 0
 440.83984375 334.65625 416.522460938 324.12890625 384.307617188 311.79296875 c 1
 379.19921875 281.700195312 375.388671875 255.41796875 373.817382812 235.342773438 c 0
 372.481445312 218.607421875 370.94921875 202.5 369.497070312 186.982421875 c 0
 361.010742188 97.056640625 354.881835938 32.1181640625 397.231445312 -29.7958984375 c 0
 404.5 -40.443359375 402.221679688 -55.25390625 392.125 -62.9140625 c 0
 388.118164062 -65.939453125 383.522460938 -67.392578125 378.96484375 -67.392578125 c 0
 371.971679688 -67.392578125 365.057617188 -63.9755859375 360.657226562 -57.5322265625 c 0
 308.368164062 18.91796875 315.911132812 98.943359375 324.631835938 191.618164062 c 0
 326.0859375 206.899414062 327.578125 222.771484375 328.875 239.271484375 c 0
 330.092773438 254.671875 332.490234375 273.33203125 335.7109375 294.193359375 c 1
 300.903320312 282.40625 264.80078125 272.193359375 239.5 270.190429688 c 0
 235.217773438 269.8359375 231.2109375 269.678710938 227.400390625 269.678710938 c 0
 193.849609375 269.678710938 177.703125 282.2109375 165.87890625 296.549804688 c 0
 157.353515625 297.060546875 149.497070312 302.717773438 146.196289062 311.635742188 c 0
 141.678710938 323.854492188 147.453125 337.565429688 159.041992188 342.318359375 c 0
 181.161132812 351.392578125 194.045898438 335.049804688 198.916992188 328.8828125 c 0
 204.143554688 322.243164062 209.603515625 315.368164062 236.083007812 317.489257812 c 0
 262.9140625 319.611328125 306.208007812 333.322265625 344.666992188 347.34765625 c 1
 353.115234375 393.940429688 363.760742188 446.385742188 374.25 497.967773438 c 0
 393.147460938 590.799804688 414.518554688 696.046875 411.807617188 718.83203125 c 0
 410.275390625 731.8359375 419.036132812 743.700195312 431.372070312 745.310546875 c 0
 443.82421875 747 454.981445312 737.729492188 456.513671875 724.725585938 c 0
 459.971679688 695.45703125 444.256835938 615.74609375 418.328125 488.068359375 c 0
 409.9609375 446.818359375 401.474609375 405.017578125 394.12890625 366.361328125 c 1
 412.907226562 373.943359375 425.478515625 379.403320312 425.872070312 379.560546875 c 0
 437.342773438 384.588867188 450.541992188 378.815429688 455.295898438 366.713867188 c 2
EndSplineSet
EndChar

StartChar: I
Encoding: 73 73 8
Width: 180
Flags: W
HStem: -14.7998 21G<102.419 108.685>
VStem: 123.417 48.5967<429.876 661.507>
LayerCount: 2
Fore
SplineSet
104.638671875 -14.7998046875 m 0
 100.19921875 -14.7998046875 95.7216796875 -13.3466796875 91.71484375 -10.361328125 c 0
 25.3603515625 39.3359375 45.23828125 136.763671875 72.69921875 271.592773438 c 0
 92.224609375 367.450195312 116.541992188 486.760742188 123.416992188 634.356445312 c 0
 124.1640625 650.307617188 135.596679688 662.603515625 149.071289062 661.66015625 c 0
 162.467773438 660.797851562 172.759765625 647.125 172.013671875 631.17578125 c 0
 164.86328125 478.275390625 139.99609375 356.135742188 120 258 c 0
 93.599609375 128.436523438 82.4814453125 64.990234375 117.641601562 38.62890625 c 0
 128.99609375 30.103515625 132.4140625 12.228515625 125.263671875 -1.28515625 c 0
 120.627929688 -10.0068359375 112.731445312 -14.7998046875 104.638671875 -14.7998046875 c 0
EndSplineSet
EndChar

StartChar: J
Encoding: 74 74 9
Width: 382
Flags: W
HStem: 568 56.1387<180.109 302.18>
VStem: 127.671 52.3291<474.963 568>
LayerCount: 2
Fore
SplineSet
510.509765625 712.138671875 m 6
 510.548828125 712.138671875 l 6
 517.46484375 698.467773438 512.868164062 681.298828125 500.217773438 673.795898438 c 4
 373.795898438 598.798828125 263.952148438 568.62890625 180 568 c 5
 180.077148438 549.37890625 183.416992188 523.017578125 195.71484375 488.995117188 c 4
 205.103515625 463.068359375 225.217773438 429.321289062 246.471679688 393.571289062 c 4
 294.634765625 312.564453125 354.625 211.756835938 346.650390625 111.068359375 c 4
 341.62109375 47.73828125 310.702148438 22.1640625 285.638671875 11.83203125 c 4
 272.94921875 6.6064453125 259.081054688 4.2890625 244.702148438 4.2890625 c 4
 187.935546875 4.2890625 122.956054688 40.2353515625 89.525390625 74.453125 c 4
 79.03515625 85.177734375 78.603515625 103.052734375 88.5029296875 114.3671875 c 4
 98.4033203125 125.680664062 114.903320312 126.193359375 125.391601562 115.467773438 c 4
 159.846679688 80.189453125 230.717773438 49.6640625 267.056640625 64.5927734375 c 4
 273.067382812 67.1064453125 291.375 74.6103515625 294.634765625 115.899414062 c 4
 301.077148438 197.416992188 248.75 285.37890625 202.548828125 363.006835938 c 4
 179.803710938 401.153320312 158.353515625 437.217773438 147.077148438 468.41015625 c 4
 131.520507812 511.467773438 127.317382812 546.1171875 127.670898438 571.849609375 c 5
 86.0283203125 578.686523438 53.6953125 594.321289062 32.6787109375 615.811523438 c 4
 22.1884765625 626.53515625 21.7177734375 644.41015625 31.6181640625 655.724609375 c 4
 41.5166015625 667.078125 58.056640625 667.548828125 68.5068359375 656.86328125 c 4
 83.435546875 641.620117188 107.0859375 631.131835938 137.728515625 626.53515625 c 4
 144.368164062 639.971679688 159.728515625 645.392578125 172.416992188 638.517578125 c 4
 178.231445312 635.375 182.474609375 630.149414062 184.791992188 624.138671875 c 4
 260.298828125 626.575195312 361.971679688 656.196289062 475.07421875 723.334960938 c 4
 487.724609375 730.798828125 503.596679688 725.811523438 510.509765625 712.138671875 c 6
EndSplineSet
EndChar

StartChar: K
Encoding: 75 75 10
Width: 520
Flags: W
HStem: -24.4355 56.8467<371.898 501.735> 697.632 20G<562.366 566.139>
VStem: 34.7988 80.6152<48.0022 113.692>
LayerCount: 2
Fore
SplineSet
562.366210938 717.513671875 m 1
 562.446289062 717.631835938 l 1
 569.831054688 704.708007812 567.122070312 686.950195312 556.395507812 678.033203125 c 0
 459.831054688 597.616210938 286.817382812 342.846679688 175.206054688 173.013671875 c 1
 219.481445312 114.360351562 319.189453125 50.8369140625 481.045898438 32.4111328125 c 0
 494.010742188 30.91796875 503.517578125 17.0498046875 502.298828125 1.375 c 0
 501.122070312 -13.3564453125 490.866210938 -24.435546875 478.845703125 -24.435546875 c 0
 478.099609375 -24.435546875 477.352539062 -24.396484375 476.606445312 -24.3173828125 c 0
 329.795898438 -7.6201171875 209.227539062 48.3603515625 145.584960938 127.756835938 c 1
 134.545898438 110.786132812 124.41015625 95.228515625 115.4140625 81.3603515625 c 0
 93.8076171875 48.125 78.2099609375 24.0830078125 69.9208984375 12.138671875 c 0
 63.98828125 3.5751953125 56.7607421875 0.158203125 50.00390625 0.158203125 c 0
 45.6025390625 0.158203125 41.439453125 1.5712890625 37.9814453125 3.96875 c 0
 19.1640625 16.9326171875 25.0576171875 40.8974609375 34.798828125 80.5361328125 c 0
 40.849609375 105.129882812 49.8857421875 138.953125 62.4560546875 183.857421875 c 0
 85.0458984375 264.708007812 114.234375 364.336914062 135.567382812 437.0546875 c 0
 149.19921875 483.450195312 159.923828125 520.103515625 164.28515625 535.897460938 c 0
 165.032226562 538.568359375 165.581054688 540.846679688 165.974609375 542.811523438 c 1
 160.16015625 541.711914062 152.814453125 539.51171875 148.060546875 538.096679688 c 0
 141.302734375 536.0546875 134.900390625 534.16796875 128.888671875 533.147460938 c 0
 115.963867188 531.026367188 104.099609375 541.828125 102.291992188 557.424804688 c 0
 100.525390625 573.022460938 109.520507812 587.401367188 122.407226562 589.561523438 c 0
 125.981445312 590.151367188 131.166992188 591.721679688 136.706054688 593.373046875 c 0
 157.724609375 599.658203125 186.481445312 608.26171875 204.081054688 585.279296875 c 0
 221.366210938 562.689453125 212.057617188 528.943359375 208.991210938 517.866210938 c 0
 204.474609375 501.561523438 193.670898438 464.671875 180 418 c 0
 160.395507812 351.174804688 128.653320312 242.904296875 104.767578125 157.26171875 c 1
 218.5390625 331.96484375 416.616210938 630.811523438 529.564453125 724.822265625 c 0
 540.328125 733.741210938 554.981445312 730.439453125 562.366210938 717.513671875 c 1
EndSplineSet
EndChar

StartChar: L
Encoding: 76 76 11
Width: 294
Flags: W
LayerCount: 2
Fore
SplineSet
186.506835938 -1.9189453125 m 1
 165.134765625 -1.9189453125 143.646484375 2.560546875 124.16015625 11.5966796875 c 0
 84.32421875 30.138671875 56.58984375 65.259765625 46.099609375 110.516601562 c 0
 30.3466796875 178.403320312 69.2783203125 317.19921875 121.803710938 491.58984375 c 0
 136.888671875 541.638671875 152.327148438 592.868164062 159.98828125 625.946289062 c 1
 157.356445312 623.627929688 154.920898438 621.506835938 152.99609375 619.778320312 c 0
 146.317382812 613.845703125 140.502929688 608.69921875 135.513671875 605.045898438 c 0
 125.141601562 597.46484375 111.157226562 600.528320312 104.282226562 611.920898438 c 0
 97.3681640625 623.314453125 100.157226562 638.673828125 110.528320312 646.256835938 c 0
 113.827148438 648.653320312 119.092773438 653.328125 124.670898438 658.317382812 c 0
 148.94921875 679.884765625 171.891601562 700.275390625 193.146484375 689.118164062 c 0
 198.21484375 686.446289062 210 677.920898438 210 656 c 0
 210 628.106445312 193.577148438 572.282226562 164.5859375 476.032226562 c 0
 127.185546875 351.967773438 75.99609375 182.016601562 89.74609375 122.775390625 c 0
 98.625 84.4326171875 122.903320312 65.9677734375 141.721679688 57.24609375 c 0
 173.423828125 42.513671875 212.23828125 44.5576171875 240.681640625 62.4326171875 c 0
 251.485351562 69.228515625 265.235351562 65.103515625 271.442382812 53.2783203125 c 0
 277.650390625 41.4140625 273.877929688 26.2890625 263.11328125 19.4931640625 c 0
 240.603515625 5.349609375 213.653320312 -1.87890625 186.506835938 -1.87890625 c 1
 186.506835938 -1.9189453125 l 1
EndSplineSet
EndChar

StartChar: M
Encoding: 77 77 12
Width: 764
Flags: W
VStem: 639.84 42.3896<545.184 596.869>
LayerCount: 2
Fore
SplineSet
853.201171875 -113.518554688 m 1
 850.489257812 -113.518554688 847.739257812 -112.967773438 845.029296875 -111.7890625 c 0
 653.197265625 -27.482421875 629.822265625 289.984375 631.944335938 462.685546875 c 1
 564.018554688 331.078125 444.944335938 130.013671875 351.482421875 129.974609375 c 0
 346.846679688 129.974609375 342.329101562 130.446289062 337.850585938 131.467773438 c 0
 317.854492188 135.984375 302.88671875 149.381835938 294.596679688 170.243164062 c 0
 266.350585938 241.115234375 326.928710938 403.247070312 378 518 c 1
 235.079101562 365.138671875 163.147460938 184.227539062 125.55078125 89.548828125 c 0
 100.015625 25.2783203125 90.4287109375 1.548828125 67.447265625 2.138671875 c 0
 60.375 2.4140625 47.4892578125 6.146484375 40.33984375 27.990234375 c 0
 7.732421875 127.852539062 69.13671875 260.247070312 123.310546875 377.081054688 c 0
 152.107421875 439.153320312 195.596679688 532.967773438 177.918945312 546.247070312 c 0
 167.546875 554.025390625 164.717773438 569.817382812 171.592773438 581.564453125 c 0
 178.467773438 593.271484375 192.454101562 596.493164062 202.826171875 588.713867188 c 0
 254.368164062 550.017578125 214.140625 463.314453125 163.225585938 353.470703125 c 0
 124.057617188 269.045898438 76.9931640625 167.493164062 76.404296875 90.4140625 c 1
 79.076171875 97.013671875 81.787109375 103.849609375 84.4189453125 110.490234375 c 0
 130.697265625 226.932617188 226.986328125 469.247070312 439.600585938 641.513671875 c 0
 448.243164062 648.506835938 460.029296875 647.760742188 467.88671875 639.666992188 c 0
 475.743164062 631.57421875 477.55078125 618.4140625 472.208007812 608.00390625 c 0
 406.287109375 479.852539062 310.900390625 253.331054688 335.650390625 191.220703125 c 0
 337.928710938 185.484375 341.032226562 182.734375 346.650390625 181.477539062 c 0
 414.614257812 166.196289062 558.951171875 407.842773438 639.83984375 584.392578125 c 0
 644.829101562 595.314453125 656.025390625 600.618164062 666.397460938 597.041992188 c 0
 676.807617188 593.467773438 683.447265625 582.03515625 682.229492188 569.817382812 c 0
 681.678710938 564.513671875 631.826171875 36.5537109375 861.333007812 -64.2939453125 c 0
 872.921875 -69.400390625 878.697265625 -84.1318359375 874.178710938 -97.2529296875 c 0
 870.721679688 -107.349609375 862.197265625 -113.518554688 853.162109375 -113.518554688 c 1
 853.201171875 -113.518554688 l 1
EndSplineSet
EndChar

StartChar: N
Encoding: 78 78 13
Width: 426
Flags: W
VStem: 23.0928 44.0791<1.95247 88.4536> 372.422 45.0225<420.948 644.584>
LayerCount: 2
Fore
SplineSet
296.287109375 -44.3388671875 m 1
 279.118164062 -44.3388671875 263.796875 -31.4521484375 250.63671875 -5.95703125 c 0
 197.05078125 97.9931640625 186.8359375 246.2578125 188.879882812 361.24609375 c 1
 175.168945312 323.84765625 160.592773438 285.190429688 146.17578125 246.88671875 c 0
 110.34765625 151.893554688 76.521484375 62.166015625 67.171875 19.0693359375 c 0
 64.5400390625 6.8896484375 52.5185546875 -0.8095703125 40.33984375 1.822265625 c 0
 28.162109375 4.4541015625 20.4609375 16.4755859375 23.0927734375 28.6142578125 c 0
 33.1904296875 74.97265625 65.9931640625 161.990234375 103.983398438 262.7578125 c 0
 140.59765625 359.833007812 180.826171875 466.572265625 202 542 c 0
 208.05078125 590.754882812 215.553710938 630.197265625 222.900390625 637.778320312 c 0
 229.618164062 644.732421875 240.264648438 646.697265625 248.986328125 642.611328125 c 0
 264.778320312 635.146484375 263.01171875 620.061523438 260.810546875 600.9296875 c 0
 258.729492188 582.819335938 253.740234375 560.150390625 246.58984375 534.181640625 c 0
 230.796875 407.643554688 215.633789062 160.143554688 290.668945312 14.6298828125 c 0
 292.986328125 10.150390625 294.951171875 6.9296875 296.560546875 4.6904296875 c 1
 330.072265625 54.38671875 361.618164062 356.493164062 372.421875 623.0078125 c 0
 372.932617188 635.422851562 383.303710938 644.8515625 395.8359375 644.615234375 c 0
 408.290039062 644.104492188 417.954101562 633.615234375 417.444335938 621.201171875 c 0
 417.365234375 619.629882812 410.883789062 461.740234375 395.875 304.0078125 c 0
 366.528320312 -4.423828125 333.17578125 -37.0703125 304.22265625 -43.474609375 c 0
 301.51171875 -44.0634765625 298.879882812 -44.37890625 296.247070312 -44.37890625 c 1
 296.287109375 -44.3388671875 l 1
217.243164062 619.708007812 m 1
 217.243164062 619.708007812 l 1
EndSplineSet
EndChar

StartChar: O
Encoding: 79 79 14
Width: 424
Flags: W
HStem: -4.01367 45.0996<115.776 213.556> 466 44.668<189.941 265.429> 548.775 44.8643<266.835 347.571>
LayerCount: 2
Fore
SplineSet
160.032226562 -4.013671875 m 1
 159.638671875 -4.013671875 159.28515625 -4.013671875 158.892578125 -4.013671875 c 0
 126.36328125 -3.66015625 66.728515625 13.271484375 32.9033203125 122.643554688 c 0
 1.75 223.333007812 28.3857421875 337.025390625 104.245117188 426.79296875 c 0
 151.6640625 482.893554688 207.41015625 515.697265625 246.145507812 510.66796875 c 0
 258.481445312 509.018554688 267.1640625 497.665039062 265.513671875 485.368164062 c 0
 263.86328125 473.032226562 252.548828125 464.389648438 240.213867188 466 c 0
 223.870117188 468.319335938 181.561523438 448.438476562 138.700195312 397.721679688 c 0
 114.028320312 368.532226562 36.5556640625 263.326171875 76 136 c 0
 94.818359375 75.185546875 124.439453125 41.4794921875 159.443359375 41.0859375 c 0
 206.03515625 40.2216796875 275.334960938 99.0322265625 318.471679688 228.518554688 c 0
 364.436523438 366.411132812 388.791992188 467.924804688 358.189453125 514.989257812 c 0
 345.6171875 534.319335938 322.360351562 545.357421875 287.041992188 548.775390625 c 0
 274.666992188 549.954101562 265.592773438 560.993164062 266.770507812 573.368164062 c 0
 267.98828125 585.743164062 278.91015625 594.819335938 291.36328125 593.639648438 c 0
 340.548828125 588.88671875 375.709960938 570.697265625 395.943359375 539.54296875 c 0
 436.680664062 476.8828125 414.052734375 372.813476562 361.173828125 214.2578125 c 0
 316.939453125 81.51171875 238.052734375 -3.974609375 160.032226562 -3.974609375 c 1
 160.032226562 -4.013671875 l 1
EndSplineSet
EndChar

StartChar: P
Encoding: 80 80 15
Width: 356
Flags: W
HStem: 287.542 45.3359<137.215 223.32> 490.963 43.332<114.056 148.73>
VStem: 52.2939 44.9824<-2.23094 479.02>
LayerCount: 2
Fore
SplineSet
74.8046875 -2.26953125 m 6
 74.3720703125 -2.26953125 73.939453125 -2.26953125 73.5478515625 -2.26953125 c 4
 61.1318359375 -1.6015625 51.5859375 9.044921875 52.2939453125 21.5 c 4
 52.41015625 23.462890625 63.0966796875 219.10546875 54.1396484375 331.305664062 c 4
 45.14453125 443.859375 70.12890625 519.720703125 121.043945312 534.294921875 c 4
 132.986328125 537.791992188 145.478515625 530.798828125 148.896484375 518.817382812 c 4
 152.314453125 506.833984375 145.401367188 494.381835938 133.418945312 490.962890625 c 4
 114.993164062 485.69921875 90.67578125 439.813476562 99.0439453125 334.919921875 c 4
 108.276367188 219.65625 97.7470703125 27.15625 97.2763671875 18.984375 c 4
 96.6083984375 7.0029296875 86.6689453125 -2.3076171875 74.8046875 -2.3076171875 c 6
 74.8046875 -2.26953125 l 6
401.936523438 406.341796875 m 4
 245.264648438 303.884765625 188.33984375 287.541992188 163.471679688 287.541992188 c 4
 156.283203125 287.541992188 151.764648438 288.916992188 148.307617188 289.938476562 c 4
 137.50390625 293.19921875 129.21484375 300.506835938 124.932617188 310.4453125 c 4
 120.021484375 321.877929688 125.326171875 335.116210938 136.756835938 340.02734375 c 4
 146.5 344.23046875 157.579101562 341.009765625 163.668945312 332.877929688 c 6
 163.865234375 332.877929688 l 6
 174.58984375 332.877929688 220.122070312 341.28515625 377.3046875 444.055664062 c 4
 444.012695312 487.702148438 462.5546875 541.208984375 457.603515625 576.723632812 c 4
 454.3046875 600.688476562 440.474609375 618.131835938 419.733398438 624.612304688 c 4
 385.986328125 635.180664062 312.797851562 621.587890625 248.25 609.645507812 c 4
 181.896484375 597.388671875 124.579101562 586.741210938 93.701171875 597.388671875 c 4
 81.9150390625 601.473632812 75.6689453125 614.28125 79.75390625 626.067382812 c 4
 83.80078125 637.813476562 96.6083984375 644.060546875 108.39453125 640.013671875 c 4
 127.997070312 633.216796875 187.514648438 644.256835938 240 654 c 4
 313.111328125 667.551757812 388.696289062 681.538085938 433.12890625 667.669921875 c 4
 470.646484375 655.962890625 496.497070312 624.298828125 502.233398438 582.970703125 c 4
 509.068359375 533.744140625 486.321289062 461.5 401.936523438 406.341796875 c 4
EndSplineSet
EndChar

StartChar: Q
Encoding: 81 81 16
Width: 458
Flags: W
HStem: -169.489 49.4219<421.615 515.064> 527.007 49.3438<308.162 381.76>
VStem: 249.747 44.1562<124.425 202.646> 287.853 41.4854<362.893 505.52>
LayerCount: 2
Fore
SplineSet
515.16015625 -141.516601562 m 2xc0
 515.19921875 -141.557617188 l 2
 516.456054688 -155.109375 507.459960938 -167.2109375 495.084960938 -168.625 c 0
 489.899414062 -169.213867188 484.831054688 -169.489257812 479.881835938 -169.489257812 c 0
 383.395507812 -169.489257812 322.856445312 -62.396484375 287.892578125 33.9326171875 c 1
 271.62890625 20.37890625 254.774414062 9.5361328125 237.528320312 2.3857421875 c 0
 220.94921875 -4.4892578125 204.44921875 -7.90625 188.263671875 -7.90625 c 0
 157.66015625 -7.90625 128.157226562 4.2724609375 101.087890625 28.353515625 c 0
 34.1455078125 87.9111328125 11.8310546875 203.84375 39.9208984375 346.372070312 c 0
 63.689453125 467.25390625 125.524414062 602.946289062 187.791992188 620.900390625 c 0
 210.381835938 627.381835938 244.087890625 626.557617188 276.342773438 585.583007812 c 0
 282.116210938 578.275390625 287.459960938 570.025390625 292.41015625 561.147460938 c 1
 295.828125 570.064453125 303.842773438 576.350585938 313.231445312 576.350585938 c 0
 363.91015625 576.350585938 405.356445312 557.4140625 433.052734375 521.625 c 0
 463.930664062 481.671875 474.774414062 424.432617188 464.36328125 356.036132812 c 0
 453.442382812 284.30078125 397.970703125 152.850585938 323.916992188 69.25 c 1
 352.791992188 -17.3359375 403.314453125 -120.067382812 480.430664062 -120.067382812 c 0
 483.692382812 -120.067382812 487.032226562 -119.91015625 490.44921875 -119.516601562 c 0
 502.747070312 -117.946289062 513.86328125 -127.963867188 515.16015625 -141.516601562 c 2xc0
221.578125 48.5869140625 m 0
 238.587890625 55.6572265625 255.481445312 67.640625 271.82421875 82.9619140625 c 1
 259.881835938 123.385742188 252.849609375 157.2890625 249.747070312 173.631835938 c 0
 247.231445312 186.951171875 255.087890625 200.032226562 267.267578125 202.782226562 c 0
 279.366210938 205.571289062 291.388671875 196.96875 293.903320312 183.611328125 c 0xe0
 295.395507812 175.71484375 299.9140625 152.850585938 307.849609375 123.032226562 c 1
 365.599609375 197.361328125 410.817382812 304.4140625 419.892578125 364.168945312 c 0
 428.064453125 417.793945312 420.717773438 461.243164062 398.677734375 489.725585938 c 0
 379.782226562 514.122070312 350.23828125 527.006835938 313.231445312 527.006835938 c 0
 311.462890625 527.006835938 309.734375 527.205078125 308.084960938 527.635742188 c 1
 330.94921875 469.728515625 339.278320312 401.018554688 329.337890625 375.600585938 c 0
 324.467773438 363.067382812 311.189453125 357.25390625 299.756835938 362.635742188 c 0
 288.36328125 367.978515625 283.060546875 382.358398438 287.852539062 394.850585938 c 0xd0
 293.234375 412.961914062 277.520507812 512.196289062 239.689453125 556.432617188 c 0
 227.352539062 570.850585938 216.747070312 574.543945312 208.416992188 574.543945312 c 0
 205 574.543945312 201.935546875 573.9140625 199.302734375 573.168945312 c 0
 169.642578125 564.643554688 110.006835938 468 84 336 c 0
 72.44921875 277.46484375 53.7890625 134.071289062 129.491210938 66.6962890625 c 0
 158.524414062 40.8466796875 188.657226562 34.9140625 221.578125 48.5869140625 c 0
EndSplineSet
EndChar

StartChar: R
Encoding: 82 82 17
Width: 560
Flags: W
HStem: -1.03223 45.1006<503.419 584.415>
LayerCount: 2
Fore
SplineSet
56.3818359375 -20.951171875 m 1
 55.951171875 -20.951171875 55.5576171875 -20.951171875 55.125 -20.951171875 c 0
 45.853515625 -20.5185546875 37.6435546875 -14.5078125 34.2255859375 -5.66796875 c 0
 31.515625 1.443359375 25.50390625 16.9599609375 92.015625 227.4921875 c 1
 94.6083984375 325.430664062 75.0830078125 416.53515625 51 450.203125 c 0
 43.7724609375 460.338867188 46.08984375 474.40234375 56.2255859375 481.631835938 c 0
 66.361328125 488.860351562 80.42578125 486.541992188 87.654296875 476.408203125 c 0
 106.865234375 449.53515625 122.067382812 402.430664062 130.435546875 346.135742188 c 1
 167.168945312 457.078125 222.208007812 616.106445312 242.1640625 635.946289062 c 0
 275.243164062 668.8671875 369.018554688 612.415039062 414 578 c 0
 529.893554688 489.291992188 570.122070312 385.578125 521.603515625 300.524414062 c 0
 491.55078125 247.803710938 454.897460938 215.235351562 412.705078125 203.763671875 c 0
 381.786132812 195.318359375 352.400390625 199.048828125 326.51171875 207.260742188 c 1
 393.375 138.471679688 503.140625 44.068359375 561.872070312 44.068359375 c 0
 574.326171875 44.068359375 584.421875 33.9716796875 584.421875 21.517578125 c 0
 584.421875 9.064453125 574.326171875 -1.0322265625 561.872070312 -1.0322265625 c 0
 449.475585938 -1.0322265625 243.461914062 221.443359375 229.358398438 256.053710938 c 0
 223.032226562 271.610351562 231.478515625 281.548828125 234.189453125 284.221679688 c 0
 236.939453125 286.892578125 247.036132812 295.103515625 262.475585938 288.385742188 c 0
 268.486328125 285.75390625 275.439453125 281.78515625 283.493164062 277.189453125 c 0
 312.682617188 260.453125 356.76171875 235.231445312 400.83984375 247.25390625 c 0
 431.08984375 255.50390625 458.55078125 280.959960938 482.435546875 322.87890625 c 0
 506.518554688 365.110351562 500.192382812 412.763671875 463.657226562 464.463867188 c 0
 404.611328125 548.024414062 299.247070312 600.1171875 272.4140625 601.296875 c 1
 252.37890625 566.724609375 186.692382812 377.3671875 137.036132812 220.6171875 c 1
 134.247070312 147.506835938 119.868164062 72.2744140625 89.5 11.5 c 0
 81.525390625 -4.4892578125 73.275390625 -20.9892578125 56.3818359375 -20.9892578125 c 1
 56.3818359375 -20.951171875 l 1
EndSplineSet
EndChar

StartChar: S
Encoding: 83 83 18
Width: 420
Flags: W
VStem: 367.746 45.0205<109.763 206.416>
LayerCount: 2
Fore
SplineSet
184.948242188 -4.5947265625 m 1
 137.53125 -4.5947265625 87.087890625 5.9736328125 36.330078125 27.2265625 c 0
 24.8583984375 32.0185546875 19.4375 45.2197265625 24.2685546875 56.73046875 c 0
 29.0625 68.201171875 42.26171875 73.662109375 53.7734375 68.791015625 c 0
 189.38671875 12.0234375 277.23046875 54.6083984375 308.659179688 75.5478515625 c 0
 345.666015625 100.180664062 367.74609375 134.633789062 367.74609375 167.712890625 c 0
 367.74609375 200.791015625 320.169921875 229.430664062 269.766601562 261.487304688 c 0
 199.6015625 306.194335938 112.268554688 361.784179688 100.916015625 456.1484375 c 0
 91.56640625 533.85546875 119.301757812 566.659179688 144.208984375 580.52734375 c 0
 193.198242188 607.829101562 263.913085938 581.155273438 298.483398438 553.537109375 c 0
 325.237304688 532.126953125 337.416015625 509.733398438 334.587890625 486.987304688 c 0
 332.073242188 466.518554688 317.576171875 449.2734375 293.768554688 438.3515625 c 0
 282.416015625 433.126953125 269.059570312 438.155273438 263.873046875 449.430664062 c 0
 258.6875 460.745117188 263.63671875 474.140625 274.951171875 479.326171875 c 0
 284.615234375 483.765625 289.37109375 489.1484375 289.801757812 492.487304688 c 0
 290.3125 496.768554688 285.518554688 506.120117188 270.27734375 518.337890625 c 0
 245.409179688 538.254882812 193.748046875 556.5234375 166.091796875 541.162109375 c 0
 142.833984375 528.197265625 142.127929688 490.719726562 145.623046875 461.530273438 c 0
 154.422851562 388.341796875 228.5546875 341.159179688 293.926757812 299.4765625 c 0
 355.016601562 260.543945312 412.766601562 223.8125 412.766601562 167.672851562 c 0
 412.766601562 119.469726562 383.184570312 70.9912109375 333.60546875 37.9912109375 c 0
 291.018554688 9.626953125 240.02734375 -4.5947265625 184.948242188 -4.6337890625 c 1
 184.948242188 -4.5947265625 l 1
EndSplineSet
EndChar

StartChar: T
Encoding: 84 84 19
Width: 436
Flags: W
HStem: 560.704 66.3926<13.8435 75.2864> 603.446 67.1787<158.512 348 411.751 689.812>
VStem: 222.562 66.3535<6.44205 262.538>
LayerCount: 2
Fore
SplineSet
658.868164062 670.782226562 m 1xa0
 658.828125 670.625 l 1
 677.372070312 670.389648438 692.221679688 655.146484375 691.985351562 636.604492188 c 0
 691.75 618.217773438 676.743164062 603.446289062 658.395507812 603.446289062 c 2
 657.96484375 603.446289062 l 2x60
 656.747070312 603.486328125 535.943359375 605.018554688 419.618164062 605.685546875 c 1
 395.614257812 541.493164062 326.276367188 354.729492188 307.41796875 290.37890625 c 0
 289.267578125 228.38671875 274.850585938 130.87890625 288.915039062 43.1923828125 c 0
 291.860351562 24.88671875 279.368164062 7.6396484375 261.061523438 4.6923828125 c 0
 259.29296875 4.4189453125 257.485351562 4.26171875 255.71875 4.26171875 c 0
 239.493164062 4.26171875 225.193359375 16.0068359375 222.561523438 32.546875 c 0
 202.642578125 156.807617188 233.12890625 275.803710938 242.950195312 309.314453125 c 0
 260.66796875 369.814453125 318.770507812 527.506835938 348 606 c 1
 253.439453125 606.157226562 219.299804688 605.21484375 208.142578125 604.310546875 c 0
 191.526367188 602.974609375 181.232421875 596.375 166.971679688 587.26171875 c 0
 145.915039062 573.78515625 120.732421875 557.678710938 75.7900390625 557.678710938 c 0
 65.064453125 557.678710938 53.2001953125 558.622070312 40 560.704101562 c 0
 21.654296875 563.611328125 9.1611328125 580.817382812 12.068359375 599.1640625 c 0
 14.9755859375 617.51171875 32.142578125 630.00390625 50.529296875 627.096679688 c 0
 93.7431640625 620.26171875 109.299804688 630.16015625 130.75 643.91015625 c 0
 147.95703125 654.91015625 169.368164062 668.622070312 202.682617188 671.333007812 c 0
 223.228515625 673.021484375 286.006835938 673.571289062 394.08203125 673.099609375 c 0
 395.33984375 673.217773438 396.596679688 673.139648438 397.853515625 673.099609375 c 0
 401.625 673.060546875 405.318359375 673.060546875 409.20703125 673.060546875 c 0
 528.950195312 672.471679688 657.571289062 670.782226562 658.868164062 670.782226562 c 1xa0
EndSplineSet
EndChar

StartChar: U
Encoding: 85 85 20
Width: 410
Flags: W
HStem: -10.375 45.0605<92.1067 176.065>
VStem: 379.797 44.7852<602.722 766.347>
LayerCount: 2
Fore
SplineSet
116.818359375 -10.4130859375 m 1
 96.7822265625 -10.4130859375 79.220703125 -2.439453125 66.1015625 12.6474609375 c 0
 17.42578125 68.55078125 33.1787109375 213.00390625 60.71875 411.00390625 c 0
 66.7294921875 454.296875 72.42578125 495.233398438 76 530 c 0
 77.2587890625 542.375 88.296875 551.451171875 100.711914062 550.115234375 c 0
 113.086914062 548.858398438 122.08203125 537.779296875 120.825195312 525.404296875 c 0
 117.171875 489.850585938 111.435546875 448.522460938 105.345703125 404.796875 c 0
 86.685546875 270.67578125 61.150390625 87.015625 100.08203125 42.2685546875 c 0
 104.71875 36.96484375 109.70703125 34.685546875 116.818359375 34.685546875 c 0
 237.662109375 34.685546875 323.657226562 267.571289062 379.796875 746.661132812 c 0
 381.25 758.997070312 392.448242188 767.796875 404.823242188 766.421875 c 0
 417.198242188 764.96875 426.037109375 753.772460938 424.58203125 741.397460938 c 0
 363.650390625 221.490234375 268.736328125 -10.375 116.818359375 -10.375 c 1
 116.818359375 -10.4130859375 l 1
EndSplineSet
EndChar

StartChar: V
Encoding: 86 86 21
Width: 384
Flags: W
LayerCount: 2
Fore
SplineSet
174.166992188 -21.900390625 m 2
 163.678710938 -21.900390625 154.484375 -15.53515625 150.0859375 -5.0859375 c 0
 140.381835938 17.8173828125 129.263671875 72.8564453125 115.19921875 142.55078125 c 0
 97.009765625 232.592773438 49.513671875 459.036132812 27.513671875 486.064453125 c 0
 19.6572265625 495.728515625 21.109375 509.911132812 30.734375 517.768554688 c 0
 40.400390625 525.625 54.5810546875 524.171875 62.4384765625 514.546875 c 0
 89.4287109375 481.428710938 131.345703125 290.263671875 159.356445312 151.467773438 c 0
 166.8203125 114.5 174.048828125 78.75 180.3359375 51.99609375 c 1
 209.641601562 118.704101562 260.634765625 268.381835938 300 384 c 0
 363.563476562 570.647460938 403.634765625 685.989257812 424.141601562 714.157226562 c 0
 468.416992188 774.932617188 532.650390625 772.221679688 560.423828125 762.321289062 c 0
 572.131835938 758.118164062 578.259765625 745.231445312 574.056640625 733.525390625 c 0
 569.852539062 721.817382812 556.928710938 715.728515625 545.259765625 719.893554688 c 0
 540.388671875 721.54296875 495.092773438 735.096679688 460.599609375 687.638671875 c 0
 442.606445312 662.928710938 389.53125 507.04296875 342.6640625 369.46484375 c 0
 220.4453125 10.6279296875 204.141601562 -20.80078125 175.109375 -21.861328125 c 0
 174.794921875 -21.861328125 174.481445312 -21.861328125 174.166992188 -21.861328125 c 2
 174.166992188 -21.900390625 l 2
EndSplineSet
EndChar

StartChar: W
Encoding: 87 87 22
Width: 544
Flags: W
HStem: 239.731 20G<239.808 272.042>
VStem: 106 50.5615<449.73 561.165> 481.847 51.8584<210.16 613.785>
LayerCount: 2
Fore
SplineSet
357.389648438 -74.8251953125 m 0
 352.283203125 -74.8251953125 347.17578125 -73.529296875 342.381835938 -71.015625 c 0
 319.833007812 -59.111328125 309.028320312 -22.654296875 283.92578125 78.4287109375 c 0
 274.653320312 115.75 260.236328125 173.813476562 249 199.900390625 c 1
 233.403320312 182.967773438 208.615234375 147.688476562 190.936523438 122.545898438 c 0
 131.9296875 38.7109375 99.4013671875 -5.015625 64.6728515625 -1.5185546875 c 0
 51 -0.2216796875 39.6083984375 8.5 33.361328125 22.3681640625 c 0
 3.9755859375 87.7783203125 74.375 407.563476562 106 542 c 0
 109.262695312 555.9453125 123.247070312 564.588867188 137.233398438 561.327148438 c 0
 151.1796875 558.028320312 159.861328125 544.08203125 156.561523438 530.095703125 c 0
 105.057617188 311.118164062 73.55078125 120.856445312 77.67578125 59.806640625 c 1
 97.396484375 79.8427734375 128.314453125 123.763671875 148.46875 152.403320312 c 0
 204.41015625 231.916992188 226.372070312 259.731445312 253.243164062 259.731445312 c 0
 290.83984375 259.731445312 305.256835938 207.952148438 334.330078125 90.8818359375 c 0
 342.34375 58.5498046875 353.5 13.646484375 362.497070312 -11.2216796875 c 1
 403.041015625 38.75 490.528320312 207.8359375 481.846679688 407.643554688 c 0
 470.807617188 661.153320312 554.87890625 690.106445312 571.850585938 693.368164062 c 0
 598.172851562 696.157226562 603.672851562 661.743164062 581.5546875 642.375 c 0
 558.100585938 621.827148438 524.58984375 619.275390625 533.705078125 409.920898438 c 0
 544.625 158.295898438 415.493164062 -55.2607421875 368.350585938 -72.8212890625 c 0
 364.776367188 -74.1572265625 361.083007812 -74.8251953125 357.389648438 -74.8251953125 c 0
80.701171875 43.62109375 m 1
 80.818359375 43.62109375 l 1
 80.701171875 43.62109375 l 1
EndSplineSet
EndChar

StartChar: X
Encoding: 88 88 23
Width: 452
Flags: W
HStem: -4.78906 50.8369<375.422 426.282>
LayerCount: 2
Fore
SplineSet
476.08984375 658.51171875 m 2
 476.08984375 658.471679688 l 2
 487.208007812 650.063476562 489.407226562 634.153320312 480.961914062 622.99609375 c 0
 479.46875 621.032226562 357.721679688 460.197265625 274.711914062 340.88671875 c 1
 303.940429688 274.532226562 336.428710938 187.868164062 374.890625 69.1865234375 c 0
 378.032226562 59.6396484375 395.161132812 47.6181640625 403.372070312 46.0478515625 c 0
 414.490234375 50.5634765625 427.612304688 46.6748046875 434.290039062 36.1865234375 c 0
 441.794921875 24.400390625 438.336914062 8.7255859375 426.51171875 1.2216796875 c 0
 421.640625 -1.8818359375 414.451171875 -4.7890625 404.786132812 -4.7890625 c 0
 398.737304688 -4.7890625 391.705078125 -3.6494140625 383.612304688 -0.7421875 c 0
 362.201171875 6.9580078125 335.250976562 27.2294921875 326.7265625 53.58984375 c 0
 294.157226562 154.04296875 266.147460938 230.729492188 240.88671875 291.229492188 c 1
 236.015625 283.8828125 231.419921875 276.889648438 227.25390625 270.329101562 c 0
 218.611328125 256.736328125 209.458007812 242.6328125 200.147460938 228.25390625 c 0
 157.955078125 163.118164062 70.150390625 27.54296875 83.4287109375 0.947265625 c 0
 93.171875 -9.1103515625 92.740234375 -24.9033203125 82.68359375 -34.6455078125 c 0
 77.810546875 -39.3603515625 71.525390625 -41.677734375 65.201171875 -41.677734375 c 0
 58.4443359375 -41.677734375 51.685546875 -39.0068359375 46.6572265625 -33.8203125 c 0
 3.8369140625 10.4541015625 60.015625 105.1328125 157.6015625 255.833007812 c 0
 166.872070312 270.092773438 175.948242188 284.079101562 184.551757812 297.592773438 c 0
 193.782226562 312.049804688 204.705078125 328.471679688 216.765625 346.111328125 c 1
 175.790039062 434.032226562 141.455078125 480.704101562 104.801757812 525.451171875 c 0
 95.921875 536.29296875 97.4931640625 552.243164062 108.336914062 561.12109375 c 0
 119.178710938 570 135.12890625 568.4296875 144.008789062 557.5859375 c 0
 179.12890625 514.686523438 212.208007812 470.29296875 250 394 c 1
 331.046875 508.91015625 434.919921875 646.13671875 440.615234375 653.639648438 c 0
 449.022460938 664.7578125 464.971679688 666.958007812 476.08984375 658.51171875 c 2
EndSplineSet
EndChar

StartChar: Y
Encoding: 89 89 24
Width: 368
Flags: W
HStem: -30.0693 42.7432<82.7397 125.988>
LayerCount: 2
Fore
SplineSet
476.384765625 770.180664062 m 5
 476.345703125 770.180664062 l 5
 486.24609375 735.609375 471.669921875 671.967773438 443.149414062 625.294921875 c 4
 434.153320312 610.564453125 419.578125 579.44921875 402.685546875 543.423828125 c 4
 347.41015625 425.52734375 297.94921875 325.310546875 252.142578125 293.370117188 c 6
 237.842773438 283.430664062 l 6
 183.432617188 245.756835938 147.524414062 220.888671875 125.328125 164.19921875 c 4
 120.416992188 151.587890625 114.328125 138.349609375 108.435546875 125.502929688 c 4
 92.25 90.185546875 73.8642578125 50.15234375 83.2919921875 30.15625 c 4
 84.6279296875 27.2880859375 88.7529296875 18.52734375 110.713867188 12.673828125 c 4
 122.303710938 9.5712890625 129.217773438 -2.3330078125 126.114257812 -13.921875 c 4
 123.521484375 -23.6650390625 114.720703125 -30.0693359375 105.134765625 -30.0693359375 c 4
 103.288085938 -30.0693359375 101.403320312 -29.8330078125 99.517578125 -29.3232421875 c 4
 72.017578125 -21.9765625 53.3173828125 -8.185546875 43.9677734375 11.65234375 c 4
 25.974609375 49.9560546875 47.8173828125 97.5712890625 68.953125 143.65234375 c 4
 74.845703125 156.5 80.42578125 168.599609375 84.9033203125 180.071289062 c 4
 100.814453125 220.810546875 122.932617188 248.270507812 150 272 c 5
 147.25 273.689453125 144.814453125 275.967773438 142.967773438 278.913085938 c 4
 75.435546875 386.203125 198.791992188 635.78515625 204.057617188 646.352539062 c 4
 209.439453125 657.078125 222.442382812 661.439453125 233.20703125 656.055664062 c 4
 243.932617188 650.712890625 248.291992188 637.631835938 242.91015625 626.90625 c 4
 197.102539062 535.291992188 139.432617188 366.048828125 179.739257812 302.051757812 c 4
 180.720703125 300.520507812 181.428710938 298.870117188 181.977539062 297.220703125 c 5
 191.916992188 304.44921875 202.328125 311.638671875 213.169921875 319.141601562 c 6
 227.352539062 329.002929688 l 6
 267.345703125 356.895507812 325.134765625 480.252929688 363.399414062 561.849609375 c 4
 381.55078125 600.584960938 395.888671875 631.1484375 406.142578125 647.962890625 c 4
 433.602539062 692.90625 440.634765625 747.90625 434.03515625 760.125 c 4
 424.489257812 765.939453125 420.875 778.196289062 425.942382812 788.370117188 c 4
 431.32421875 799.095703125 444.368164062 803.456054688 455.092773438 798.07421875 c 4
 462.163085938 794.538085938 471.631835938 786.798828125 476.384765625 770.180664062 c 5
EndSplineSet
EndChar

StartChar: Z
Encoding: 90 90 25
Width: 652
Flags: W
HStem: 595.533 53.7021<348.916 508.29>
LayerCount: 2
Fore
SplineSet
155.935546875 -17.3642578125 m 1
 129.96875 -17.3642578125 106.319335938 -14.2216796875 86.205078125 -7.111328125 c 0
 56.46484375 3.4970703125 35.3681640625 22 23.46484375 47.9287109375 c 0
 -19.3173828125 141.388671875 126.31640625 270.520507812 336.729492188 442.709960938 c 0
 399.310546875 493.899414062 481.537109375 561.196289062 508.290039062 595.533203125 c 1
 438.833007812 594.666992188 237.92578125 554.478515625 205.435546875 539.58984375 c 0
 197.461914062 532.83203125 186.069335938 531.103515625 176.208007812 536.09375 c 0
 162.96875 542.770507812 157.625 559.075195312 164.265625 572.471679688 c 0
 169.765625 583.58984375 174.951171875 594.1171875 310.643554688 621.6171875 c 0
 340.932617188 627.747070312 444.569335938 647.899414062 505.461914062 649.235351562 c 0
 528.640625 649.747070312 554.490234375 648.645507812 565.333007812 628.846679688 c 0
 590.397460938 583.196289062 527.618164062 529.178710938 370.435546875 400.557617188 c 0
 248.178710938 300.497070312 43.5400390625 133.061523438 72.1015625 70.71484375 c 0
 77.7587890625 58.33984375 88.2080078125 49.6171875 104 44 c 0
 212.900390625 5.224609375 498.508789062 128.033203125 599.31640625 178.631835938 c 0
 612.553710938 185.270507812 628.622070312 179.770507812 635.182617188 166.375 c 0
 641.743164062 152.978515625 636.361328125 136.71484375 623.083007812 130.075195312 c 0
 589.178710938 113.064453125 323.803710938 -17.4033203125 155.935546875 -17.4033203125 c 1
 155.935546875 -17.3642578125 l 1
203.826171875 538.84375 m 1
 203.826171875 538.84375 l 1
212.115234375 548.193359375 m 1
 212.115234375 548.193359375 l 1
212.154296875 548.270507812 m 1
 212.154296875 548.270507812 212.154296875 548.270507812 212.154296875 548.232421875 c 1
 212.154296875 548.232421875 212.154296875 548.232421875 212.154296875 548.270507812 c 1
EndSplineSet
EndChar

StartChar: a
Encoding: 97 97 26
Width: 383
Flags: W
LayerCount: 2
Fore
SplineSet
240.356445312 -108.108398438 m 0
 226.534179688 -108.108398438 214.034179688 -98.6796875 210.677734375 -84.6787109375 c 0
 203.25 -53.71484375 229.392578125 -20.6787109375 265.571289062 25.1064453125 c 0
 281.427734375 45.2138671875 297.856445312 65.9638671875 310.284179688 85.4990234375 c 0
 313.927734375 91.25 315.78515625 95.28515625 316.713867188 97.892578125 c 1
 311.927734375 99.5712890625 301.212890625 101.928710938 278.78515625 101.999023438 c 0
 269.5 99.78515625 243.071289062 81.6064453125 225.463867188 69.53515625 c 0
 175.927734375 35.5361328125 124.642578125 0.4287109375 82 14 c 0
 69.1064453125 18.1064453125 51.78515625 28.427734375 42.212890625 54.3916015625 c 0
 30.8203125 85.28515625 38.927734375 117.03515625 65.03515625 143.8203125 c 0
 118.5 198.677734375 240.463867188 226.107421875 296 207.25 c 0
 311.963867188 201.821289062 320.53515625 184.499023438 315.106445312 168.5 c 0
 314.213867188 165.856445312 312.999023438 163.427734375 311.499023438 161.25 c 1
 336.571289062 157.963867188 360.356445312 149.321289062 372.25 127.606445312 c 0
 383.712890625 106.749023438 380.213867188 81.5712890625 361.856445312 52.7138671875 c 0
 347.749023438 30.5361328125 330.356445312 8.53515625 313.5 -12.7861328125 c 0
 297.749023438 -32.71484375 274.213867188 -62.5 270.713867188 -73.9296875 c 0
 272.53515625 -89.107421875 262.749023438 -103.572265625 247.499023438 -107.25 c 0
 245.106445312 -107.822265625 242.713867188 -108.108398438 240.356445312 -108.108398438 c 0
270.0703125 -70.4287109375 m 1
 270.0703125 -70.4287109375 l 1
240.463867188 151.642578125 m 1
 197.677734375 148.249023438 136.463867188 129.571289062 108.749023438 101.142578125 c 0
 95.177734375 87.2138671875 98.1064453125 79.2861328125 99.5 75.4638671875 c 0
 100.571289062 72.53515625 101.463867188 71.6064453125 101.463867188 71.6064453125 c 2
 115.213867188 68.0361328125 168.28515625 104.391601562 190.857421875 119.892578125 c 0
 210.78515625 133.5703125 226.677734375 144.286132812 240.427734375 151.606445312 c 2
 240.463867188 151.642578125 l 1
EndSplineSet
EndChar

StartChar: b
Encoding: 98 98 27
Width: 400
Flags: W
HStem: 322.143 20G<291.089 326.428>
LayerCount: 2
Fore
SplineSet
202.5 -18.5712890625 m 1
 107.071289062 -18.5712890625 69.7138671875 54.0361328125 68.0712890625 57.3203125 c 0
 60.53515625 72.427734375 66.677734375 90.75 81.78515625 98.28515625 c 0
 96.9287109375 105.822265625 115.25 99.677734375 122.75 84.572265625 c 0
 123.606445312 82.9287109375 148.677734375 36.96484375 215.25 43.142578125 c 0
 241.392578125 45.5712890625 276.25 87.8564453125 300 146 c 0
 327.427734375 213.142578125 327.712890625 267.856445312 317.427734375 280.03515625 c 0
 316.749023438 280.857421875 316.357421875 281.0703125 316.357421875 281.0703125 c 2
 294.03515625 285.96484375 219.356445312 203.999023438 187.53515625 168.963867188 c 0
 171.25 151.03515625 155.856445312 134.071289062 141.856445312 120.106445312 c 0
 117.927734375 96.142578125 97.892578125 101.678710938 88.0712890625 107.107421875 c 0
 49.0703125 128.677734375 56.5703125 197.642578125 135.25 541.142578125 c 0
 141.427734375 568.142578125 147.427734375 594.25 152.856445312 618.5 c 0
 156.53515625 634.963867188 172.892578125 645.286132812 189.356445312 641.606445312 c 0
 205.821289062 637.892578125 216.177734375 621.571289062 212.463867188 605.106445312 c 0
 206.999023438 580.78515625 200.999023438 554.607421875 194.78515625 527.5 c 0
 171.642578125 426.428710938 136.142578125 271.536132812 127.463867188 193.78515625 c 1
 132.28515625 199.071289062 137.249023438 204.53515625 142.321289062 210.071289062 c 0
 212.5 287.3203125 266.142578125 342.142578125 316.03515625 342.142578125 c 0
 316.427734375 342.142578125 316.821289062 342.142578125 317.213867188 342.142578125 c 0
 335.641601562 341.821289062 351.821289062 333.999023438 364.0703125 319.53515625 c 0
 400.3203125 276.713867188 382.677734375 186.857421875 356.5703125 122.928710938 c 0
 322.53515625 39.642578125 271.821289062 -12.927734375 220.927734375 -17.642578125 c 0
 214.571289062 -18.25 208.427734375 -18.5009765625 202.5 -18.5009765625 c 2
 202.5 -18.5712890625 l 1
126.963867188 150.571289062 m 1
 127.071289062 150.571289062 l 1
 126.963867188 150.571289062 l 1
EndSplineSet
EndChar

StartChar: c
Encoding: 99 99 28
Width: 330
Flags: W
HStem: 278 61.0723<220.831 305.162>
LayerCount: 2
Fore
SplineSet
159.75 6.75 m 1
 135.10546875 6.75 111.392578125 13.892578125 91.25 32.0361328125 c 0
 53.962890625 65.5712890625 44.8203125 113.678710938 65.4638671875 167.5 c 0
 98.677734375 254.072265625 202.963867188 339.072265625 276 339.072265625 c 0
 292.856445312 339.072265625 306.53515625 325.392578125 306.53515625 308.536132812 c 0
 306.53515625 291.678710938 292.856445312 278 276 278 c 0
 233.034179688 278 147.677734375 211.286132812 122.5 145.643554688 c 0
 105.534179688 101.428710938 125.534179688 83.4287109375 132.106445312 77.5 c 0
 166.749023438 46.3212890625 244.428710938 97.4287109375 268.892578125 117.78515625 c 0
 281.856445312 128.571289062 301.107421875 126.821289062 311.891601562 113.892578125 c 0
 322.677734375 100.963867188 320.963867188 81.71484375 308.034179688 70.8935546875 c 0
 273.53515625 42.0361328125 214.356445312 6.8212890625 159.713867188 6.8212890625 c 1
 159.75 6.75 l 1
EndSplineSet
EndChar

StartChar: d
Encoding: 100 100 29
Width: 560
Flags: W
LayerCount: 2
Fore
SplineSet
109.3203125 -73.8212890625 m 2
 96.4638671875 -73.8212890625 88.5703125 -69.7861328125 82.7490234375 -66.822265625 c 0
 65.7490234375 -58.142578125 46.9990234375 -37.5 54.2490234375 11.75 c 0
 69.712890625 116.713867188 249.176757812 343.786132812 347.749023438 329.78515625 c 0
 393.713867188 323.21484375 421 311.107421875 433.606445312 291.606445312 c 0
 433.713867188 291.428710938 433.821289062 291.25 433.928710938 291.071289062 c 1
 509.106445312 461.356445312 463.392578125 669.357421875 434.5703125 742.821289062 c 0
 428.392578125 758.53515625 436.142578125 776.25 451.856445312 782.428710938 c 0
 467.571289062 788.607421875 485.284179688 780.857421875 491.463867188 765.143554688 c 0
 534.176757812 656.286132812 600.284179688 330 396 130 c 0
 219.712890625 -42.5712890625 145.178710938 -73.857421875 109.3203125 -73.857421875 c 1
 109.3203125 -73.8212890625 l 2
336.356445312 269.5 m 2
 285.391601562 269.5 127.999023438 93.21484375 114.712890625 2.8564453125 c 0
 113.749023438 -3.6787109375 113.606445312 -8.21484375 113.749023438 -11.2138671875 c 1
 130.284179688 -7.822265625 191.891601562 15.71484375 353.28515625 173.713867188 c 0
 373.427734375 193.46484375 390.5703125 214.75 404.999023438 237.177734375 c 1
 403.891601562 237.357421875 402.749023438 237.606445312 401.641601562 237.928710938 c 0
 391.249023438 240.892578125 383.642578125 248.928710938 380.749023438 258.571289062 c 0
 375.927734375 261.071289062 364.176757812 265.75 339.141601562 269.321289062 c 0
 338.249023438 269.46484375 337.356445312 269.5 336.391601562 269.5 c 2
 336.356445312 269.5 l 2
380.606445312 275.642578125 m 1
 380.606445312 275.642578125 l 1
EndSplineSet
EndChar

StartChar: e
Encoding: 101 101 30
Width: 327
Flags: W
HStem: 2.28613 58.0352<216.159 322.58> 42.3926 60.9287<-105.34 -25.4554>
LayerCount: 2
Fore
SplineSet
214 -11.21484375 m 1x80
 181.463867188 -11.21484375 145.071289062 -5.1787109375 114.28515625 15 c 0
 83.9287109375 34.892578125 63.7490234375 64.6787109375 54 103.78515625 c 1
 7.0712890625 70.03515625 -39.857421875 44.96484375 -73.8564453125 42.392578125 c 0
 -90.71484375 41.0712890625 -105.357421875 53.71484375 -106.643554688 70.5361328125 c 0
 -107.928710938 87.357421875 -95.3212890625 102.036132812 -78.5 103.321289062 c 0x40
 -50.71484375 105.428710938 -1.2509765625 136.786132812 47.1064453125 175.786132812 c 1
 50.892578125 302.963867188 136.249023438 364.928710938 186.571289062 369.96484375 c 0
 221.5 373.463867188 239.928710938 352.213867188 242.25 330.963867188 c 0
 243.963867188 315.25 241 288.108398438 196 234 c 0
 173.713867188 207.178710938 142.78515625 176.25 108.856445312 147.143554688 c 0
 108.963867188 145.856445312 109.071289062 144.571289062 109.177734375 143.286132812 c 0
 112.571289062 106.21484375 125.142578125 81 147.571289062 66.21484375 c 0
 189.392578125 38.6787109375 259.856445312 52.607421875 283.463867188 60.3212890625 c 0
 299.5 65.5361328125 316.75 56.8212890625 322 40.8212890625 c 0
 327.25 24.8212890625 318.606445312 7.572265625 302.606445312 2.2861328125 c 0
 299.893554688 1.392578125 260.928710938 -11.21484375 213.963867188 -11.21484375 c 1
 214 -11.21484375 l 1x80
170.427734375 300.21484375 m 1
 164.5 296.571289062 157.96484375 291.571289062 151.286132812 284.928710938 c 0
 143.0703125 276.750976562 132.606445312 263.892578125 124.03515625 245.357421875 c 1
 143.892578125 265.643554688 160.28515625 284.821289062 170.427734375 300.21484375 c 1
EndSplineSet
EndChar

StartChar: f
Encoding: 102 102 31
Width: 267
Flags: W
HStem: 261.607 60.6084<150.5 310.666>
VStem: 250.894 61.0703<539.153 607.54>
LayerCount: 2
Fore
SplineSet
101.53515625 3.3935546875 m 1
 91.322265625 3.3935546875 81.572265625 8.5361328125 75.8212890625 17.4287109375 c 0
 68.6787109375 28.5361328125 33.6787109375 96.2509765625 46.0361328125 339.1796875 c 0
 56 535.072265625 122.143554688 635.107421875 180.713867188 663.393554688 c 0
 211.25 678.143554688 243.428710938 676.108398438 269 657.857421875 c 0
 297.96484375 637.178710938 313.213867188 608.358398438 311.963867188 576.750976562 c 0
 310.28515625 534.358398438 279.463867188 491.178710938 229.536132812 461.21484375 c 0
 215.072265625 452.536132812 196.28515625 457.215820312 187.607421875 471.6796875 c 0
 178.927734375 486.143554688 183.607421875 504.893554688 198.071289062 513.608398438 c 0
 228.822265625 532.071289062 250.072265625 558.428710938 250.893554688 579.1796875 c 0
 251.071289062 583.143554688 251.53515625 595.25 233.463867188 608.143554688 c 0
 228.857421875 611.46484375 221.071289062 615.107421875 207.25 608.393554688 c 0
 174.357421875 592.500976562 116.21484375 517.286132812 107 336.108398438 c 0
 106.392578125 324.21484375 105.928710938 312.787109375 105.53515625 301.822265625 c 1
 138.822265625 335.25 231.928710938 329.037109375 285.322265625 322.215820312 c 0
 302.036132812 320.072265625 313.892578125 304.786132812 311.75 288.036132812 c 0
 309.606445312 271.286132812 294.177734375 259.500976562 277.572265625 261.607421875 c 0
 223.822265625 268.465820312 164.321289062 267.286132812 149.786132812 259.286132812 c 0
 139.142578125 236.071289062 132 125.715820312 132 34 c 0
 132 20.4296875 123.071289062 8.5009765625 110.072265625 4.6787109375 c 0
 107.213867188 3.822265625 104.321289062 3.4287109375 101.46484375 3.4287109375 c 1
 101.53515625 3.3935546875 l 1
EndSplineSet
EndChar

StartChar: g
Encoding: 103 103 32
Width: 418
Flags: W
HStem: 12.6436 61.1074<107.536 264.567>
LayerCount: 2
Fore
SplineSet
229.286132812 -359.678710938 m 2
 221.607421875 -359.678710938 213.96484375 -356.8203125 208.036132812 -351.071289062 c 0
 195.928710938 -339.3203125 195.607421875 -319.999023438 207.356445312 -307.857421875 c 0
 399.786132812 -109.25 375.678710938 -43.8212890625 354.428710938 13.9287109375 c 0
 341.75 48.357421875 239.142578125 31.21484375 184 22 c 0
 154 17 128.071289062 12.6435546875 108.536132812 12.6435546875 c 0
 63.7861328125 12.6435546875 50.8583984375 39.3935546875 47.3564453125 50.9296875 c 0
 34.1787109375 94.46484375 78.4638671875 151.393554688 129.03515625 185.108398438 c 0
 170.536132812 212.786132812 205.46484375 211.643554688 227.428710938 205.787109375 c 0
 260.21484375 197.072265625 288.250976562 172.25 306.428710938 135.892578125 c 0
 313.75 121.250976562 308.21484375 103.572265625 294.107421875 95.607421875 c 1
 347.536132812 95.46484375 394.428710938 82.037109375 411.786132812 35.0361328125 c 0
 449.821289062 -68.2138671875 435.536132812 -160.213867188 251.286132812 -350.392578125 c 0
 245.28515625 -356.5703125 237.321289062 -359.678710938 229.357421875 -359.678710938 c 2
 229.286132812 -359.678710938 l 2
107.536132812 73.7509765625 m 2
 121.25 73.5361328125 147.108398438 77.7861328125 173.928710938 82.25 c 0
 202.607421875 87.037109375 234.713867188 92.4287109375 266.036132812 94.607421875 c 1
 260.071289062 97.4287109375 254.963867188 102.21484375 251.75 108.572265625 c 0
 241.678710938 128.750976562 227.071289062 142.643554688 211.71484375 146.75 c 0
 197.463867188 150.572265625 181.000976562 146.358398438 162.892578125 134.286132812 c 0
 131.71484375 113.5 112.75 87.3935546875 107.536132812 73.7861328125 c 2
 107.536132812 73.7509765625 l 2
EndSplineSet
EndChar

StartChar: h
Encoding: 104 104 33
Width: 429
Flags: W
HStem: -20.4287 61.0723<378.068 436.019>
VStem: 268.572 60.2852<628.154 738.187>
LayerCount: 2
Fore
SplineSet
406.858398438 -20.4990234375 m 1
 370.9296875 -20.4990234375 344.46484375 -9.03515625 328.21484375 13.572265625 c 0
 294.358398438 60.6435546875 319.428710938 135.428710938 343.6796875 207.786132812 c 0
 349.71484375 225.786132812 357.036132812 247.607421875 361.607421875 265.393554688 c 1
 331.428710938 236.643554688 286.28515625 182.178710938 256.1796875 145.857421875 c 0
 166.072265625 37.1787109375 139.857421875 9.9296875 109.500976562 12.9287109375 c 0
 94.9296875 14.3935546875 82.642578125 22.0361328125 74.9296875 34.4287109375 c 0
 49.3935546875 75.6083984375 77.642578125 160.678710938 158.822265625 375.571289062 c 0
 203.46484375 493.787109375 254.036132812 627.75 268.572265625 714 c 0
 271.392578125 730.608398438 287.143554688 741.821289062 303.78515625 739.072265625 c 0
 320.428710938 736.287109375 331.643554688 720.500976562 328.857421875 703.857421875 c 0
 313.357421875 611.750976562 263.857421875 480.713867188 216 354 c 0
 182.036132812 264 137.71484375 146.678710938 128.357421875 91.392578125 c 1
 150.822265625 114.500976562 183.357421875 153.71484375 209.143554688 184.857421875 c 0
 310.96484375 307.71484375 353.250976562 353.286132812 393.143554688 343.857421875 c 0
 400.786132812 342.071289062 419.143554688 335.107421875 425.178710938 309.250976562 c 0
 432.143554688 279.463867188 418.6796875 239.286132812 401.607421875 188.393554688 c 0
 385.9296875 141.607421875 362.25 70.9287109375 377.821289062 49.2861328125 c 0
 382.96484375 42.1435546875 396.46484375 40.6435546875 406.858398438 40.6435546875 c 0
 423.71484375 40.6435546875 437.392578125 26.9638671875 437.392578125 10.107421875 c 0
 437.392578125 -6.7490234375 423.71484375 -20.4287109375 406.858398438 -20.4287109375 c 1
 406.858398438 -20.4990234375 l 1
127.642578125 65.142578125 m 1
 127.786132812 65.142578125 l 1
 127.642578125 65.142578125 l 1
EndSplineSet
EndChar

StartChar: i
Encoding: 105 105 34
Width: 165
Flags: W
HStem: 361.107 21G<176.981 184.893>
VStem: 70.1064 210.107
LayerCount: 2
Fore
SplineSet
163.427734375 273.75 m 1
 173.177734375 198.178710938 140.927734375 66.71484375 125.428710938 33.75 c 0
 120.213867188 22.6796875 109.213867188 16.21484375 97.7490234375 16.21484375 c 0
 93.392578125 16.21484375 88.9638671875 17.1435546875 84.75 19.1435546875 c 0
 69.5 26.322265625 62.9287109375 44.5361328125 70.1064453125 59.7861328125 c 0
 83.142578125 87.5 110.286132812 208.036132812 102.786132812 265.928710938 c 0
 100.642578125 282.642578125 112.427734375 297.96484375 129.178710938 300.142578125 c 0
 145.892578125 302.357421875 161.213867188 290.46484375 163.392578125 273.75 c 1
 163.427734375 273.75 l 1
260.5 459.107421875 m 1
 260.428710938 459.107421875 l 1
 276.499023438 454 285.356445312 436.786132812 280.213867188 420.713867188 c 0
 275.106445312 404.643554688 257.892578125 395.786132812 241.821289062 400.928710938 c 0
 230.141601562 404.678710938 223.642578125 406.178710938 220.071289062 406.786132812 c 0
 217.821289062 402.75 214.78515625 396.071289062 212 390 c 2
 206.821289062 378.71484375 l 2
 201.642578125 367.607421875 190.642578125 361.107421875 179.142578125 361.107421875 c 0
 174.8203125 361.107421875 170.392578125 362.036132812 166.213867188 364 c 0
 150.927734375 371.143554688 144.357421875 389.321289062 151.499023438 404.606445312 c 2
 156.463867188 415.357421875 l 2
 179.106445312 464.96484375 198.21484375 479.036132812 260.5 459.107421875 c 1
EndSplineSet
EndChar

StartChar: j
Encoding: 106 106 35
Width: 285
Flags: W
HStem: 514.107 108.82<190.162 246.937>
VStem: -0.928711 59.8223<-122.829 -71.8558> 189.25 60.1074<515.336 623.874>
LayerCount: 2
Fore
SplineSet
108.571289062 -175.607421875 m 2
 104.142578125 -183.392578125 96.4990234375 -188.857421875 87.6787109375 -190.5 c 0
 83.5 -191.286132812 78.8212890625 -191.821289062 73.8212890625 -191.821289062 c 0
 48 -191.821289062 13.642578125 -177.392578125 -0.9287109375 -107.428710938 c 0
 -4.357421875 -90.9296875 6.25 -74.75 22.7490234375 -71.2861328125 c 0
 39.25 -67.8212890625 55.4287109375 -78.46484375 58.8935546875 -94.96484375 c 0
 61.857421875 -109.25 65.2138671875 -117.963867188 67.9287109375 -123.21484375 c 1
 239.213867188 185.571289062 225.249023438 332.53515625 214.357421875 375.893554688 c 1
 204.78515625 371.75 192.463867188 365.5 181.75 359.21484375 c 0
 167.213867188 350.678710938 148.5 355.53515625 139.928710938 370.071289062 c 0
 131.393554688 384.606445312 136.213867188 403.321289062 150.78515625 411.892578125 c 0
 218.142578125 451.5 236.571289062 442.286132812 245.463867188 437.857421875 c 0
 252.749023438 434.21484375 263.463867188 426.106445312 272 398 c 0
 285.321289062 354.177734375 312.892578125 183.321289062 108.607421875 -175.571289062 c 1
 108.571289062 -175.607421875 l 2
219.25 514.107421875 m 0
 204.78515625 514.107421875 191.927734375 524.428710938 189.25 539.177734375 c 0
 186.892578125 552.106445312 182.357421875 584.463867188 190.927734375 605.893554688 c 0
 197.177734375 621.5703125 214.928710938 629.177734375 230.642578125 622.927734375 c 0
 246.213867188 616.677734375 253.821289062 599.0703125 247.749023438 583.463867188 c 0
 246.356445312 578.571289062 247.142578125 562.428710938 249.357421875 550.071289062 c 0
 252.321289062 533.463867188 241.321289062 517.607421875 224.713867188 514.606445312 c 0
 222.892578125 514.28515625 221.03515625 514.107421875 219.25 514.107421875 c 0
EndSplineSet
EndChar

StartChar: k
Encoding: 107 107 36
Width: 534
Flags: W
HStem: 26.6426 61.0352<262.773 450.616> 89.3203 77.5<140.427 195.878> 262.607 59.1777<347.35 424.236>
LayerCount: 2
Fore
SplineSet
95.3203125 -29.607421875 m 1
 82.712890625 -29.607421875 73.427734375 -25.072265625 66.8916015625 -19.892578125 c 0
 30.3564453125 9.212890625 44.5712890625 148.677734375 81.7490234375 271.856445312 c 0
 96.6416015625 321.25 137.357421875 505.3203125 134.53515625 524.28515625 c 0
 132.071289062 540.963867188 143.607421875 556.5 160.28515625 558.962890625 c 0
 176.999023438 561.462890625 192.5 549.892578125 194.962890625 533.213867188 c 0
 199.53515625 502.321289062 164.53515625 334.856445312 140.212890625 254.212890625 c 0
 126.677734375 209.356445312 110.499023438 70.7138671875 108.106445312 37.427734375 c 1
 122.25 43.6064453125 139.03515625 38.2490234375 146.856445312 24.5712890625 c 0
 155.212890625 9.927734375 150.142578125 -8.75 135.463867188 -17.107421875 c 0
 119.391601562 -26.2861328125 106.107421875 -29.642578125 95.28515625 -29.642578125 c 1
 95.3203125 -29.607421875 l 1
337.071289062 26.607421875 m 1
 337.142578125 26.677734375 l 1
 335.534179688 26.642578125 333.962890625 26.642578125 332.392578125 26.642578125 c 0
 254.106445312 26.642578125 216.963867188 63.857421875 196 90 c 0
 193.392578125 89.53515625 190.749023438 89.3203125 188.071289062 89.3203125 c 0
 176.891601562 89.3203125 168.427734375 90.28515625 161.462890625 92.3212890625 c 0
 141.35546875 98.2138671875 134.213867188 113.499023438 134.213867188 125.821289062 c 0
 134.213867188 152.75 163.141601562 166.8203125 191.713867188 166.8203125 c 0
 195 166.8203125 198.034179688 166.462890625 200.892578125 165.821289062 c 0
 211.499023438 177.712890625 224.0703125 193.677734375 233.712890625 205.928710938 c 0
 282.5703125 268.03515625 337.999023438 338.321289062 402.392578125 321.78515625 c 0
 418.75 317.5703125 428.5703125 300.891601562 424.356445312 284.571289062 c 0
 420.142578125 268.213867188 403.463867188 258.428710938 387.142578125 262.607421875 c 0
 361.35546875 269.28515625 309.571289062 203.463867188 281.749023438 168.106445312 c 0
 268.677734375 151.5 257.142578125 136.856445312 246.35546875 124.856445312 c 1
 262.462890625 105.713867188 285.606445312 86.712890625 335.963867188 87.677734375 c 0
 430.571289062 89.4990234375 466.107421875 117.53515625 466.462890625 117.8203125 c 0
 479.03515625 129.03515625 498.071289062 127.75 509.321289062 115.177734375 c 0
 520.571289062 102.607421875 519.213867188 83.0703125 506.641601562 71.8203125 c 0
 501.713867188 67.427734375 455.249023438 28.8203125 337.071289062 26.607421875 c 1
EndSplineSet
EndChar

StartChar: l
Encoding: 108 108 37
Width: 225
Flags: W
VStem: 55.3926 58.3936<5.81214 204.423> 358.607 60.4297<621.432 696.629>
LayerCount: 2
Fore
SplineSet
84.5712890625 4.927734375 m 2
 71.537109375 4.927734375 59.46484375 13.3212890625 55.392578125 26.4287109375 c 0
 26.0009765625 121.03515625 107.250976562 431.071289062 341.4296875 621.428710938 c 0
 355.072265625 632.5 360.53515625 637.928710938 362.71484375 640.571289062 c 0
 362.428710938 642.392578125 361.892578125 645 361.46484375 647.213867188 c 0
 360.572265625 651.678710938 359.536132812 656.786132812 358.607421875 662.821289062 c 0
 356.071289062 679.499023438 367.572265625 695.071289062 384.25 697.607421875 c 0
 400.963867188 700.178710938 416.5 688.642578125 419.037109375 671.963867188 c 0
 419.786132812 667.106445312 420.607421875 663.000976562 421.357421875 659.393554688 c 0
 429.21484375 620.786132812 419.037109375 605.713867188 380 574 c 0
 149.786132812 386.856445312 96.607421875 99.8212890625 113.786132812 44.5361328125 c 0
 118.786132812 28.4287109375 109.786132812 11.3212890625 93.6787109375 6.28515625 c 0
 90.642578125 5.357421875 87.607421875 4.892578125 84.607421875 4.892578125 c 2
 84.5712890625 4.927734375 l 2
362.96484375 638.642578125 m 1
 363.072265625 638.642578125 l 1
 362.96484375 638.642578125 l 1
EndSplineSet
EndChar

StartChar: m
Encoding: 109 109 38
Width: 468
Flags: W
HStem: -23.0361 60.3213<483.853 529.354>
VStem: 86.1426 61.6426<199.75 270.451> 400.25 61.1074<39.291 124.859>
LayerCount: 2
Fore
SplineSet
483.5 -24.857421875 m 2
 463 -24.857421875 445.892578125 -19.3212890625 432.428710938 -8.2861328125 c 0
 403 15.8564453125 401.5 57.142578125 400.25 90.3212890625 c 0
 399.857421875 100.856445312 399.25 117.28515625 397.142578125 125.641601562 c 1
 378.857421875 119.213867188 341 82.462890625 324 66 c 0
 300.03515625 42.7490234375 287.927734375 31.3203125 275.21484375 26.3203125 c 0
 262.927734375 21.4638671875 249.928710938 23.5 240.427734375 31.7841796875 c 0
 223.142578125 46.7841796875 228.106445312 67.53515625 234.96484375 96.28515625 c 0
 240.606445312 119.892578125 253.78515625 175.142578125 235.856445312 179.857421875 c 0
 213.78515625 185.641601562 165.072265625 136.142578125 123.213867188 76.4990234375 c 0
 114.821289062 56 103.071289062 36.7138671875 86.142578125 19.5712890625 c 0
 75.357421875 8.642578125 58.1064453125 7.427734375 45.892578125 16.7138671875 c 0
 33.6787109375 26 30.25 42.9287109375 37.892578125 56.25 c 0
 44.642578125 67.9990234375 55.5 86.107421875 69.28515625 106.427734375 c 0
 78.822265625 132.999023438 82.3212890625 164.284179688 86.142578125 198.463867188 c 0
 87.9638671875 214.677734375 89.8212890625 231.427734375 92.46484375 248.463867188 c 0
 95.03515625 265.142578125 110.606445312 276.606445312 127.321289062 273.999023438 c 0
 144 271.427734375 155.427734375 255.821289062 152.857421875 239.141601562 c 0
 150.856445312 226.0703125 149.25 212.78515625 147.78515625 199.75 c 1
 180.678710938 229.03515625 216.821289062 248.034179688 251.427734375 238.927734375 c 0
 304.536132812 224.962890625 309.499023438 175.213867188 304.0703125 131.427734375 c 1
 345.642578125 170.177734375 392.8203125 205.606445312 432.142578125 178.321289062 c 0
 458.892578125 159.75 460.142578125 125.606445312 461.357421875 92.5703125 c 0
 462.036132812 73.892578125 463.071289062 45.6064453125 471.21484375 38.9638671875 c 0
 474.75 36.0703125 483.71484375 35.4287109375 495.177734375 37.28515625 c 0
 511.821289062 40.03515625 527.53515625 28.677734375 530.21484375 11.9990234375 c 0
 532.927734375 -4.6435546875 521.607421875 -20.357421875 504.928710938 -23.0361328125 c 0
 497.428710938 -24.2509765625 490.28515625 -24.857421875 483.536132812 -24.857421875 c 2
 483.5 -24.857421875 l 2
395.642578125 129.677734375 m 1
 395.642578125 129.677734375 l 1
EndSplineSet
EndChar

StartChar: n
Encoding: 110 110 39
Width: 437
Flags: W
HStem: -31.5713 326.178
VStem: 85.1777 60.9648<183.543 293.311>
LayerCount: 2
Fore
SplineSet
413.071289062 -31.5712890625 m 2
 410.463867188 -31.5712890625 407.78515625 -31.25 405.142578125 -30.5361328125 c 0
 377.963867188 -23.25 359.177734375 -9.9638671875 349.28515625 8.96484375 c 0
 332.8203125 40.46484375 345.641601562 76.1064453125 358.071289062 110.5703125 c 0
 378.178710938 166.321289062 384 195.427734375 350.641601562 221.321289062 c 0
 339.927734375 229.642578125 328.141601562 232.356445312 313.607421875 229.892578125 c 0
 239.03515625 217.178710938 138.356445312 83.96484375 105.28515625 32.892578125 c 0
 105.142578125 32.642578125 104.96484375 32.392578125 104.8203125 32.142578125 c 0
 95.6064453125 18.03515625 76.7490234375 14.03515625 62.607421875 23.2138671875 c 0
 48.5 32.3564453125 44.4287109375 51.25 53.5703125 65.392578125 c 0
 53.71484375 65.607421875 53.857421875 65.8212890625 54 66.0712890625 c 0
 75.4990234375 99.8564453125 89.3212890625 203.356445312 85.177734375 261.963867188 c 0
 83.962890625 278.786132812 96.642578125 293.392578125 113.5 294.606445312 c 0
 130.356445312 295.856445312 144.927734375 283.142578125 146.142578125 266.286132812 c 0
 147.607421875 245.5703125 147.071289062 214.963867188 144 182 c 1
 189.892578125 231.8203125 247.46484375 280.53515625 303.356445312 290.071289062 c 0
 334.642578125 295.427734375 364 288.321289062 388.178710938 269.53515625 c 0
 460.212890625 213.571289062 433.356445312 139.107421875 415.606445312 89.7861328125 c 0
 409.177734375 71.927734375 399.463867188 44.9638671875 403.5 37.2138671875 c 0
 404.642578125 35 409.927734375 31.392578125 421.03515625 28.4287109375 c 0
 437.3203125 24.072265625 446.999023438 7.3212890625 442.642578125 -9.0009765625 c 0
 439 -22.6435546875 426.642578125 -31.6435546875 413.141601562 -31.6435546875 c 2
 413.071289062 -31.5712890625 l 2
EndSplineSet
EndChar

StartChar: o
Encoding: 111 111 40
Width: 336
Flags: W
LayerCount: 2
Fore
SplineSet
137.786132812 1.71484375 m 1
 115.321289062 1.71484375 93.142578125 7 72.6416015625 19.1787109375 c 0
 45.2138671875 35.46484375 31.177734375 61.107421875 33.0712890625 91.3583984375 c 0
 38.1064453125 172.286132812 159.178710938 266.428710938 200.106445312 284.286132812 c 0
 202 285.108398438 203.928710938 285.71484375 205.8203125 286.143554688 c 0
 208.357421875 288 211.249023438 289.5 214.392578125 290.536132812 c 0
 242.463867188 299.6796875 302.999023438 302.142578125 330.78515625 245.892578125 c 0
 358.213867188 190.321289062 336.713867188 118.107421875 276 62 c 0
 238.999023438 27.7861328125 187.678710938 1.71484375 137.749023438 1.71484375 c 1
 137.786132812 1.71484375 l 1
230.463867188 231.678710938 m 0
 228.677734375 230.357421875 226.713867188 229.21484375 224.5703125 228.28515625 c 0
 189.5 212.96484375 96.8564453125 132.678710938 94.0361328125 87.5361328125 c 0
 93.7138671875 82.25 94.2138671875 77.4287109375 103.856445312 71.6787109375 c 0
 142.606445312 48.6435546875 198.749023438 73.7861328125 234.53515625 106.857421875 c 0
 267.606445312 137.428710938 293.25 183.893554688 276 218.858398438 c 0
 265.178710938 240.78515625 238.357421875 233.963867188 233.071289062 232.357421875 c 0
 232.212890625 232.107421875 231.321289062 231.857421875 230.463867188 231.678710938 c 0
EndSplineSet
EndChar

StartChar: p
Encoding: 112 112 41
Width: 374
Flags: W
HStem: -312.178 21G<63.5527 64.25> -12.7861 59.3584<49.2351 96.4871>
VStem: 33.8213 60.7148<-310.725 -161.781>
LayerCount: 2
Fore
SplineSet
64.177734375 -312.177734375 m 2
 62.927734375 -312.177734375 61.677734375 -312.107421875 60.392578125 -311.927734375 c 0
 43.6416015625 -309.856445312 31.75 -294.607421875 33.8212890625 -277.856445312 c 0
 45.28515625 -184.78515625 67.75 -92.0703125 96.677734375 -10.0712890625 c 1
 93.142578125 -11 89.6064453125 -11.892578125 86.0361328125 -12.7861328125 c 0
 69.6435546875 -16.8212890625 53.1064453125 -6.8212890625 49.03515625 9.5712890625 c 0
 44.9990234375 25.9638671875 54.9990234375 42.5009765625 71.392578125 46.572265625 c 0
 90.427734375 51.2509765625 108.178710938 56.2861328125 124.749023438 61.537109375 c 0
 167.321289062 159.357421875 218.678710938 233.250976562 268.536132812 259.857421875 c 0
 301.178710938 277.286132812 326.5703125 271.5 342.143554688 263.643554688 c 0
 372.892578125 248.072265625 388.428710938 220.678710938 384.786132812 188.536132812 c 0
 377.391601562 123.750976562 294.28515625 57.3212890625 170.03515625 12.572265625 c 1
 137.213867188 -68.392578125 108.713867188 -170.142578125 94.5361328125 -285.249023438 c 0
 92.642578125 -300.713867188 79.4638671875 -312.0703125 64.25 -312.0703125 c 2
 64.177734375 -312.177734375 l 2
310.177734375 210.000976562 m 1
 306.713867188 210.000976562 302.391601562 208.607421875 297.249023438 205.858398438 c 0
 272.249023438 192.536132812 239.891601562 153.321289062 208 94 c 1
 289.142578125 133 321.75 175.1796875 324.03515625 195.357421875 c 0
 324.428710938 198.893554688 324.999023438 203.750976562 314.5 209.037109375 c 0
 313.25 209.678710938 311.821289062 209.96484375 310.177734375 209.96484375 c 1
 310.177734375 210.000976562 l 1
EndSplineSet
EndChar

StartChar: q
Encoding: 113 113 42
Width: 401
Flags: W
LayerCount: 2
Fore
SplineSet
249.678710938 -263.571289062 m 2
 230.178710938 -263.571289062 210.857421875 -259.786132812 192.321289062 -250.928710938 c 0
 174.963867188 -242.607421875 162.500976562 -228.142578125 156.286132812 -209.03515625 c 0
 135.71484375 -145.963867188 186.143554688 -34.8935546875 255.000976562 95.5361328125 c 1
 187.463867188 23.21484375 140.071289062 -18.0712890625 101.250976562 -12.3212890625 c 0
 74.0712890625 -8.3564453125 55.53515625 11.28515625 50.4287109375 41.5712890625 c 0
 34.8935546875 133.25 148.46484375 355.25 199.71484375 381.96484375 c 0
 239.572265625 402.75 281.5 405.892578125 314.642578125 390.536132812 c 0
 337.606445312 379.927734375 367.713867188 355.106445312 380.892578125 297.142578125 c 0
 383.607421875 285.213867188 378.928710938 273.322265625 369.857421875 266.25 c 1
 379.107421875 261.321289062 387.892578125 251 387.892578125 234.75 c 0
 387.892578125 215.463867188 374.25 188.5 332 110 c 0
 285.106445312 22.8564453125 197.821289062 -139.321289062 214.392578125 -190.142578125 c 0
 215.78515625 -194.463867188 217.428710938 -195.25 218.750976562 -195.893554688 c 0
 284.178710938 -227.213867188 395.428710938 -136.4296875 429.21484375 -102.143554688 c 0
 441.071289062 -90.107421875 460.392578125 -90 472.428710938 -101.821289062 c 0
 484.4296875 -113.678710938 484.572265625 -133 472.75 -145.036132812 c 0
 458.928710938 -159.072265625 352.321289062 -263.643554688 249.75 -263.643554688 c 1
 249.678710938 -263.571289062 l 2
108.03515625 48.25 m 1
 108.03515625 48.25 l 1
269.107421875 339.071289062 m 1
 256.536132812 339.071289062 242.178710938 335.25 227.928710938 327.786132812 c 0
 205.607421875 313.53515625 133.713867188 185.75 114.25 95.3935546875 c 0
 108.1796875 67.177734375 109.928710938 54.0361328125 111.250976562 49.0361328125 c 1
 139.928710938 58.8212890625 215.892578125 142.821289062 253.142578125 184.036132812 c 0
 293.963867188 229.178710938 316.71484375 254.321289062 334.4296875 264.75 c 1
 328 268.928710938 323.107421875 275.536132812 321.250976562 283.607421875 c 0
 315.106445312 310.678710938 304.21484375 328 288.928710938 335.071289062 c 0
 283.1796875 337.75 276.428710938 339.036132812 269.071289062 339.036132812 c 1
 269.107421875 339.071289062 l 1
EndSplineSet
EndChar

StartChar: r
Encoding: 114 114 43
Width: 292
Flags: W
LayerCount: 2
Fore
SplineSet
77.3935546875 8.787109375 m 0
 73.9287109375 8.787109375 70.46484375 9.3583984375 67.03515625 10.6083984375 c 0
 52.4990234375 15.8583984375 44.177734375 31.1083984375 47.6064453125 46.1435546875 c 0
 48.7861328125 51.357421875 61.78515625 106.357421875 93.6064453125 174.608398438 c 0
 97.892578125 202.108398438 95.7138671875 221.965820312 92.2861328125 237.75 c 0
 88.7138671875 254.250976562 99.142578125 270.500976562 115.642578125 274.107421875 c 0
 126.463867188 276.46484375 137.25 272.75 144.392578125 265.21484375 c 1
 190.821289062 334.4296875 256.857421875 401.787109375 348.536132812 436.143554688 c 0
 364.357421875 442.073242188 381.927734375 434.072265625 387.857421875 418.250976562 c 0
 393.786132812 402.46484375 385.78515625 384.858398438 369.963867188 378.9296875 c 0
 260.106445312 337.71484375 191.463867188 236.46484375 152 154 c 0
 144.642578125 115.823242188 129.03515625 73.822265625 104.678710938 25.572265625 c 0
 99.357421875 15.037109375 88.6435546875 8.787109375 77.3935546875 8.787109375 c 0
EndSplineSet
EndChar

StartChar: s
Encoding: 115 115 44
Width: 267
Flags: W
LayerCount: 2
Fore
SplineSet
86.8916015625 -1.892578125 m 2
 72.1064453125 -1.892578125 59.1435546875 8.8583984375 56.7490234375 23.8935546875 c 0
 54.1064453125 40.572265625 65.4990234375 56.21484375 82.142578125 58.822265625 c 0
 125.606445312 65.6796875 160.856445312 113.357421875 182.786132812 152.107421875 c 0
 185.106445312 156.21484375 185.856445312 158.71484375 186.0703125 159.857421875 c 0
 182.642578125 163.928710938 169.713867188 170.428710938 162.571289062 174.000976562 c 0
 152.678710938 178.965820312 142.427734375 184.108398438 133.5703125 191.036132812 c 0
 122.28515625 199.893554688 116.213867188 212.821289062 116.963867188 226.500976562 c 0
 118.78515625 260.428710938 157.571289062 286.107421875 245.178710938 340.9296875 c 0
 260.213867188 350.321289062 275.963867188 360.178710938 291.963867188 370.46484375 c 0
 306.142578125 379.572265625 325.071289062 375.46484375 334.178710938 361.286132812 c 0
 343.28515625 347.107421875 339.178710938 328.1796875 325 319.071289062 c 0
 308.78515625 308.678710938 292.821289062 298.678710938 277.606445312 289.143554688 c 0
 245.571289062 269.108398438 207.53515625 245.286132812 188.28515625 229.46484375 c 1
 188.856445312 229.178710938 189.428710938 228.893554688 190 228.607421875 c 0
 210.641601562 218.25 236.356445312 205.393554688 244.8203125 177.536132812 c 0
 250.071289062 160.286132812 247.106445312 141.608398438 236 122 c 0
 195.071289062 49.607421875 145.178710938 6.8935546875 91.7138671875 -1.5703125 c 0
 90.1064453125 -1.8203125 88.5 -1.9638671875 86.9287109375 -1.9638671875 c 2
 86.8916015625 -1.892578125 l 2
EndSplineSet
EndChar

StartChar: t
Encoding: 116 116 45
Width: 318
Flags: W
HStem: 1.60742 21G<45.5723 50.1436>
VStem: 256.107 55.5<536.184 630.091>
LayerCount: 2
Fore
SplineSet
46.1796875 1.607421875 m 0
 44.96484375 1.607421875 43.857421875 1.6787109375 42.96484375 1.7861328125 c 0
 29.96484375 3.2138671875 19.4287109375 13.857421875 17.75 26.7861328125 c 0
 15.3935546875 45.177734375 48.1083984375 174.606445312 113.6796875 245.856445312 c 1
 170.322265625 367.677734375 237.322265625 518.286132812 256.107421875 608.321289062 c 0
 259.322265625 623.642578125 274.393554688 633.463867188 289.643554688 630.25 c 0
 304.96484375 627.036132812 314.787109375 612.036132812 311.607421875 596.713867188 c 0
 295.357421875 518.927734375 248.6796875 405.893554688 200 298 c 1
 297.607421875 337.963867188 330.822265625 364.536132812 340.96484375 374.643554688 c 0
 352.036132812 385.713867188 369.96484375 385.713867188 381.037109375 374.643554688 c 0
 392.108398438 363.571289062 392.108398438 345.643554688 381.037109375 334.571289062 c 0
 343.393554688 296.928710938 256.037109375 258.463867188 189.393554688 232.821289062 c 0
 179.643554688 229.071289062 170.25 222.53515625 161.392578125 214.03515625 c 0
 151.893554688 193.678710938 142.642578125 173.96484375 133.822265625 155.21484375 c 0
 106.786132812 97.677734375 83.4296875 47.9638671875 74.89453125 24.5712890625 c 0
 67.6796875 4.7861328125 54.107421875 1.607421875 46.1796875 1.607421875 c 0
EndSplineSet
EndChar

StartChar: u
Encoding: 117 117 46
Width: 410
Flags: W
HStem: -1.96484 61.3223<115.26 189.643>
VStem: 366.071 58.5352<271.865 344.322>
LayerCount: 2
Fore
SplineSet
125.107421875 -2.107421875 m 0
 123.178710938 -2.107421875 121.25 -2.0712890625 119.356445312 -1.96484375 c 0
 87.1064453125 -0.46484375 71.107421875 14.9638671875 63.392578125 27.6064453125 c 0
 37.75 69.53515625 68.1787109375 136.463867188 100.428710938 207.28515625 c 0
 106.427734375 220.463867188 112.357421875 233.5 117.677734375 245.963867188 c 0
 124.321289062 261.463867188 142.28515625 268.678710938 157.78515625 262 c 0
 173.286132812 255.356445312 180.463867188 237.392578125 173.8203125 221.892578125 c 0
 168.321289062 209.036132812 162.213867188 195.571289062 156 182 c 0
 140.536132812 148 108.642578125 77.8564453125 115.213867188 60.1787109375 c 0
 116.177734375 59.8212890625 118.286132812 59.25 122.213867188 59.0712890625 c 0
 180.821289062 56.4990234375 311.786132812 142.392578125 366.071289062 323.607421875 c 0
 370.892578125 339.78515625 387.892578125 348.928710938 404.106445312 344.106445312 c 0
 420.25 339.25 429.428710938 322.25 424.606445312 306.071289062 c 0
 368.71484375 119.5 226.25 -2.0712890625 125.107421875 -2.107421875 c 0
115.571289062 59.357421875 m 1
 115.678710938 59.357421875 l 1
 115.571289062 59.357421875 l 1
EndSplineSet
EndChar

StartChar: v
Encoding: 118 118 47
Width: 343
Flags: W
HStem: 0 60.9277<111.869 184.501>
VStem: 46.8926 61.1074<62.656 264.559> 277.715 60.2129<168.083 264.911>
LayerCount: 2
Fore
SplineSet
116 0 m 0
 111.857421875 0 108.107421875 0.2138671875 104.786132812 0.5712890625 c 0
 46 7.03515625 46.46484375 97.9287109375 46.892578125 185.78515625 c 0
 47 204.143554688 47.0712890625 221.500976562 46.4296875 233.963867188 c 0
 45.53515625 250.822265625 58.4638671875 265.178710938 75.322265625 266.071289062 c 0
 92.3212890625 267 106.53515625 254.000976562 107.428710938 237.177734375 c 0
 108.178710938 222.963867188 108.071289062 204.75 108 185.463867188 c 0
 107.822265625 150.927734375 107.46484375 81.2861328125 117.143554688 60.927734375 c 1
 156.46484375 59.8212890625 252.178710938 90.107421875 277.71484375 240.678710938 c 0
 280.53515625 257.321289062 296.286132812 268.46484375 312.927734375 265.678710938 c 0
 329.571289062 262.856445312 340.75 247.072265625 337.927734375 230.463867188 c 0
 305.53515625 39.392578125 173.71484375 0 116 0 c 0
EndSplineSet
EndChar

StartChar: w
Encoding: 119 119 48
Width: 393
Flags: W
VStem: 346.035 59.7861<243.316 352.853>
LayerCount: 2
Fore
SplineSet
71.5361328125 7.4287109375 m 1
 60.107421875 7.4287109375 49.75 12.9638671875 43.8935546875 22.6787109375 c 0
 40.2138671875 28.75 33.46484375 45.0361328125 50.0361328125 64.53515625 c 0
 66.6064453125 87.072265625 87.5 232.786132812 77.7861328125 259.178710938 c 0
 70.4990234375 274.392578125 77.03515625 292.428710938 92.25 299.677734375 c 0
 107.5 306.96484375 125.821289062 300.286132812 133.106445312 285.071289062 c 0
 145.463867188 259.213867188 141.178710938 183.5 128.857421875 119.286132812 c 1
 130.713867188 121.96484375 131.928710938 124.357421875 132.392578125 126.321289062 c 0
 133.963867188 141.536132812 146.500976562 153.036132812 161.786132812 153.53515625 c 0
 177.5 153.856445312 190.321289062 142.892578125 192.856445312 127.821289062 c 0
 194.928710938 115.463867188 198.427734375 102.03515625 202 91.7138671875 c 1
 250.356445312 131.213867188 358.178710938 259.677734375 346.03515625 317.21484375 c 0
 342.536132812 333.713867188 353.106445312 349.928710938 369.607421875 353.427734375 c 0
 386.071289062 356.928710938 402.321289062 346.356445312 405.821289062 329.857421875 c 0
 427.678710938 226.213867188 265.713867188 57.7138671875 220 30 c 0
 195.536132812 15.1435546875 179.5 21.03515625 170.321289062 28.607421875 c 0
 162.786132812 34.8212890625 156.571289062 43.9638671875 151.536132812 54.1787109375 c 1
 125 29.78515625 93.142578125 11.3935546875 79.5712890625 8.357421875 c 0
 76.8564453125 7.7490234375 74.1435546875 7.4638671875 71.5009765625 7.4638671875 c 1
 71.5361328125 7.4287109375 l 1
EndSplineSet
EndChar

StartChar: x
Encoding: 120 120 49
Width: 481
Flags: W
HStem: 23.1064 58.0723<393.198 451.584> 224.644 61.1426<344.439 476.448>
LayerCount: 2
Fore
SplineSet
477.857421875 255.25 m 2
 477.821289062 255.178710938 l 2
 477.821289062 238.321289062 464.142578125 224.643554688 447.286132812 224.643554688 c 0
 397.75 224.643554688 334.642578125 205.321289062 272 170 c 1
 354.3203125 120.393554688 434.25 81.8212890625 435.5703125 81.1787109375 c 0
 450.78515625 73.892578125 457.178710938 55.6435546875 449.891601562 40.4287109375 c 0
 444.642578125 29.4990234375 433.713867188 23.1064453125 422.321289062 23.1064453125 c 0
 417.892578125 23.1064453125 413.356445312 24.107421875 409.107421875 26.142578125 c 0
 403 29.0712890625 307.178710938 75.357421875 215.03515625 133.321289062 c 1
 166.71484375 97.7861328125 121.321289062 52.6787109375 85.8564453125 -0.5009765625 c 0
 79.9638671875 -9.3212890625 70.28515625 -14.1064453125 60.392578125 -14.1064453125 c 0
 54.5712890625 -14.1064453125 48.6787109375 -12.427734375 43.4638671875 -8.9638671875 c 0
 29.427734375 0.3935546875 25.642578125 19.3564453125 34.9990234375 33.3935546875 c 0
 70.642578125 86.8564453125 114.357421875 132.143554688 161.141601562 169.107421875 c 1
 130.856445312 190.463867188 103.25 212.46484375 82.2861328125 233.822265625 c 0
 70.46484375 245.856445312 70.642578125 265.21484375 82.6787109375 277.036132812 c 0
 94.7138671875 288.857421875 114.071289062 288.678710938 125.892578125 276.643554688 c 0
 148.213867188 253.96484375 179.713867188 229.928710938 214.177734375 206.750976562 c 1
 296.213867188 258.607421875 381.927734375 285.786132812 447.321289062 285.786132812 c 0
 464.177734375 285.786132812 477.857421875 272.106445312 477.857421875 255.25 c 2
EndSplineSet
EndChar

StartChar: y
Encoding: 121 121 50
Width: 491
Flags: W
LayerCount: 2
Fore
SplineSet
95.677734375 -368.71484375 m 2
 88.3564453125 -368.71484375 81.03515625 -366.107421875 75.177734375 -360.786132812 c 0
 62.677734375 -349.463867188 61.7138671875 -330.142578125 73.0712890625 -317.642578125 c 0
 189.321289062 -189.428710938 437.641601562 62.1796875 467.0703125 172.28515625 c 1
 453.034179688 165.71484375 431.963867188 151.96484375 415.249023438 141.072265625 c 0
 350.78515625 99.0361328125 253.3203125 35.5361328125 110.391601562 28.4296875 c 0
 87.1064453125 27.25 68.1416015625 38.142578125 59.53515625 57.53515625 c 0
 36.427734375 109.642578125 100.249023438 205.822265625 123.677734375 229.25 c 0
 135.606445312 241.177734375 154.927734375 241.177734375 166.891601562 229.25 c 0
 178.8203125 217.322265625 178.8203125 197.963867188 166.891601562 186.03515625 c 0
 144.677734375 163.821289062 119.927734375 113.392578125 116 90 c 1
 238.034179688 98.5 320.962890625 152.53515625 381.891601562 192.25 c 0
 433.392578125 225.822265625 474.106445312 252.322265625 512.856445312 227.607421875 c 0
 518.462890625 224.036132812 528.213867188 215.463867188 530.534179688 198.357421875 c 0
 542.856445312 106.28515625 231.999023438 -233.286132812 118.356445312 -358.678710938 c 0
 112.3203125 -365.3203125 104.03515625 -368.71484375 95.7138671875 -368.71484375 c 2
 95.677734375 -368.71484375 l 2
115.713867188 81.357421875 m 1
 115.8203125 81.357421875 l 1
 115.713867188 81.357421875 l 1
EndSplineSet
EndChar

StartChar: z
Encoding: 122 122 51
Width: 532
Flags: W
LayerCount: 2
Fore
SplineSet
200.463867188 -28.6787109375 m 1
 156.499023438 -28.6787109375 116.212890625 -18.6435546875 87 7 c 0
 67.0712890625 24.53515625 66.3203125 44.1787109375 67.642578125 54.3212890625 c 0
 73.46484375 98.5 131.571289062 129.213867188 233.712890625 179.677734375 c 0
 283.856445312 204.46484375 350.391601562 237.321289062 374.607421875 261.892578125 c 1
 355.321289062 266.678710938 320 268.856445312 300.927734375 270.036132812 c 0
 271.392578125 271.857421875 252.606445312 273.178710938 239.178710938 277.536132812 c 0
 225.463867188 281.96484375 196.963867188 291.178710938 191.678710938 318.036132812 c 0
 186.392578125 344.892578125 209.28515625 364.25 221.571289062 374.642578125 c 0
 234.463867188 385.536132812 253.75 383.928710938 264.642578125 371.071289062 c 0
 273.75 360.321289062 274.141601562 345.143554688 266.53515625 334.071289062 c 1
 276.463867188 332.786132812 291.749023438 331.821289062 304.71484375 331.03515625 c 0
 363.071289062 327.428710938 418.213867188 324.036132812 436.927734375 290.321289062 c 0
 441.606445312 281.892578125 447.677734375 264.428710938 435.642578125 242.177734375 c 0
 412.856445312 200.036132812 338.999023438 163.571289062 260.78515625 124.928710938 c 0
 217.999023438 103.786132812 148.8203125 69.607421875 131.3203125 49.892578125 c 1
 199.28515625 1.2138671875 389.927734375 70.5 437.928710938 114.821289062 c 0
 450.356445312 126.286132812 469.642578125 125.5 481.107421875 113.107421875 c 0
 492.53515625 100.71484375 491.78515625 81.3935546875 479.392578125 69.9287109375 c 0
 438.071289062 31.7861328125 308.28515625 -28.6435546875 200.428710938 -28.6787109375 c 1
 200.463867188 -28.6787109375 l 1
EndSplineSet
EndChar

StartChar: exclam
Encoding: 33 33 52
Width: 220
Flags: W
HStem: 286 21G<79.7856 80.0352>
VStem: 63.6777 32.6436<286.076 455.092> 92.6074 29.8564<26.8228 116.828>
LayerCount: 2
Fore
SplineSet
80 286 m 2xc0
 79.5712890625 286 79.1064453125 286 78.677734375 286.037109375 c 0
 69.677734375 286.750976562 62.9638671875 294.64453125 63.677734375 303.642578125 c 0
 63.892578125 306.142578125 84.2138671875 557.14453125 119.143554688 716.750976562 c 0
 121.0703125 725.572265625 129.78515625 731.1796875 138.607421875 729.250976562 c 0
 147.427734375 727.322265625 153.036132812 718.607421875 151.107421875 709.787109375 c 0
 116.678710938 552.357421875 96.5 303.572265625 96.3212890625 301.072265625 c 0
 95.6416015625 292.5 88.4638671875 286.037109375 80.03515625 286.037109375 c 2
 80 286 l 2xc0
114.213867188 26.857421875 m 2
 114.178710938 26.822265625 l 2
 111.999023438 25.857421875 109.75 25.3935546875 107.5 25.3935546875 c 0
 101.28515625 25.3935546875 95.3212890625 29.0009765625 92.607421875 35.0361328125 c 0
 91.5361328125 37.4296875 66.7138671875 93.71484375 93.75 135.787109375 c 0
 98.642578125 143.39453125 108.75 145.607421875 116.357421875 140.71484375 c 0
 123.963867188 135.822265625 126.177734375 125.71484375 121.28515625 118.107421875 c 0
 103.892578125 91.037109375 122.28515625 48.857421875 122.463867188 48.4296875 c 0xa0
 126.142578125 40.21484375 122.463867188 30.5361328125 114.213867188 26.857421875 c 2
EndSplineSet
EndChar

StartChar: quotedbl
Encoding: 34 34 53
Width: 272
Flags: W
HStem: 640.144 113.543 654.829 21G<85.7002 89.0859>
VStem: 102.143 24.5146<698.065 753.564> 156.914 21.8008<645.972 693.324> 169.143 24.2002<661.369 753.323>
LayerCount: 2
Fore
SplineSet
87.6572265625 654.829101562 m 2x60
 83.7431640625 654.829101562 79.857421875 656.600585938 77.2861328125 659.943359375 c 0
 72.8857421875 665.686523438 73.943359375 673.88671875 79.685546875 678.286132812 c 0
 87.5712890625 684.372070312 91.7431640625 703.658203125 95.0859375 719.171875 c 0
 97.2001953125 728.915039062 99.171875 738.143554688 102.142578125 746.029296875 c 0
 104.685546875 752.80078125 112.228515625 756.229492188 119 753.686523438 c 0xa0
 125.771484375 751.143554688 129.200195312 743.600585938 126.657226562 736.857421875 c 0
 124.37109375 730.772460938 122.600585938 722.458007812 120.685546875 713.658203125 c 0
 116.228515625 692.943359375 111.142578125 669.486328125 95.6572265625 657.543945312 c 0
 93.2861328125 655.71484375 90.486328125 654.829101562 87.685546875 654.829101562 c 2
 87.6572265625 654.829101562 l 2x60
178.71484375 645.971679688 m 1xb0
 178.685546875 645.971679688 l 2
 176.171875 642.200195312 172.028320312 640.143554688 167.799804688 640.143554688 c 0
 165.286132812 640.143554688 162.771484375 640.857421875 160.54296875 642.34375 c 0
 154.54296875 646.34375 152.9140625 654.486328125 156.9140625 660.486328125 c 0xb0
 161.71484375 667.658203125 163.829101562 698.372070312 164.971679688 714.857421875 c 0
 166.200195312 732.543945312 166.885742188 741.286132812 169.142578125 746.572265625 c 0
 171.971679688 753.229492188 179.657226562 756.286132812 186.314453125 753.458007812 c 0
 192.857421875 750.658203125 195.943359375 743.171875 193.342773438 736.600585938 c 0xa8
 192.514648438 733.572265625 191.71484375 722.200195312 191.0859375 713.057617188 c 0
 188.9140625 681.372070312 186.743164062 658.000976562 178.71484375 645.971679688 c 1xb0
193.228515625 736.286132812 m 1
 193.228515625 736.286132812 193.286132812 736.400390625 193.314453125 736.458007812 c 1
 193.314453125 736.400390625 193.256835938 736.34375 193.228515625 736.286132812 c 1
EndSplineSet
EndChar

StartChar: numbersign
Encoding: 35 35 54
Width: 591
Flags: W
HStem: 199.5 31.9648<73.6609 137.131> 291.286 32.7139<93.8636 194.523> 312.071 20G<333.163 355.163> 332.036 21G<355.146 355.163>
VStem: 153.021 32.7129<38.4806 187.366> 231.484 32.7148<364.505 532.78> 340.163 32.7139<79.2852 293.518> 355.128 32.8936<115.111 294.929 351.25 384.753>
LayerCount: 2
Fore
SplineSet
497.555664062 492.428710938 m 1xce
 497.663085938 492.607421875 l 1
 461.69921875 460.821289062 426.876953125 433.463867188 393.663085938 410.036132812 c 0
 390.306640625 390.21484375 388.306640625 370.357421875 388.021484375 351.25 c 1xcd
 414.091796875 367.286132812 440.877929688 385.786132812 468.341796875 407.463867188 c 0
 475.4140625 413.03515625 485.69921875 411.821289062 491.305664062 404.749023438 c 0
 496.9140625 397.678710938 495.69921875 387.392578125 488.592773438 381.78515625 c 0
 454.126953125 354.571289062 420.44921875 332.106445312 387.806640625 313.213867188 c 1
 386.984375 275.142578125 383.377929688 238.928710938 379.805664062 203.678710938 c 0
 375.94921875 165.607421875 372.342773438 129.643554688 372.876953125 95.8935546875 c 0
 373.056640625 86.892578125 365.841796875 79.4287109375 356.806640625 79.28515625 c 2
 356.520507812 79.28515625 l 2
 347.591796875 79.28515625 340.306640625 86.4287109375 340.163085938 95.357421875 c 0
 339.556640625 131.036132812 343.306640625 167.892578125 347.235351562 206.963867188 c 0
 350.091796875 235.571289062 353.021484375 264.821289062 354.4140625 294.928710938 c 1
 306.163085938 269.892578125 260.376953125 252.178710938 217.806640625 238 c 0
 215.4140625 230.46484375 212.94921875 223.03515625 210.4140625 215.786132812 c 0
 184.126953125 140.856445312 185.734375 55.0712890625 185.734375 54.21484375 c 0
 185.94921875 45.1787109375 178.805664062 37.71484375 169.770507812 37.5 c 2
 169.376953125 37.5 l 2
 160.521484375 37.5 153.234375 44.5712890625 153.021484375 53.4638671875 c 0
 152.9140625 57.2138671875 151.235351562 145.28515625 179.234375 225.75 c 1
 165.806640625 221.642578125 152.734375 217.78515625 140.091796875 214.072265625 c 0
 124.271484375 209.392578125 108.913085938 204.892578125 94.056640625 200.25 c 0
 92.4130859375 199.749023438 90.7705078125 199.5 89.1640625 199.5 c 0
 82.19921875 199.5 75.734375 203.96484375 73.5556640625 210.963867188 c 0
 70.8779296875 219.606445312 75.69921875 228.786132812 84.306640625 231.46484375 c 0
 99.306640625 236.142578125 114.842773438 240.713867188 130.841796875 245.427734375 c 0
 150.521484375 251.213867188 170.734375 257.143554688 191.484375 263.75 c 0
 195.841796875 278.463867188 199.913085938 293.642578125 203.663085938 309.072265625 c 1
 167.056640625 296.75 136.163085938 291.286132812 112.520507812 291.286132812 c 0
 111.270507812 291.286132812 110.020507812 291.321289062 108.805664062 291.321289062 c 0
 99.7705078125 291.53515625 92.6630859375 299.03515625 92.876953125 308.071289062 c 0
 93.091796875 317.071289062 100.556640625 324.25 109.627929688 324 c 0
 134.556640625 323.393554688 169.44921875 330.071289062 212.020507812 346.392578125 c 1
 224.234375 405.963867188 231.484375 466.677734375 231.484375 516.428710938 c 0
 231.484375 525.46484375 238.805664062 532.78515625 247.841796875 532.78515625 c 0
 256.876953125 532.78515625 264.19921875 525.46484375 264.19921875 516.428710938 c 0
 264.19921875 470.142578125 258.520507812 416.178710938 248.520507812 361.963867188 c 1
 283.341796875 378.213867188 322.091796875 400.25 363.913085938 429 c 1
 377.127929688 496.106445312 402.342773438 560.392578125 420.521484375 594.321289062 c 0
 424.805664062 602.249023438 434.69921875 605.25 442.663085938 600.999023438 c 0
 450.626953125 596.75 453.592773438 586.821289062 449.341796875 578.857421875 c 0
 435.376953125 552.78515625 416.984375 507.75 403.94921875 457.927734375 c 1
 427.19921875 475.571289062 451.235351562 495.178710938 475.877929688 516.963867188 c 0
 482.663085938 522.927734375 492.984375 522.286132812 498.984375 515.53515625 c 0
 504.948242188 508.75 504.306640625 498.428710938 497.555664062 492.428710938 c 1xce
355.163085938 332.071289062 m 1xad
 355.163085938 332.036132812 l 1x9d
 355.127929688 334.928710938 355.163085938 337.78515625 355.127929688 340.678710938 c 0
 354.842773438 355.21484375 355.734375 370.28515625 357.342773438 385.46484375 c 1
 315.055664062 358.321289062 275.841796875 337.822265625 240.626953125 323 c 0
 237.127929688 307.213867188 233.270507812 291.572265625 229.091796875 276.213867188 c 1
 269.1640625 290.392578125 311.163085938 307.892578125 355.163085938 332.071289062 c 1xad
EndSplineSet
EndChar

StartChar: dollar
Encoding: 36 36 55
Width: 464
Flags: W
HStem: 48.5361 34.501<270.9 346.466> 312.322 20G<271.428 306.088> 332.286 21G<271.428 271.946> 615.572 32.4648<182.73 228.07>
VStem: 235.785 32.8926<91.0723 291.036> 242.356 32.6436<7.49762 49.2834 358 603.232> 317.82 28.6797<505.317 603.268> 370.964 32.6787<108.531 203.758>
LayerCount: 2
Fore
SplineSet
271.427734375 332.286132812 m 1xb7
 271.427734375 332.322265625 l 1
 340.749023438 275.537109375 403.642578125 221.286132812 403.642578125 158.678710938 c 0
 403.642578125 114.143554688 381.607421875 77.1796875 344.749023438 59.7861328125 c 0
 332.071289062 53.8212890625 314.177734375 48.5361328125 290.5 48.5361328125 c 0
 284.28515625 48.5361328125 277.607421875 48.9287109375 270.5703125 49.75 c 1
 271.5 39.75 272.642578125 32.6435546875 274.0703125 29.39453125 c 0
 278.463867188 21.5009765625 275.606445312 11.71484375 267.712890625 7.2861328125 c 0
 265.25 5.857421875 262.53515625 5.21484375 259.856445312 5.21484375 c 0
 254.0703125 5.21484375 248.428710938 8.287109375 245.392578125 13.6787109375 c 0
 241.78515625 20.1435546875 239.28515625 35.3935546875 237.642578125 56.2861328125 c 1
 193.642578125 68.46484375 137.5703125 96.9296875 67.892578125 154.39453125 c 0
 60.9287109375 160.143554688 59.927734375 170.46484375 65.677734375 177.428710938 c 0
 71.427734375 184.39453125 81.75 185.393554688 88.7138671875 179.642578125 c 0
 149.749023438 129.287109375 198.249023438 103.357421875 235.78515625 91.072265625 c 1xdb
 233.53515625 156.572265625 235.891601562 248.858398438 238.391601562 317.072265625 c 1
 181.963867188 363.1796875 124.177734375 410.857421875 101.677734375 462.857421875 c 0
 86.5 497.893554688 91.177734375 542.21484375 113.8203125 578.46484375 c 0
 138 617.107421875 179.107421875 641.9296875 228.0703125 648.037109375 c 0
 226.5 661.643554688 224.927734375 674.6796875 223.499023438 686.6796875 c 0
 219.963867188 716.21484375 217.178710938 739.5 216.462890625 752.393554688 c 0
 215.963867188 761.428710938 222.857421875 769.143554688 231.892578125 769.642578125 c 0
 240.821289062 770.178710938 248.642578125 763.25 249.142578125 754.21484375 c 0
 249.78515625 742.357421875 252.53515625 719.5 255.999023438 690.572265625 c 0
 257.53515625 677.822265625 259.177734375 663.893554688 260.856445312 649.357421875 c 1
 309.641601562 647.1796875 333.53515625 626.072265625 345.03515625 607.608398438 c 0
 363.962890625 577.21484375 360.107421875 536.286132812 346.5 511.572265625 c 0
 342.141601562 503.643554688 332.178710938 500.75 324.28515625 505.108398438 c 0
 316.357421875 509.46484375 313.463867188 519.39453125 317.8203125 527.322265625 c 0
 325.357421875 541 330.142578125 569.607421875 317.249023438 590.322265625 c 0
 306.142578125 608.14453125 284.963867188 614.71484375 264.53515625 616.393554688 c 1
 272.03515625 546.787109375 278.571289062 467.1796875 275 406.572265625 c 0
 273.677734375 383.96484375 272.463867188 358.71484375 271.427734375 332.286132812 c 1xb7
131.712890625 475.822265625 m 2
 131.712890625 475.787109375 l 1
 148.75 436.358398438 193.177734375 396.6796875 240 358 c 1
 241.28515625 388.072265625 242.321289062 407.643554688 242.356445312 408.46484375 c 0x97
 245.821289062 467.536132812 239.212890625 546.607421875 231.712890625 615.572265625 c 1
 179.25 609.107421875 152.892578125 579.25 141.5703125 561.107421875 c 0
 124.53515625 533.858398438 120.749023438 501.143554688 131.712890625 475.822265625 c 2
330.821289062 89.357421875 m 0
 356.357421875 101.358398438 370.963867188 126.607421875 370.963867188 158.643554688 c 0
 370.963867188 201.072265625 323.463867188 246.393554688 270.03515625 291.036132812 c 1
 267.642578125 214.537109375 266.856445312 134.607421875 268.677734375 83.037109375 c 1x9b
 299.606445312 78.392578125 319.821289062 84.1796875 330.821289062 89.357421875 c 0
EndSplineSet
EndChar

StartChar: percent
Encoding: 37 37 56
Width: 456
Flags: W
HStem: 384.463 21G<156.018 160.268> 540.143 32.0713<308.945 331.626>
VStem: 148.214 38.3936<444.112 465.504> 267.857 31.1064<150.142 189.968>
LayerCount: 2
Fore
SplineSet
94.392578125 28.677734375 m 0
 91.28515625 28.677734375 88.142578125 29.5703125 85.357421875 31.392578125 c 0
 77.8203125 36.392578125 75.7861328125 46.53515625 80.75 54.0703125 c 0
 160.713867188 174.713867188 287.857421875 446.891601562 331.78515625 541.0703125 c 1
 330.571289062 540.712890625 329.321289062 540.392578125 328.107421875 540.142578125 c 0
 319.213867188 538.356445312 310.642578125 544.10546875 308.856445312 552.962890625 c 0
 307.071289062 561.8203125 312.8203125 570.427734375 321.677734375 572.213867188 c 0
 325.427734375 572.962890625 334.28515625 578.391601562 339.571289062 581.642578125 c 0
 351.5703125 589 364 596.642578125 374.786132812 586.748046875 c 0
 385.357421875 577.0703125 378.536132812 563.391601562 376.28515625 558.892578125 c 0
 374.713867188 555.749023438 369.749023438 545.142578125 362.927734375 530.427734375 c 0
 320.213867188 438.8203125 190.28515625 160.0703125 108.03515625 35.9990234375 c 0
 104.891601562 31.2490234375 99.6787109375 28.677734375 94.392578125 28.677734375 c 0
172 394 m 2
 172.036132812 393.962890625 l 2
 169.28515625 387.998046875 163.356445312 384.462890625 157.178710938 384.462890625 c 0
 154.856445312 384.462890625 152.53515625 384.927734375 150.3203125 385.963867188 c 0
 132.213867188 394.3203125 128 405.498046875 127.642578125 413.426757812 c 0
 127.143554688 424.962890625 134.392578125 435.60546875 148.071289062 443.426757812 c 0
 148.393554688 443.641601562 148.749023438 443.8203125 149.0703125 444.03515625 c 0
 148.499023438 445.677734375 148.213867188 447.462890625 148.213867188 449.28515625 c 0
 148.213867188 458.3203125 155.5 465.641601562 164.536132812 465.641601562 c 0
 177.857421875 465.641601562 184.678710938 457.892578125 186.607421875 450.60546875 c 0
 190.427734375 436.177734375 177.356445312 422.642578125 164.786132812 415.3203125 c 1
 172.428710938 411.28515625 175.678710938 401.927734375 172 394 c 2
164.643554688 432.927734375 m 1
 164.713867188 432.927734375 l 1
 164.643554688 432.927734375 l 1
288.892578125 149.999023438 m 1
 288.927734375 149.962890625 l 1
 287.036132812 149.248046875 285.071289062 148.927734375 283.178710938 148.927734375 c 0
 276.53515625 148.927734375 270.3203125 152.962890625 267.857421875 159.534179688 c 0
 264.25 169.10546875 266.5703125 180.856445312 274.5 193.499023438 c 0
 284.28515625 209.10546875 303.286132812 226.677734375 321.78515625 228.356445312 c 0
 330.821289062 229.142578125 338.713867188 222.53515625 339.536132812 213.534179688 c 0
 340.357421875 204.5703125 333.713867188 196.60546875 324.713867188 195.784179688 c 0
 316.78515625 195.0703125 300.392578125 177.034179688 298.963867188 169.462890625 c 0
 301.071289062 161.462890625 296.821289062 152.962890625 288.892578125 149.999023438 c 1
298.892578125 168.892578125 m 1
 298.892578125 168.892578125 l 1
298.463867188 171.0703125 m 1
 298.463867188 171.0703125 l 1
EndSplineSet
EndChar

StartChar: ampersand
Encoding: 38 38 57
Width: 508
Flags: W
HStem: 230 34.3213<236.643 288.448>
VStem: 50.9639 32.7148<170.394 193.054> 203.143 32.8574<109.393 220.607 264.321 426.716> 214.821 31.9287<267.5 440.476>
LayerCount: 2
Fore
SplineSet
219.071289062 20.71484375 m 1xe0
 211.821289062 20.71484375 205.321289062 25.5361328125 203.3203125 32.6787109375 c 0
 203.071289062 33.572265625 176.821289062 124.392578125 116.606445312 132.786132812 c 0
 58.8916015625 140.822265625 51.4638671875 167.678710938 50.9638671875 178.857421875 c 0
 49.9638671875 201.286132812 70.53515625 220.71484375 103.463867188 228.392578125 c 0
 126.071289062 233.678710938 163 243.142578125 203.713867188 254.71484375 c 1
 205.249023438 328.25 208.427734375 399.071289062 214.821289062 428.107421875 c 0
 216.75 436.928710938 225.427734375 442.5 234.28515625 440.571289062 c 0
 243.107421875 438.642578125 248.678710938 429.928710938 246.75 421.107421875 c 0xd0
 241.142578125 395.5 238.177734375 332.21484375 236.642578125 264.321289062 c 1
 310.642578125 286.393554688 387.78515625 313.25 410.321289062 333.28515625 c 0
 417.0703125 339.286132812 427.392578125 338.678710938 433.427734375 331.928710938 c 0
 439.427734375 325.178710938 438.821289062 314.822265625 432.0703125 308.821289062 c 0
 402.821289062 282.821289062 313.177734375 252.536132812 236 230 c 1
 234.5 133.678710938 235.427734375 39.0009765625 235.463867188 37.25 c 0
 235.53515625 29.0361328125 229.53515625 22.03515625 221.391601562 20.892578125 c 0
 220.607421875 20.78515625 219.856445312 20.75 219.071289062 20.75 c 1
 219.071289062 20.71484375 l 1xe0
203.142578125 220.607421875 m 1xe0
 151.606445312 206.25 111.927734375 196.75 110.927734375 196.536132812 c 0
 90.1787109375 191.678710938 83.6064453125 182.392578125 83.6787109375 180.356445312 c 0
 83.7490234375 178.821289062 90.9638671875 169.428710938 121.142578125 165.213867188 c 0
 157.856445312 160.107421875 184.321289062 135.393554688 202.428710938 109.392578125 c 1
 202.428710938 141.21484375 202.571289062 180.428710938 203.142578125 220.642578125 c 1
 203.142578125 220.607421875 l 1xe0
EndSplineSet
EndChar

StartChar: quotesingle
Encoding: 39 39 58
Width: 172
Flags: W
HStem: 596.25 168.143
VStem: 64.25 32.6436<606.723 743.93>
LayerCount: 2
Fore
SplineSet
73.107421875 596.25 m 1
 70.8935546875 596.25 68.6435546875 596.713867188 66.46484375 597.678710938 c 0
 58.21484375 601.357421875 54.5009765625 611 58.1435546875 619.249023438 c 0
 62.4638671875 628.963867188 63.3583984375 648.857421875 64.25 668.142578125 c 0
 65.7509765625 700.678710938 67.4287109375 737.571289062 85.0361328125 761.107421875 c 0
 90.46484375 768.321289062 100.71484375 769.822265625 107.9296875 764.392578125 c 0
 115.178710938 758.963867188 116.607421875 748.71484375 111.213867188 741.500976562 c 0
 99.6083984375 726.03515625 98.1787109375 694.5 96.8935546875 666.643554688 c 0
 95.8212890625 643.321289062 94.8212890625 621.321289062 88 606 c 0
 85.28515625 599.892578125 79.322265625 596.286132812 73.0361328125 596.286132812 c 1
 73.107421875 596.25 l 1
EndSplineSet
EndChar

StartChar: parenleft
Encoding: 40 40 59
Width: 176
Flags: W
HStem: 3.85742 40.0352<132.179 191.243>
LayerCount: 2
Fore
SplineSet
132.178710938 3.892578125 m 1
 101.21484375 3.892578125 64.9296875 12.0009765625 41.21484375 43.6064453125 c 0
 24.21484375 66.2861328125 21.1796875 103.21484375 31.9638671875 156.46484375 c 0
 54.857421875 269.750976562 141.142578125 440.21484375 178 461.75 c 0
 185.821289062 466.286132812 195.821289062 463.678710938 200.357421875 455.858398438 c 0
 204.892578125 448.072265625 202.286132812 438.036132812 194.463867188 433.500976562 c 0
 173.107421875 421.036132812 87.357421875 265.572265625 64 150 c 0
 55.5361328125 108.21484375 56.75 77.3935546875 67.357421875 63.21484375 c 0
 100.857421875 18.5361328125 180.357421875 43.6435546875 181.1796875 43.892578125 c 0
 189.75 46.6796875 199 42.0009765625 201.786132812 33.3935546875 c 0
 204.571289062 24.8212890625 199.9296875 15.607421875 191.357421875 12.78515625 c 0
 189.286132812 12.1083984375 163.428710938 3.857421875 132.178710938 3.857421875 c 1
 132.178710938 3.892578125 l 1
EndSplineSet
EndChar

StartChar: parenright
Encoding: 41 41 60
Width: 228
Flags: W
HStem: 402.106 32.6074<-6.18116 81.4814>
VStem: -6.21484 181.286
LayerCount: 2
Fore
SplineSet
20.107421875 -18.892578125 m 5
 15.4287109375 -18.892578125 10.75 -16.8935546875 7.53515625 -13.0009765625 c 4
 1.7490234375 -6.072265625 2.6787109375 4.2490234375 9.642578125 10.03515625 c 4
 95.6064453125 81.6787109375 136.536132812 159.499023438 142.427734375 262.462890625 c 4
 145 307.213867188 133.75 342.28515625 109 366.749023438 c 4
 77.5712890625 397.821289062 32.75 403.5703125 11.21484375 402.106445312 c 4
 2.142578125 401.571289062 -5.607421875 408.28515625 -6.21484375 417.28515625 c 4
 -6.8212890625 426.28515625 -0.03515625 434.106445312 8.9638671875 434.713867188 c 4
 42.5 437.071289062 94.857421875 426.713867188 132 390 c 4
 163.71484375 358.677734375 178.213867188 315.142578125 175.071289062 260.606445312 c 4
 168.71484375 149.391601562 122.821289062 61.7841796875 30.5712890625 -15.072265625 c 4
 27.5 -17.607421875 23.78515625 -18.857421875 20.107421875 -18.857421875 c 5
 20.107421875 -18.892578125 l 5
EndSplineSet
EndChar

StartChar: asterisk
Encoding: 42 42 61
Width: 504
Flags: W
VStem: 319.357 32.0361<362.07 411.339>
LayerCount: 2
Fore
SplineSet
126.286132812 193.3203125 m 4
 124.286132812 193.3203125 122.28515625 193.678710938 120.321289062 194.46484375 c 4
 111.892578125 197.749023438 107.750976562 207.25 111.071289062 215.677734375 c 4
 112.321289062 218.893554688 113.678710938 222.25 115.071289062 225.75 c 5
 111.786132812 222.928710938 108.5 220.143554688 105.178710938 217.28515625 c 4
 98.322265625 211.428710938 87.96484375 212.25 82.107421875 219.106445312 c 4
 76.25 225.963867188 77.072265625 236.286132812 83.9287109375 242.177734375 c 4
 104.392578125 259.642578125 123.893554688 276.642578125 142.357421875 293.107421875 c 4
 147.107421875 304.677734375 152.03515625 316.678710938 157.03515625 328.856445312 c 4
 163.53515625 344.677734375 170.178710938 360.8203125 176.786132812 377 c 5
 152.142578125 389.713867188 126.107421875 405.607421875 99.71484375 425.463867188 c 4
 94.78515625 429.178710938 92.392578125 435.321289062 93.46484375 441.393554688 c 4
 94.53515625 447.463867188 98.9287109375 452.392578125 104.857421875 454.178710938 c 4
 131.9296875 462.356445312 176.178710938 476.286132812 223.1796875 492.213867188 c 5
 234.642578125 521.606445312 243.928710938 546.678710938 249.357421875 563.749023438 c 4
 251.107421875 569.213867188 255.572265625 573.392578125 261.142578125 574.713867188 c 4
 266.75 576.03515625 272.607421875 574.357421875 276.607421875 570.249023438 c 4
 278.072265625 568.749023438 293.678710938 552.499023438 310.357421875 523.21484375 c 5
 358.571289062 541.393554688 399.46484375 559.071289062 415.071289062 571.571289062 c 4
 421.536132812 576.75 430.822265625 576.249023438 436.71484375 570.5 c 4
 442.607421875 564.713867188 443.28515625 555.428710938 438.25 548.856445312 c 4
 437.678710938 548.107421875 406.643554688 507.928710938 342.893554688 440.927734375 c 5
 349.821289062 412.28515625 353.642578125 379.28515625 351.393554688 342.321289062 c 4
 351.107421875 337.963867188 349.107421875 333.893554688 345.822265625 331 c 4
 342.536132812 328.107421875 338.21484375 326.678710938 333.821289062 327.03515625 c 4
 331.286132812 327.213867188 297.571289062 330.036132812 248.53515625 346.571289062 c 5
 224.642578125 323.713867188 198.357421875 299.392578125 169.75 273.749023438 c 4
 158.713867188 246.78515625 148.821289062 222.428710938 141.500976562 203.713867188 c 4
 138.963867188 197.25 132.786132812 193.3203125 126.286132812 193.3203125 c 4
206.393554688 362.892578125 m 6
 203.893554688 356.78515625 201.393554688 350.71484375 198.893554688 344.642578125 c 5
 204.21484375 349.607421875 209.46484375 354.53515625 214.607421875 359.392578125 c 5
 211.892578125 360.53515625 209.143554688 361.713867188 206.393554688 362.928710938 c 5
 206.393554688 362.892578125 l 6
275.46484375 372.571289062 m 5
 293.678710938 367.177734375 308.75 363.963867188 319.357421875 362.0703125 c 5
 319.4296875 379.963867188 317.928710938 396.78515625 315.321289062 412.356445312 c 5
 303 399.78515625 289.71484375 386.536132812 275.5 372.571289062 c 6
 275.46484375 372.571289062 l 5
218.821289062 393.357421875 m 4
 226.357421875 390.071289062 233.642578125 387.0703125 240.71484375 384.357421875 c 4
 265.321289062 408.177734375 287.177734375 430.178710938 306.357421875 450.036132812 c 4
 302.750976562 461.78515625 298.607421875 472.536132812 294.25 482.28515625 c 4
 278.821289062 476.678710938 263.25 471.213867188 248 466 c 4
 239.036132812 443.28515625 229.071289062 418.571289062 218.821289062 393.357421875 c 4
146.286132812 432.713867188 m 5
 160.927734375 423.107421875 175.321289062 414.78515625 189.286132812 407.499023438 c 5
 195.5 422.786132812 201.607421875 437.821289062 207.392578125 452.321289062 c 5
 183.893554688 444.5703125 162.713867188 437.821289062 146.286132812 432.713867188 c 5
325.143554688 493.713867188 m 6
 327.5 488.357421875 329.75 482.749023438 331.9296875 476.892578125 c 5
 342.357421875 488.03515625 351.75 498.28515625 360.107421875 507.571289062 c 5
 349.000976562 503 337.25 498.357421875 325.107421875 493.749023438 c 5
 325.143554688 493.713867188 l 6
270.607421875 525.071289062 m 5
 268.427734375 519.142578125 266.107421875 512.821289062 263.571289062 506.178710938 c 5
 268.75 508 273.928710938 509.856445312 279.071289062 511.713867188 c 5
 276.142578125 516.678710938 273.28515625 521.106445312 270.607421875 525.071289062 c 5
EndSplineSet
EndChar

StartChar: plus
Encoding: 43 43 62
Width: 364
Flags: W
HStem: 350 33.0361<99.563 151.285 185.107 247.946> 373.214 31.6064<58.5775 133.863>
VStem: 143.142 32.6436<163.956 346.859> 152.5 32.6074<182.954 350.429 387.464 508.725>
LayerCount: 2
Fore
SplineSet
281.5 417.999023438 m 1x90
 281.53515625 418.106445312 l 1
 289.249023438 413.427734375 291.713867188 403.357421875 287.03515625 395.642578125 c 0
 266.28515625 361.392578125 233.892578125 350 196 350 c 0x90
 192.03515625 350 187.999023438 350.178710938 183.927734375 350.428710938 c 1
 180.927734375 274.321289062 176.606445312 194.642578125 175.78515625 179.392578125 c 0
 175.321289062 170.678710938 168.071289062 163.928710938 159.463867188 163.928710938 c 0
 159.178710938 163.928710938 158.892578125 163.928710938 158.5703125 163.928710938 c 0
 149.571289062 164.392578125 142.642578125 172.142578125 143.141601562 181.142578125 c 0
 145.213867188 219.286132812 148.78515625 289.75 151.28515625 354.178710938 c 1
 125 358.607421875 97.392578125 365.927734375 70.0703125 373.213867188 c 0
 61.3203125 375.536132812 56.142578125 384.5 58.4638671875 393.213867188 c 0
 60.78515625 401.963867188 69.75 407.142578125 78.4638671875 404.8203125 c 0x60
 107.142578125 397.177734375 131.53515625 391.28515625 152.5 387.463867188 c 1
 154.178710938 436.963867188 154.857421875 478.106445312 153.249023438 490.463867188 c 0
 152.071289062 499.428710938 158.392578125 507.606445312 167.357421875 508.78515625 c 0
 176.3203125 510 184.499023438 503.642578125 185.678710938 494.677734375 c 0
 187.607421875 479.927734375 186.856445312 434.78515625 185.107421875 383.036132812 c 1
 222.071289062 380.321289062 244.53515625 388.607421875 259.03515625 412.5 c 0
 263.71484375 420.213867188 273.78515625 422.678710938 281.5 417.999023438 c 1x90
EndSplineSet
EndChar

StartChar: comma
Encoding: 44 44 63
Width: 180
Flags: W
HStem: -122 187.428
VStem: 42.2861 73.7852<23.9084 49.1664>
LayerCount: 2
Fore
SplineSet
48 -122 m 2
 44.46484375 -122 40.8935546875 -120.857421875 37.892578125 -118.5 c 0
 30.7861328125 -112.893554688 29.5712890625 -102.608398438 35.1796875 -95.537109375 c 0
 64.322265625 -58.5361328125 77.1435546875 -7.71484375 81.642578125 21.78515625 c 1
 75.71484375 17.78515625 69.21484375 14.0703125 62.357421875 12.177734375 c 0
 53.6435546875 9.78515625 44.6435546875 14.9287109375 42.2861328125 23.6416015625 c 0
 39.9287109375 32.3564453125 45.0361328125 41.3564453125 53.75 43.7138671875 c 0
 58.5009765625 44.9990234375 66.0712890625 50.712890625 71.607421875 54.8916015625 c 0
 82.2509765625 62.927734375 92.3212890625 70.53515625 104.142578125 65.427734375 c 0
 107.286132812 64.0703125 114.786132812 59.642578125 116.071289062 48.10546875 c 0
 117.9296875 31.3564453125 108.428710938 -55.5009765625 60.8935546875 -115.822265625 c 0
 57.6796875 -119.928710938 52.857421875 -122.072265625 48.0361328125 -122.072265625 c 2
 48 -122 l 2
EndSplineSet
EndChar

StartChar: hyphen
Encoding: 45 45 64
Width: 472
Flags: W
HStem: 350.465 34.1064<66.2251 391.493>
LayerCount: 2
Fore
SplineSet
125.712890625 350.428710938 m 1
 102.606445312 350.428710938 81.85546875 354.643554688 53.4267578125 372.357421875 c 0
 47.0703125 376.322265625 44.427734375 386.107421875 47.53515625 394.21484375 c 0
 50.6416015625 402.321289062 58.2841796875 405.71484375 64.6416015625 401.75 c 0
 98.6416015625 380.572265625 118.426757812 382.000976562 154.391601562 384.571289062 c 0
 168.426757812 385.572265625 184.3203125 386.71484375 204.03515625 386.71484375 c 0
 283.391601562 386.71484375 360.749023438 390.21484375 390.0703125 400.71484375 c 0
 396.891601562 403.143554688 403.927734375 398.072265625 405.8203125 389.393554688 c 0
 407.712890625 380.678710938 403.749023438 371.678710938 396.962890625 369.21484375 c 0
 360.8203125 356.25 264.427734375 354 204 354 c 0
 185.03515625 354 169.499023438 352.892578125 155.784179688 351.928710938 c 0
 144.927734375 351.143554688 135.106445312 350.46484375 125.677734375 350.46484375 c 1
 125.712890625 350.428710938 l 1
EndSplineSet
EndChar

StartChar: period
Encoding: 46 46 65
Width: 192
Flags: W
HStem: -14.5713 106.856
LayerCount: 2
Fore
SplineSet
84.427734375 92.28515625 m 1
 110.106445312 94.1787109375 136.678710938 54.857421875 132 26 c 0
 127.321289062 -2.857421875 115.607421875 -16.8935546875 95.3564453125 -14.5712890625 c 0
 75.1064453125 -12.25 80.53515625 17.392578125 62.6064453125 29.1064453125 c 0
 44.677734375 40.8212890625 52.4638671875 89.96484375 84.46484375 92.28515625 c 1
 84.427734375 92.28515625 l 1
EndSplineSet
EndChar

StartChar: slash
Encoding: 47 47 66
Width: 428
Flags: W
LayerCount: 2
Fore
SplineSet
57.107421875 5.4296875 m 1
 55.25 5.4296875 53.357421875 5.7509765625 51.5 6.4296875 c 0
 43 9.5009765625 38.6435546875 18.89453125 41.71484375 27.3935546875 c 0
 81.4638671875 136.750976562 217.678710938 349.858398438 286.607421875 434.678710938 c 0
 313.03515625 467.178710938 345.143554688 504.107421875 373.463867188 536.6796875 c 0
 412.178710938 581.1796875 452.178710938 627.178710938 458.177734375 640.072265625 c 0
 462 648.250976562 471.71484375 651.786132812 479.928710938 647.96484375 c 0
 488.107421875 644.143554688 491.642578125 634.4296875 487.821289062 626.21484375 c 0
 480.213867188 609.96484375 450.321289062 575.21484375 398.142578125 515.1796875 c 0
 369.963867188 482.787109375 338.03515625 446.072265625 312 414 c 0
 244.46484375 330.858398438 111.178710938 122.572265625 72.4638671875 16.1796875 c 0
 70.0361328125 9.5361328125 63.7861328125 5.3935546875 57.107421875 5.3935546875 c 1
 57.107421875 5.4296875 l 1
EndSplineSet
EndChar

StartChar: colon
Encoding: 58 58 67
Width: 228
Flags: W
HStem: 79.1787 91.8916<95.5713 133.55>
LayerCount: 2
Fore
SplineSet
152.356445312 439.962890625 m 1
 162.392578125 424.927734375 142.3203125 398.213867188 128.963867188 369.8203125 c 0
 115.606445312 341.427734375 82.177734375 349.78515625 73.857421875 369.8203125 c 0
 65.5361328125 389.857421875 83.892578125 421.606445312 105.606445312 439.962890625 c 1
 105.606445312 439.962890625 142.356445312 455 152.392578125 439.962890625 c 1
 152.356445312 439.962890625 l 1
58.8203125 154.356445312 m 0
 73.857421875 171.0703125 95.5712890625 171.0703125 95.5712890625 171.0703125 c 2
 122.28515625 172.713867188 145.641601562 166.03515625 144 146 c 0
 142.356445312 125.963867188 135.678710938 70.8212890625 95.5712890625 79.1787109375 c 0
 55.4638671875 87.53515625 43.78515625 137.642578125 58.8203125 154.356445312 c 0
EndSplineSet
EndChar

StartChar: semicolon
Encoding: 59 59 68
Width: 260
Flags: W
LayerCount: 2
Fore
SplineSet
98.75 326.642578125 m 2
 93.75 353.357421875 112.107421875 388.463867188 137.178710938 375.071289062 c 0
 162.25 361.71484375 162.392578125 281.536132812 137.178710938 278.178710938 c 0
 111.963867188 274.821289062 103.78515625 299.893554688 98.75 326.607421875 c 2
 98.75 326.642578125 l 2
41.9287109375 -14.9638671875 m 0
 55.2861328125 4.25 98.71484375 77.75 113.75 114.5 c 0
 122.963867188 137 173.178710938 120 156 78 c 0
 138.821289062 36.0009765625 103.75 -65.892578125 80.357421875 -80.927734375 c 0
 56.9638671875 -95.9638671875 28.572265625 -34.1787109375 41.9287109375 -14.9638671875 c 0
EndSplineSet
EndChar

StartChar: less
Encoding: 60 60 69
Width: 316
Flags: W
HStem: 26.1797 34.1064<152.974 215.559>
VStem: 25.8564 245.895
LayerCount: 2
Fore
SplineSet
187.25 26.1796875 m 1
 160.142578125 26.1796875 130.46484375 46.6787109375 98.71484375 87.4296875 c 0
 79.2509765625 112.4296875 58.857421875 145.643554688 42.822265625 178.607421875 c 0
 16.21484375 233.25 21.7861328125 241.1796875 25.8564453125 247 c 0
 44.3935546875 273.5 91.2861328125 296.607421875 145.571289062 323.357421875 c 0
 182.46484375 341.536132812 220.643554688 360.321289062 248.96484375 380.21484375 c 0
 256.357421875 385.393554688 266.572265625 383.607421875 271.750976562 376.21484375 c 0
 276.928710938 368.822265625 275.142578125 358.607421875 267.75 353.4296875 c 0
 237.321289062 332.107421875 198.036132812 312.71484375 160 294 c 0
 117.036132812 272.857421875 72.75 251 55.8212890625 232.25 c 1
 62.71484375 205.107421875 116.858398438 97.392578125 166.4296875 66.4287109375 c 0
 183.178710938 55.9296875 191.786132812 59.2138671875 194.606445312 60.2861328125 c 0
 203.036132812 63.53515625 212.5 59.2861328125 215.713867188 50.822265625 c 0
 218.9296875 42.392578125 214.678710938 32.9287109375 206.25 29.71484375 c 0
 200.072265625 27.357421875 193.71484375 26.1796875 187.213867188 26.1796875 c 1
 187.25 26.1796875 l 1
EndSplineSet
EndChar

StartChar: equal
Encoding: 61 61 70
Width: 456
Flags: W
HStem: 263.286 32.6074<83.6916 101.686 101.715 181.121> 302.25 32.7148<218.671 383.701> 398.071 32.6436<60.0629 263.312> 420.321 32.6797<170.645 383.635>
VStem: 59.0723 325.57
LayerCount: 2
Fore
SplineSet
75.4296875 398.000976562 m 1xe8
 66.572265625 398.000976562 59.28515625 405.072265625 59.072265625 413.96484375 c 0
 58.857421875 423.000976562 66 430.500976562 75.0009765625 430.71484375 c 0xe8
 116.9296875 431.750976562 169.607421875 437.21484375 220.607421875 442.5 c 0
 278.713867188 448.537109375 333.571289062 454.250976562 368.857421875 453.000976562 c 0
 377.892578125 452.678710938 384.963867188 445.107421875 384.642578125 436.107421875 c 0
 384.322265625 427.287109375 377.072265625 420.321289062 368.322265625 420.321289062 c 0
 368.142578125 420.321289062 367.9296875 420.321289062 367.75 420.321289062 c 0xd8
 334.821289062 421.357421875 280.96484375 415.893554688 224 410 c 0
 172.393554688 404.643554688 119.036132812 399.143554688 75.857421875 398.071289062 c 0
 75.71484375 398.071289062 75.572265625 398.071289062 75.4296875 398.071289062 c 1
 75.4296875 398.000976562 l 1xe8
101.71484375 263.357421875 m 1
 101.71484375 263.393554688 l 1
 101.107421875 263.286132812 100.5 263.286132812 99.8935546875 263.286132812 c 0
 91.642578125 263.286132812 84.572265625 269.46484375 83.6435546875 277.821289062 c 0
 82.6787109375 286.821289062 89.142578125 294.892578125 98.107421875 295.893554688 c 0
 117.286132812 298.036132812 141.822265625 303.322265625 170.178710938 309.428710938 c 0
 227.678710938 321.821289062 299.21484375 337.21484375 368.821289062 334.96484375 c 0
 377.857421875 334.643554688 384.928710938 327.107421875 384.642578125 318.071289062 c 0
 384.322265625 309.036132812 376.96484375 301.893554688 367.75 302.25 c 0
 302.178710938 304.46484375 232.822265625 289.428710938 177.072265625 277.4296875 c 0
 147.822265625 271.107421875 122.571289062 265.678710938 101.71484375 263.357421875 c 1
EndSplineSet
EndChar

StartChar: greater
Encoding: 62 62 71
Width: 324
Flags: W
HStem: 21.1426 326.179
VStem: 70.3564 36.7148<303.623 347.289>
LayerCount: 2
Fore
SplineSet
49.8564453125 21.142578125 m 0
 45.6416015625 21.142578125 41.427734375 22.5712890625 37.9990234375 25.5 c 0
 30.25 32.072265625 29.28515625 43.6787109375 35.8564453125 51.4287109375 c 0
 57.3212890625 76.8212890625 160.928710938 120.036132812 161.963867188 120.463867188 c 0
 165.856445312 122.03515625 170.463867188 123.786132812 175.499023438 125.71484375 c 0
 188.75 130.71484375 228.499023438 145.78515625 233.321289062 155.892578125 c 0
 232.607421875 157.177734375 229.856445312 160.96484375 220.606445312 166.713867188 c 0
 160.177734375 204.178710938 72.2490234375 293.893554688 70.3564453125 327.928710938 c 0
 69.78515625 338.071289062 77.5703125 346.75 87.712890625 347.321289062 c 0
 97.5703125 347.928710938 106.25 340.392578125 107.071289062 330.5 c 0
 111.177734375 313.75 177.28515625 236.892578125 240 198 c 0
 261.606445312 184.607421875 271.749023438 169.321289062 270.142578125 152.606445312 c 0
 267.071289062 121 223.53515625 104.53515625 188.53515625 91.2861328125 c 0
 183.8203125 89.5 179.499023438 87.8564453125 175.856445312 86.3935546875 c 0
 133.106445312 68.9990234375 73.0712890625 38.46484375 63.927734375 27.6435546875 c 0
 60.28515625 23.357421875 55.107421875 21.142578125 49.8564453125 21.142578125 c 0
233.499023438 155.392578125 m 1
 233.571289062 155.392578125 l 1
 233.499023438 155.392578125 l 1
107.034179688 330.178710938 m 1
 107.034179688 330.178710938 107.034179688 330.036132812 107.034179688 329.963867188 c 1
 107.034179688 330.036132812 107.034179688 330.106445312 107.034179688 330.178710938 c 1
EndSplineSet
EndChar

StartChar: question
Encoding: 63 63 72
Width: 340
Flags: W
HStem: 339.286 32.6777<62.0313 115.885>
VStem: 252.25 32.6787<360.463 404.941>
LayerCount: 2
Fore
SplineSet
136 158 m 1
 133.96484375 158 131.857421875 158.213867188 129.678710938 158.71484375 c 0
 116.357421875 161.786132812 107.25 173.643554688 102.71484375 193.9296875 c 0
 96.607421875 221.072265625 126.786132812 251.322265625 176.5 298.46484375 c 0
 208.5 328.822265625 252.357421875 370.357421875 252.25 390.21484375 c 0
 252.25 391.893554688 251.893554688 393.213867188 250.072265625 394.893554688 c 0
 219.321289062 423.500976562 195.072265625 407.393554688 154.892578125 376.46484375 c 0
 130.428710938 357.642578125 105.107421875 338.071289062 76.8212890625 339.286132812 c 0
 67.78515625 339.643554688 60.7509765625 347.250976562 61.107421875 356.25 c 0
 61.46484375 365.28515625 69.03515625 372.322265625 78.0712890625 371.963867188 c 0
 94.6435546875 371.21484375 114.178710938 386.4296875 134.928710938 402.393554688 c 0
 170.750976562 429.9296875 219.786132812 467.6796875 272.321289062 418.822265625 c 0
 280.536132812 411.1796875 284.892578125 401.357421875 284.928710938 390.322265625 c 0
 285.072265625 356.322265625 243.250976562 316.642578125 198.96484375 274.678710938 c 0
 174.678710938 251.642578125 134 213.107421875 134.643554688 200.858398438 c 0
 135.643554688 196.357421875 136.75 193.572265625 137.572265625 191.857421875 c 1
 139.25 193.071289062 141.28515625 194.9296875 142.71484375 196.607421875 c 0
 148.428710938 203.572265625 158.71484375 204.643554688 165.678710938 198.96484375 c 0
 172.677734375 193.321289062 173.78515625 183.107421875 168.178710938 176.072265625 c 0
 165.536132812 172.75 152.677734375 157.892578125 136 157.892578125 c 1
 136 158 l 1
166.53515625 20.46484375 m 1
 166.53515625 20.46484375 145.392578125 37.1787109375 166.53515625 49.4287109375 c 0
 187.677734375 61.6787109375 194.357421875 41.607421875 205.5 33.822265625 c 0
 216.642578125 26.0361328125 218.857421875 4.857421875 205.5 2.642578125 c 0
 192.143554688 0.4287109375 181 4.857421875 166.53515625 20.46484375 c 1
EndSplineSet
EndChar

StartChar: at
Encoding: 64 64 73
Width: 520
Flags: W
HStem: 161.43 32.5<251.604 301.375>
LayerCount: 2
Fore
SplineSet
283.5 -52.642578125 m 1
 213.750976562 -52.642578125 143.000976562 -31.857421875 101.322265625 7.75 c 0
 61.572265625 45.5 41.1787109375 109.928710938 49.4296875 171.857421875 c 0
 57.322265625 231.4296875 89.6796875 279.357421875 140.46484375 306.821289062 c 0
 258.536132812 370.678710938 376.787109375 324.177734375 416.71484375 266.071289062 c 0
 431.358398438 244.750976562 434.108398438 213.107421875 424.822265625 172.036132812 c 0
 412.678710938 118.213867188 378.965820312 51.0361328125 357.96484375 38.857421875 c 0
 350.9296875 34.7861328125 342.858398438 34.7861328125 336.358398438 38.857421875 c 0
 326.358398438 45.107421875 322.107421875 58.6787109375 322.286132812 90.1796875 c 1
 298.71484375 63.96484375 266.89453125 35.857421875 238.572265625 22.927734375 c 0
 216.393554688 12.78515625 197.46484375 12.1435546875 182.286132812 21.0361328125 c 0
 172.96484375 26.5 152.786132812 43.5712890625 166.500976562 84.607421875 c 0
 182.1796875 131.5 242.428710938 199.21484375 287.072265625 193.9296875 c 0
 296.036132812 192.892578125 302.46484375 184.750976562 301.428710938 175.786132812 c 0
 300.393554688 166.821289062 292.286132812 160.322265625 283.287109375 161.4296875 c 0
 262.46484375 163.786132812 211.71484375 116.677734375 197.500976562 74.21484375 c 0
 194.96484375 66.642578125 191.787109375 53.357421875 198.786132812 49.25 c 0
 204.39453125 45.9638671875 213.107421875 48.0712890625 219.4296875 50.357421875 c 0
 263.1796875 66.392578125 319.786132812 134.392578125 324.893554688 147.822265625 c 0
 328.287109375 164.321289062 341.96484375 163.03515625 343.536132812 162.857421875 c 0
 359.072265625 160.857421875 358.000976562 146.25 357.21484375 135.571289062 c 0
 355.46484375 112.213867188 354.928710938 96.21484375 354.96484375 85.28515625 c 1
 377.9296875 124.357421875 413.536132812 212.892578125 389.75 247.5 c 0
 356.787109375 295.46484375 257.21484375 332.75 156 278 c 0
 114.6796875 255.642578125 88.322265625 216.392578125 81.857421875 167.5 c 0
 75.072265625 116.4296875 91.96484375 61.71484375 123.858398438 31.392578125 c 0
 187.322265625 -28.892578125 335.393554688 -38.28515625 411.9296875 13.0712890625 c 0
 419.4296875 18.107421875 429.607421875 16.107421875 434.607421875 8.607421875 c 0
 439.642578125 1.107421875 437.643554688 -9.0361328125 430.143554688 -14.0712890625 c 0
 391.322265625 -40.142578125 337.715820312 -52.6787109375 283.5 -52.6787109375 c 1
 283.5 -52.642578125 l 1
324.822265625 147.536132812 m 1
 324.822265625 147.321289062 l 1
 324.822265625 147.321289062 324.822265625 147.46484375 324.822265625 147.536132812 c 1
EndSplineSet
EndChar

StartChar: bracketleft
Encoding: 91 91 74
Width: 184
Flags: W
HStem: -48.2129 32.9629<72.6777 227.104> 399.607 30.1426<165.997 228.759>
VStem: 40.5 32.1777<-15.25 163.499>
LayerCount: 2
Fore
SplineSet
101.036132812 -48.177734375 m 1
 80.53515625 -48.177734375 63.7490234375 -47.8203125 56.427734375 -47.642578125 c 0
 47.78515625 -47.4287109375 40.78515625 -40.5 40.5 -31.85546875 c 0
 38.5361328125 26.5361328125 29.7138671875 320.071289062 50.357421875 364.75 c 0
 66.607421875 399.928710938 107.106445312 407.1796875 146.249023438 414.21484375 c 0
 167.213867188 417.96484375 188.892578125 421.857421875 207.499023438 429.75 c 0
 215.821289062 433.25 225.427734375 429.39453125 228.927734375 421.072265625 c 0
 232.463867188 412.750976562 228.571289062 403.14453125 220.25 399.607421875 c 0
 198.28515625 390.286132812 174.749023438 386.072265625 152 382 c 0
 118.25 375.96484375 89.142578125 370.71484375 80.03515625 351.036132812 c 0
 67.142578125 323.072265625 68.5712890625 117.96484375 72.677734375 -15.25 c 1
 124.427734375 -15.9638671875 198.463867188 -14.642578125 216.28515625 -7.7138671875 c 0
 224.713867188 -4.462890625 234.177734375 -8.6064453125 237.463867188 -17.03515625 c 0
 240.75 -25.462890625 236.571289062 -34.9287109375 228.142578125 -38.212890625 c 0
 206.607421875 -46.5703125 145.213867188 -48.212890625 101.036132812 -48.212890625 c 1
 101.036132812 -48.177734375 l 1
EndSplineSet
EndChar

StartChar: bracketright
Encoding: 93 93 75
Width: 228
Flags: W
HStem: -70.6777 32.6064<-61.1086 0.176437>
VStem: 89.6787 32.1416<-5.10645 235.671>
LayerCount: 2
Fore
SplineSet
-44.857421875 -70.7490234375 m 2
 -53.322265625 -70.7490234375 -60.5 -64.2138671875 -61.1435546875 -55.6064453125 c 0
 -61.822265625 -46.6064453125 -55.0712890625 -38.7490234375 -46.0361328125 -38.0712890625 c 0
 -45.857421875 -38.0712890625 -20.96484375 -35.78515625 6.5712890625 -18.392578125 c 0
 31.5712890625 -2.6064453125 67.6064453125 -2.9287109375 89.6787109375 -5.1064453125 c 1
 90.2138671875 21.322265625 90.5 71.357421875 85.9287109375 107.75 c 0
 79.7861328125 156.858398438 123.536132812 317.893554688 137.78515625 368.428710938 c 1
 133.641601562 368.571289062 127.606445312 368.143554688 119.3203125 366.143554688 c 0
 82.3916015625 357.358398438 32.8212890625 357.96484375 5.3212890625 379.107421875 c 0
 -1.822265625 384.608398438 -3.1796875 394.893554688 2.3212890625 402.036132812 c 0
 7.8212890625 409.21484375 18.107421875 410.536132812 25.25 405.036132812 c 0
 40.892578125 393.000976562 78.0703125 389.96484375 111.71484375 397.96484375 c 0
 155.928710938 408.500976562 168.928710938 390.322265625 171.857421875 384.536132812 c 0
 173.713867188 380.858398438 174.107421875 376.607421875 172.96484375 372.643554688 c 0
 156.036132812 314.037109375 113.213867188 152.9296875 118.356445312 111.822265625 c 0
 125.142578125 57.6435546875 121.963867188 -21.177734375 121.8203125 -24.4990234375 c 0
 121.607421875 -29.2841796875 119.357421875 -33.7138671875 115.5703125 -36.6787109375 c 0
 111.8203125 -39.6064453125 106.927734375 -40.78515625 102.249023438 -39.8564453125 c 0
 87.75 -36.9990234375 45.357421875 -32.4990234375 24 -46 c 0
 -10.78515625 -67.9638671875 -42.3212890625 -70.5341796875 -43.6435546875 -70.6416015625 c 0
 -44.0712890625 -70.6416015625 -44.46484375 -70.677734375 -44.857421875 -70.677734375 c 2
 -44.857421875 -70.7490234375 l 2
144.678710938 366.965820312 m 1
 144.678710938 366.965820312 l 1
EndSplineSet
EndChar

StartChar: asciicircum
Encoding: 94 94 76
Width: 340
Flags: W
HStem: 536.071 45.6787<249.471 285.171>
VStem: 48.1426 31.1074<576.316 626.795>
LayerCount: 2
Fore
SplineSet
249 536.000976562 m 1
 247.143554688 536.000976562 245.21484375 536.178710938 243.25 536.537109375 c 0
 217.321289062 541.46484375 209.177734375 576.5 206.5 588 c 0
 200.5 613.786132812 197.71484375 643.393554688 195 672 c 0
 192.428710938 699.037109375 188.678710938 739.1796875 181.821289062 749.142578125 c 0
 155.25 739.107421875 105.71484375 667.607421875 79.25 586.642578125 c 0
 76.4287109375 578.072265625 67.2138671875 573.357421875 58.6064453125 576.178710938 c 0
 50.0361328125 579 45.322265625 588.21484375 48.142578125 596.822265625 c 0
 73.8212890625 675.46484375 129.428710938 768.321289062 174.46484375 781.178710938 c 0
 183.25 783.678710938 192.036132812 782.357421875 199.25 777.46484375 c 0
 218.25 764.5 222.213867188 731.78515625 227.536132812 675.107421875 c 0
 230.142578125 647.572265625 232.822265625 619.107421875 238.321289062 595.46484375 c 0
 242.892578125 575.75 247.927734375 570.143554688 249.357421875 568.893554688 c 0
 251.75 569.750976562 256.392578125 573.893554688 259.107421875 577.75 c 0
 264.28515625 585.107421875 274.46484375 586.928710938 281.857421875 581.75 c 0
 289.25 576.607421875 291.106445312 566.5 286.000976562 559.107421875 c 0
 284.25 556.572265625 269.46484375 536.071289062 249 536.071289062 c 1
 249 536.000976562 l 1
EndSplineSet
EndChar

StartChar: underscore
Encoding: 95 95 77
Width: 565
Flags: W
HStem: -57.5352 34.1064<42.7743 418.927>
LayerCount: 2
Fore
SplineSet
118.856445312 -57.5703125 m 1
 89.28515625 -57.5703125 62.75 -53.3564453125 26.4287109375 -35.6416015625 c 0
 18.3212890625 -31.677734375 14.9287109375 -21.8916015625 18.892578125 -13.78515625 c 0
 22.857421875 -5.677734375 32.642578125 -2.28515625 40.75 -6.25 c 0
 84.21484375 -27.427734375 109.53515625 -25.9990234375 155.53515625 -23.4287109375 c 0
 173.5 -22.427734375 193.821289062 -21.28515625 219 -21.28515625 c 0
 320.5 -21.28515625 481.106445312 -15.677734375 518.606445312 -5.177734375 c 0
 527.321289062 -2.75 536.321289062 -7.8203125 538.749023438 -16.5 c 0
 541.178710938 -25.212890625 536.106445312 -34.212890625 527.428710938 -36.677734375 c 0
 481.178710938 -49.6416015625 296.286132812 -54 219 -54 c 0
 194.75 -54 174.893554688 -55.107421875 157.356445312 -56.0712890625 c 0
 143.463867188 -56.8564453125 130.892578125 -57.53515625 118.856445312 -57.53515625 c 2
 118.856445312 -57.5703125 l 1
EndSplineSet
EndChar

StartChar: grave
Encoding: 96 96 78
Width: 169
Flags: W
HStem: 604.308 20G<120.604 121.443> 621.788 161.497
VStem: 39.4688 32.6631<720.028 783.258>
LayerCount: 2
Fore
SplineSet
121.522460938 624.307617188 m 1xa0
 119.684570312 623.072265625 117.559570312 622.203125 115.211914062 621.788085938 c 0
 106.313476562 620.240234375 97.8525390625 626.170898438 96.2744140625 635.049804688 c 0
 94.44140625 645.5234375 84.0869140625 662.532226562 74.0703125 679.036132812 c 0
 57.1669921875 706.877929688 37.9833984375 738.434570312 39.46875 767.790039062 c 0
 39.94921875 776.805664062 47.6201171875 783.768554688 56.63671875 783.28515625 c 0x60
 65.681640625 782.82421875 72.583984375 775.114257812 72.1318359375 766.119140625 c 0
 71.125 746.80859375 87.5283203125 719.836914062 102 696 c 0
 114.119140625 676.045898438 125.561523438 657.227539062 128.4453125 640.706054688 c 0
 129.59765625 634.123046875 126.661132812 627.803710938 121.443359375 624.295898438 c 1
 121.522460938 624.307617188 l 1xa0
EndSplineSet
EndChar

StartChar: braceleft
Encoding: 123 123 79
Width: 307
Flags: W
HStem: -76.2861 31.6426<263.751 346.529> 144.607 33.1416<108.743 156.909> 266.714 32.6787<62.5613 212.235> 469.535 32.5<162.534 213.304>
LayerCount: 2
Fore
SplineSet
178.213867188 -99.9638671875 m 1
 143.856445312 -99.9638671875 113.03515625 -94.392578125 96.677734375 -78.03515625 c 0
 64.0703125 -45.4296875 96.9990234375 -9.607421875 126.071289062 22 c 0
 152.677734375 50.927734375 182.8203125 83.7490234375 189.3203125 124.213867188 c 0
 190.427734375 131 188.213867188 133.463867188 187.249023438 134.53515625 c 0
 183.856445312 138.28515625 171.462890625 146.78515625 129.10546875 144.607421875 c 0
 112.427734375 143.786132812 109.28515625 154.28515625 108.713867188 158.821289062 c 0
 107.999023438 164.5 109.212890625 174.5 125.427734375 177.749023438 c 0
 146.53515625 181.96484375 205.499023438 223.606445312 212.642578125 262.571289062 c 0
 204.3203125 267.463867188 171.78515625 267 151.999023438 266.713867188 c 0
 101.53515625 265.963867188 49.3916015625 265.213867188 32.1416015625 299.75 c 0
 22.53515625 318.963867188 25.9990234375 344.071289062 42.4638671875 374.321289062 c 0
 72.1064453125 428.821289062 145.35546875 496.499023438 195.28515625 502.03515625 c 0
 204.28515625 503.071289062 212.356445312 496.571289062 213.356445312 487.606445312 c 0
 214.356445312 478.642578125 207.892578125 470.53515625 198.927734375 469.53515625 c 0
 164.0703125 465.642578125 98.3916015625 408.678710938 71.2138671875 358.678710938 c 0
 60.6416015625 339.213867188 57.0712890625 323.071289062 61.427734375 314.357421875 c 0
 69.4990234375 298.21484375 118.856445312 298.928710938 151.53515625 299.392578125 c 0
 191.856445312 299.963867188 223.677734375 300.463867188 238.428710938 283.21484375 c 0
 242.606445312 278.3203125 247.106445312 269.928710938 244.999023438 257.499023438 c 0
 239.212890625 223.891601562 211.642578125 193.357421875 183.8203125 172.641601562 c 1
 194.499023438 169.46484375 204.463867188 164.392578125 211.642578125 156.391601562 c 0
 217.85546875 149.5 224.606445312 137.392578125 221.677734375 119.036132812 c 0
 213.606445312 68.8212890625 178.463867188 30.607421875 150.212890625 -0.1435546875 c 0
 117.071289062 -36.2138671875 111.392578125 -46.4287109375 119.891601562 -54.9287109375 c 0
 144.0703125 -79.107421875 255.35546875 -63.4638671875 326.642578125 -44.6435546875 c 0
 335.392578125 -42.3583984375 344.3203125 -47.5361328125 346.642578125 -56.2861328125 c 0
 348.962890625 -65.0361328125 343.749023438 -73.96484375 334.999023438 -76.2861328125 c 0
 314.571289062 -81.6796875 240.606445312 -100.000976562 178.28515625 -100.036132812 c 1
 178.213867188 -99.9638671875 l 1
EndSplineSet
EndChar

StartChar: bar
Encoding: 124 124 80
Width: 187
Flags: W
LayerCount: 2
Fore
SplineSet
63.7509765625 -42.3564453125 m 1
 63.7509765625 -42.3564453125 63.46484375 -42.3564453125 63.3212890625 -42.3564453125 c 0
 54.28515625 -42.1064453125 47.1787109375 -34.6064453125 47.3935546875 -25.5712890625 c 0
 53.7861328125 217.322265625 60.4287109375 359.357421875 69 435 c 0
 77.0712890625 506.286132812 86.892578125 524.53515625 105.857421875 538.427734375 c 0
 113.142578125 543.786132812 123.393554688 542.177734375 128.713867188 534.928710938 c 0
 134.071289062 527.643554688 132.500976562 517.392578125 125.213867188 512.072265625 c 0
 105.572265625 497.678710938 92.75 454.25 80.1064453125 -26.392578125 c 0
 79.8935546875 -35.28515625 72.6064453125 -42.3212890625 63.7509765625 -42.3212890625 c 1
 63.7509765625 -42.3564453125 l 1
EndSplineSet
EndChar

StartChar: braceright
Encoding: 125 125 81
Width: 223
Flags: W
HStem: -77.6787 31.6787<-33.7093 105.701>
VStem: 151.107 32.7148<335.493 423.291>
LayerCount: 2
Fore
SplineSet
40.5361328125 -86.6064453125 m 2
 21.5 -86.6064453125 0.6064453125 -83.642578125 -22.107421875 -77.6787109375 c 0
 -30.857421875 -75.3935546875 -36.072265625 -66.4638671875 -33.8212890625 -57.7138671875 c 0
 -31.5361328125 -48.9638671875 -22.5712890625 -43.677734375 -13.857421875 -46 c 0
 89.4638671875 -72.9638671875 122.892578125 -23.53515625 140.463867188 22.5 c 0
 157.213867188 66.427734375 107.607421875 111.178710938 81 126 c 0
 69.892578125 132.178710938 66 140.963867188 64.6787109375 147.25 c 0
 60.5 167.392578125 76.8564453125 188.78515625 91.28515625 207.642578125 c 0
 92.9287109375 209.75 94.8212890625 212.25 96.6787109375 214.75 c 1
 87.2138671875 214.821289062 76.46484375 216.28515625 68.6787109375 224.393554688 c 0
 64.642578125 228.571289062 60.072265625 236.107421875 60.9287109375 248.356445312 c 0
 62.892578125 275.678710938 84.142578125 292.106445312 104.713867188 308 c 0
 128.428710938 326.322265625 150.786132812 343.607421875 151.107421875 377.607421875 c 0
 151.427734375 413.678710938 125.536132812 440.072265625 99.7861328125 447.46484375 c 0
 88.1435546875 450.821289062 66.5712890625 453.071289062 52.78515625 430.678710938 c 0
 48.0712890625 422.963867188 38 420.571289062 30.28515625 425.321289062 c 0
 22.572265625 430.03515625 20.177734375 440.107421875 24.9287109375 447.821289062 c 0
 42.71484375 476.786132812 74.857421875 488.678710938 108.822265625 478.892578125 c 0
 146.46484375 468.071289062 184.321289062 429.678710938 183.822265625 377.286132812 c 0
 183.356445312 327.428710938 150.856445312 302.286132812 124.75 282.106445312 c 0
 109.178710938 270.072265625 95.6435546875 259.606445312 93.78515625 247.53515625 c 1
 96.642578125 247.321289062 100.643554688 247.46484375 103.143554688 247.53515625 c 0
 113.178710938 247.892578125 124.536132812 248.250976562 132.178710938 239.428710938 c 0
 134.642578125 236.53515625 138.571289062 230.321289062 136.821289062 220.821289062 c 0
 135 210.821289062 127.213867188 200.606445312 117.321289062 187.71484375 c 0
 110.749023438 179.142578125 97.392578125 161.642578125 96.7861328125 154.643554688 c 1
 96.8212890625 154.643554688 96.8935546875 154.571289062 96.9287109375 154.571289062 c 0
 138.071289062 131.713867188 194.606445312 72.46484375 171.071289062 10.8212890625 c 0
 146.21484375 -54.3564453125 103.249023438 -86.6064453125 40.6064453125 -86.6064453125 c 2
 40.5361328125 -86.6064453125 l 2
EndSplineSet
EndChar

StartChar: asciitilde
Encoding: 126 126 82
Width: 526
Flags: W
HStem: 311.856 21G<279.625 297.732> 420.714 32.751<174.929 231.563>
LayerCount: 2
Fore
SplineSet
296.607421875 311.856445312 m 2
 262.642578125 311.856445312 250.678710938 349.286132812 241.821289062 377.03515625 c 0
 233.643554688 402.606445312 227.036132812 420.713867188 216.25 420.713867188 c 0
 183.786132812 420.713867188 154.21484375 388.5703125 119.96484375 351.392578125 c 0
 112.106445312 342.856445312 104.072265625 334.106445312 95.7509765625 325.499023438 c 0
 89.4638671875 318.999023438 79.142578125 318.821289062 72.607421875 325.106445312 c 0
 66.107421875 331.392578125 65.9287109375 341.749023438 72.2138671875 348.25 c 0
 80.357421875 356.678710938 88.2138671875 365.213867188 95.8935546875 373.5703125 c 0
 133.71484375 414.642578125 169.393554688 453.46484375 216.25 453.46484375 c 0
 251.786132812 453.46484375 263.536132812 416.606445312 273 387 c 0
 282.6796875 356.678710938 288.75 343.392578125 299 344.75 c 0
 349.75 351.499023438 400.28515625 373.999023438 453.428710938 413.5 c 0
 460.678710938 418.892578125 470.928710938 417.392578125 476.322265625 410.142578125 c 0
 481.71484375 402.893554688 480.21484375 392.642578125 472.96484375 387.25 c 0
 415.25 344.356445312 359.75 319.857421875 303.356445312 312.3203125 c 0
 301.036132812 312 298.786132812 311.856445312 296.678710938 311.856445312 c 2
 296.607421875 311.856445312 l 2
EndSplineSet
EndChar

StartChar: zero
Encoding: 48 48 84
Width: 554
Flags: W
LayerCount: 2
Fore
SplineSet
235.678710938 -3.4287109375 m 1
 168.6796875 -3.4287109375 105.072265625 27.5 70.107421875 79.4287109375 c 0
 49.607421875 109.857421875 42.357421875 153.8203125 48.5 210.0703125 c 0
 63.1435546875 343.607421875 156.21484375 534.428710938 243.786132812 610.428710938 c 0
 252.286132812 617.78515625 264.108398438 615.428710938 270.178710938 605.0703125 c 0
 276.25 594.75 274.286132812 580.392578125 265.786132812 572.999023438 c 0
 186.643554688 504.321289062 99.2861328125 325 86 204 c 0
 82.7509765625 174.356445312 82.4296875 133.71484375 99.3935546875 108.53515625 c 0
 132.143554688 59.892578125 201.107421875 33.857421875 267.107421875 45.2138671875 c 0
 314.786132812 53.392578125 402.4296875 88.892578125 453.786132812 234.5 c 0
 502.963867188 373.892578125 450.713867188 474.78515625 426 511.713867188 c 0
 390.678710938 564.392578125 351.608398438 583.357421875 336.322265625 579.571289062 c 0
 333.071289062 578.78515625 331.821289062 577.357421875 330.928710938 573.572265625 c 0
 328.036132812 561.392578125 317.536132812 554.321289062 307.5 557.892578125 c 0
 297.46484375 561.427734375 291.678710938 574.178710938 294.571289062 586.357421875 c 0
 299.358398438 606.463867188 311.821289062 620.428710938 328.786132812 624.607421875 c 0
 364.358398438 633.392578125 416.357421875 598.927734375 455.358398438 540.75 c 0
 484.428710938 497.357421875 545.893554688 378.857421875 488.607421875 216.392578125 c 0
 429.9296875 50.0703125 328.000976562 9.2138671875 272.4296875 -0.322265625 c 0
 260.178710938 -2.4296875 247.858398438 -3.46484375 235.678710938 -3.46484375 c 2
 235.678710938 -3.4287109375 l 1
EndSplineSet
EndChar

StartChar: one
Encoding: 49 49 85
Width: 422
Flags: W
HStem: 2.64355 41.3564<71.0007 186 235.821 327.202> 14.2852 39.1074<52.8782 175.876 237.837 340.682>
VStem: 186 41.2861<44.9639 249.978>
LayerCount: 2
Fore
SplineSet
361.71484375 667.178710938 m 1xa0
 361.678710938 667.142578125 l 1
 363.750976562 665.572265625 373.713867188 656.96484375 368 642.142578125 c 0
 366.036132812 637 363.28515625 631.571289062 359.53515625 626.213867188 c 0
 327 558.5 208.03515625 209.322265625 227.286132812 44.9638671875 c 1
 269.678710938 46.642578125 304.963867188 50.1435546875 314.786132812 53.392578125 c 0
 325.572265625 56.96484375 337.25 51.1787109375 340.857421875 40.357421875 c 0
 344.46484375 29.572265625 338.607421875 17.892578125 327.821289062 14.28515625 c 0x60
 314.963867188 10.0009765625 278.928710938 6 235.821289062 4 c 1
 236.393554688 2.21484375 237 0.392578125 237.606445312 -1.3564453125 c 0
 241.428710938 -12.0712890625 235.821289062 -23.8564453125 225.106445312 -27.6787109375 c 0
 222.821289062 -28.5 220.5 -28.892578125 218.21484375 -28.892578125 c 0
 209.713867188 -28.892578125 201.78515625 -23.6064453125 198.786132812 -15.1787109375 c 0
 196.75 -9.427734375 194.928710938 -3.4287109375 193.321289062 2.75 c 0
 188.142578125 2.6787109375 182.928710938 2.6435546875 177.713867188 2.6435546875 c 0
 138.5 2.6435546875 99.1787109375 4.607421875 69.607421875 9.53515625 c 0
 58.392578125 11.3935546875 50.8212890625 22.03515625 52.6787109375 33.25 c 0
 54.53515625 44.46484375 65.1787109375 52.072265625 76.3935546875 50.1787109375 c 0
 105.75 45.3212890625 146.428710938 43.7138671875 186 44 c 1
 177.75 122.321289062 197.107421875 300.46484375 239.427734375 431.536132812 c 0
 255.78515625 482.25 279.107421875 543.750976562 299.107421875 591.321289062 c 1
 293.463867188 590.286132812 287.393554688 589.5 280.892578125 589 c 0
 252.678710938 586.892578125 177.857421875 524.642578125 90.2861328125 430.428710938 c 0
 82.5361328125 422.107421875 69.46484375 421.607421875 61.1435546875 429.357421875 c 0
 52.7861328125 437.142578125 52.3212890625 450.143554688 60.0712890625 458.5 c 0
 130.857421875 534.642578125 226.071289062 626.250976562 277.786132812 630.106445312 c 0
 294.713867188 631.393554688 315.677734375 635.96484375 325.78515625 650.000976562 c 0
 327.107421875 652.571289062 328.357421875 654.893554688 329.53515625 656.96484375 c 0
 332.75 662.606445312 335.286132812 666.250976562 337 667.500976562 c 0
 344.392578125 672.857421875 354.46484375 672.75 361.71484375 667.178710938 c 1xa0
EndSplineSet
EndChar

StartChar: two
Encoding: 50 50 86
Width: 459
Flags: W
HStem: 540.035 39.249<116.777 217.884>
LayerCount: 2
Fore
SplineSet
212.143554688 -19.96484375 m 1
 192.107421875 -19.96484375 172.75 -17.572265625 154.892578125 -12.607421875 c 0
 108.108398438 0.427734375 75.072265625 30.2490234375 61.9287109375 71.35546875 c 0
 40.96484375 136.891601562 115.428710938 207.78515625 201.643554688 289.892578125 c 0
 272.107421875 356.963867188 352.000976562 432.999023438 355.643554688 493.53515625 c 0
 357.036132812 516.462890625 351.036132812 532.8203125 337.322265625 543.499023438 c 0
 297.96484375 574.0703125 199.286132812 558.176757812 142.537109375 540.03515625 c 0
 131.678710938 536.5703125 120.107421875 542.53515625 116.607421875 553.391601562 c 0
 113.143554688 564.249023438 119.107421875 575.821289062 129.96484375 579.284179688 c 0
 146.536132812 584.606445312 293.822265625 629.534179688 362.607421875 576.03515625 c 0
 379.71484375 562.712890625 399.536132812 537.177734375 396.750976562 491.03515625 c 0
 392.107421875 414.321289062 309.71484375 335.856445312 230 260 c 0
 163.428710938 196.641601562 88.0009765625 124.856445312 101.107421875 83.892578125 c 0
 112.357421875 48.75 142.537109375 33.6064453125 165.893554688 27.0712890625 c 0
 230.786132812 8.962890625 319.71484375 32.3203125 377.357421875 82.60546875 c 0
 385.928710938 90.0703125 398.96484375 89.2138671875 406.4296875 80.6416015625 c 0
 413.9296875 72.0712890625 413.036132812 59.03515625 404.463867188 51.5703125 c 0
 352.71484375 6.427734375 278.6796875 -19.96484375 212.107421875 -19.96484375 c 1
 212.143554688 -19.96484375 l 1
EndSplineSet
EndChar

StartChar: three
Encoding: 51 51 87
Width: 452
Flags: W
HStem: 650 46.4277<60.5318 328.369>
VStem: 69.0713 40.9287<83.9611 173.861>
LayerCount: 2
Fore
SplineSet
198.893554688 -8.3212890625 m 1
 195.500976562 -8.3212890625 192.107421875 -8.1787109375 188.75 -7.8935546875 c 0
 150.500976562 -4.6435546875 84.1083984375 20.3564453125 69.0712890625 151.392578125 c 0
 67.7861328125 162.5703125 75.9296875 172.642578125 87.21484375 173.927734375 c 0
 98.607421875 175.142578125 108.75 167.142578125 110 156 c 0
 118.6796875 80.25 147.893554688 36.4638671875 192.25 32.7138671875 c 0
 250.9296875 27.9638671875 325.822265625 89.3212890625 346.536132812 159.428710938 c 0
 367.036132812 228.857421875 319.036132812 265.213867188 248.928710938 309 c 0
 218.393554688 328.071289062 192.036132812 344.536132812 180.678710938 366.142578125 c 0
 159.178710938 407.036132812 200.608398438 445.213867188 248.607421875 489.463867188 c 0
 285.96484375 523.892578125 328.322265625 562.928710938 343.75 605.0703125 c 0
 347.572265625 615.463867188 344.822265625 619.428710938 343.642578125 621.107421875 c 0
 325.321289062 647.357421875 222.143554688 649 160.500976562 650 c 0
 115 650.713867188 79.0712890625 651.3203125 59.607421875 657.963867188 c 0
 48.857421875 661.642578125 43.1435546875 673.249023438 46.8583984375 683.857421875 c 0
 50.5712890625 694.463867188 62.322265625 700.142578125 73.0712890625 696.427734375 c 0
 86.322265625 691.893554688 124.358398438 691.28515625 161.142578125 690.713867188 c 0
 248.357421875 689.321289062 347.1796875 687.713867188 377.536132812 644.213867188 c 0
 384.822265625 633.78515625 391.608398438 616.107421875 382.5 591.21484375 c 0
 363.71484375 539.857421875 317.5 497.25 276.715820312 459.678710938 c 0
 247.072265625 432.357421875 210.178710938 398.356445312 217.25 384.96484375 c 0
 223.46484375 373.143554688 247.607421875 358.071289062 270.96484375 343.463867188 c 0
 329.071289062 307.142578125 416.893554688 252.28515625 386.107421875 148.036132812 c 0
 360.750976562 62.1787109375 275.107421875 -8.2509765625 198.857421875 -8.2509765625 c 1
 198.893554688 -8.3212890625 l 1
EndSplineSet
EndChar

StartChar: four
Encoding: 52 52 88
Width: 536
Flags: W
VStem: 382.714 41.1797<129.675 448.776> 434.107 40.0352<563.251 651.753>
LayerCount: 2
Fore
SplineSet
376 0 m 1
 374.53515625 0 373.072265625 0.142578125 371.571289062 0.46484375 c 0
 360.46484375 2.8935546875 353.392578125 13.892578125 355.822265625 25 c 0
 356.107421875 26.322265625 384.75 211.750976562 382.713867188 332.286132812 c 0
 382.072265625 369.608398438 386.107421875 410.821289062 392.177734375 450.643554688 c 1
 379.642578125 439.393554688 367.892578125 428.607421875 358.1796875 416.822265625 c 0
 298.03515625 343.787109375 105 381.25 103.107421875 381.6796875 c 0
 57.6064453125 391.750976562 70.892578125 455.357421875 81.5712890625 506.46484375 c 0
 82.5 510.96484375 83.427734375 515.357421875 84.25 519.500976562 c 0
 91.4287109375 555.357421875 84.357421875 585.715820312 66.2861328125 596.822265625 c 0
 56.607421875 602.787109375 53.5712890625 615.500976562 59.53515625 625.1796875 c 0
 65.5 634.857421875 78.1796875 637.893554688 87.892578125 631.928710938 c 0
 121.321289062 611.357421875 135.428710938 565.1796875 124.642578125 511.392578125 c 0
 123.786132812 507.143554688 122.857421875 502.6796875 121.892578125 498.036132812 c 0
 117.821289062 478.46484375 108.427734375 433.500976562 113.713867188 421.5 c 0
 162.5 411.143554688 293.142578125 402.6796875 326.356445312 443.000976562 c 0
 339 458.358398438 353.963867188 471.71484375 368.427734375 484.678710938 c 0
 381.571289062 496.4296875 394.107421875 507.6796875 404.78515625 519.893554688 c 0
 418.21484375 584.107421875 432.96484375 633.358398438 434.107421875 637.178710938 c 0
 436.892578125 646.357421875 445.53515625 652.393554688 455.143554688 651.786132812 c 0
 464.71484375 651.1796875 472.571289062 644.037109375 474.142578125 634.608398438 c 0
 484.322265625 573.536132812 467.892578125 533.178710938 443.21484375 501.750976562 c 1
 432.392578125 448.108398438 423 385.608398438 423.893554688 333.000976562 c 0
 426 207.572265625 397.28515625 21.822265625 396.071289062 16.21484375 c 0
 393.963867188 6.572265625 385.428710938 0 375.96484375 0 c 1
 376 0 l 1
EndSplineSet
EndChar

StartChar: five
Encoding: 53 53 89
Width: 580
Flags: W
HStem: 10.3574 40.7139<67.4819 189.891> 517.857 40.25<395.461 498.429>
LayerCount: 2
Fore
SplineSet
191.393554688 1.3564453125 m 1
 159.393554688 1.3564453125 123.9296875 4.1787109375 84.5712890625 10.357421875 c 0
 73.3212890625 12.107421875 65.6435546875 22.6787109375 67.3935546875 33.8935546875 c 0
 69.142578125 45.1435546875 79.6787109375 52.7509765625 90.9287109375 51.0712890625 c 0
 291.607421875 19.642578125 406.21484375 75.2509765625 431.607421875 216.428710938 c 0
 432.6796875 222.357421875 431.4296875 227.392578125 427.607421875 232.713867188 c 0
 399.643554688 271.536132812 273.465820312 289.821289062 205.643554688 299.642578125 c 0
 164.96484375 305.536132812 146.572265625 308.357421875 136.893554688 313.571289062 c 0
 125.858398438 319.5 118.893554688 330.178710938 117.215820312 343.642578125 c 0
 112.6796875 380.75 150.46484375 439.78515625 189.608398438 475.357421875 c 0
 198.036132812 483.036132812 211.071289062 482.392578125 218.71484375 473.963867188 c 0
 226.357421875 465.536132812 225.750976562 452.5 217.321289062 444.857421875 c 0
 178.178710938 409.25 156.108398438 362.893554688 157.9296875 349.357421875 c 0
 165.643554688 347.107421875 189.893554688 343.571289062 211.537109375 340.428710938 c 0
 318.428710938 324.928710938 425.750976562 305.71484375 461.000976562 256.822265625 c 0
 471.322265625 242.5 475.1796875 226.03515625 472.143554688 209.143554688 c 0
 454.322265625 110 389.500976562 1.3935546875 191.357421875 1.3564453125 c 1
 191.393554688 1.3564453125 l 1
158.321289062 347.857421875 m 1
 158.393554688 347.857421875 l 1
 158.321289062 347.857421875 l 1
498.393554688 517.821289062 m 1
 498.428710938 517.857421875 l 1
 459.821289062 509.46484375 425.107421875 506 394 506 c 0
 275.287109375 506 209.142578125 556.571289062 180.536132812 578.427734375 c 0
 171.5 585.357421875 169.750976562 598.28515625 176.6796875 607.321289062 c 0
 183.571289062 616.356445312 196.5 618.107421875 205.572265625 611.178710938 c 0
 237.536132812 586.75 322.428710938 521.822265625 489.678710938 558.107421875 c 0
 500.786132812 560.46484375 511.75 553.46484375 514.1796875 542.321289062 c 0
 516.572265625 531.213867188 509.536132812 520.250976562 498.393554688 517.821289062 c 1
EndSplineSet
EndChar

StartChar: six
Encoding: 54 54 90
Width: 382
Flags: W
LayerCount: 2
Fore
SplineSet
159.750976562 -1.8916015625 m 1
 137.9296875 -1.8916015625 117.71484375 8.21484375 101.286132812 28.0009765625 c 0
 12.71484375 134.71484375 14.6435546875 241.428710938 260.25 591.786132812 c 0
 266.787109375 601.107421875 279.643554688 603.357421875 288.96484375 596.822265625 c 0
 298.286132812 590.286132812 300.537109375 577.4296875 294 568.108398438 c 0
 43.7509765625 211.107421875 67.7861328125 132.893554688 133.037109375 54.2861328125 c 0
 147.143554688 37.287109375 161.787109375 34.787109375 182 46 c 0
 235.928710938 75.96484375 280.6796875 176.1796875 270.21484375 207.536132812 c 0
 266.822265625 217.715820312 262.286132812 218.108398438 259.607421875 218.357421875 c 0
 234.643554688 220.323242188 180.286132812 178.108398438 150.036132812 122.14453125 c 0
 144.643554688 112.14453125 132.107421875 108.39453125 122.107421875 113.822265625 c 0
 112.107421875 119.215820312 108.357421875 131.750976562 113.786132812 141.750976562 c 0
 146.213867188 201.786132812 212.643554688 263.822265625 263.1796875 259.4296875 c 0
 285.21484375 257.500976562 301.607421875 243.71484375 309.322265625 220.572265625 c 0
 327.96484375 164.607421875 267.822265625 46.5361328125 202.036132812 9.96484375 c 0
 187.678710938 2.0009765625 173.428710938 -1.9638671875 159.786132812 -1.9638671875 c 2
 159.750976562 -1.8916015625 l 1
EndSplineSet
EndChar

StartChar: seven
Encoding: 55 55 91
Width: 540
Flags: W
HStem: 0.536133 21G<185.232 186.107>
VStem: 166 40.1074<1.23915 66.3194>
LayerCount: 2
Fore
SplineSet
186.03515625 0.5361328125 m 2
 184.428710938 0.5361328125 182.78515625 0.71484375 181.177734375 1.107421875 c 0
 170.107421875 3.7861328125 163.321289062 14.9296875 166 26 c 0
 184.25 101.322265625 368.75 490.857421875 410.749023438 530.643554688 c 0
 432.213867188 550.96484375 445.357421875 576.893554688 446.177734375 586.536132812 c 0
 441.713867188 587.107421875 429.107421875 587.072265625 400.606445312 576.393554688 c 0
 258.892578125 523.25 90.6435546875 520.892578125 54.3935546875 608.893554688 c 0
 50.0703125 619.4296875 55.0703125 631.465820312 65.6064453125 635.787109375 c 0
 76.142578125 640.108398438 88.1787109375 635.108398438 92.5 624.572265625 c 0
 114.857421875 570.286132812 254.821289062 565.71484375 386.142578125 614.96484375 c 0
 404.571289062 621.893554688 460.678710938 642.928710938 481.53515625 609.572265625 c 0
 503.642578125 574.21484375 458.428710938 519.000976562 439.142578125 500.75 c 0
 398.642578125 462.393554688 221.03515625 78.0009765625 206.107421875 16.322265625 c 0
 203.8203125 6.8935546875 195.392578125 0.572265625 186.107421875 0.572265625 c 2
 186.03515625 0.5361328125 l 2
EndSplineSet
EndChar

StartChar: eight
Encoding: 56 56 92
Width: 556
Flags: W
HStem: 2.42969 43.5703<83.65 345.248> 295.286 20G<200.25 248.213 248.249 270.338> 528.607 39.9648<449.434 495.865>
LayerCount: 2
Fore
SplineSet
139.85546875 2.3935546875 m 1
 98.0341796875 2.3935546875 69.78515625 7.46484375 52.35546875 26.9287109375 c 0
 39.1064453125 41.6787109375 34.8203125 62.4296875 39.2841796875 90.322265625 c 0
 46.7138671875 137.071289062 125.749023438 241.572265625 215.391601562 341.107421875 c 1
 122.963867188 414.143554688 68.392578125 462.893554688 76.962890625 505.750976562 c 0
 79.962890625 520.821289062 90.3564453125 541.678710938 122.606445312 555.608398438 c 0
 183.642578125 581.963867188 290.641601562 570.322265625 335.426757812 542.322265625 c 0
 345.0703125 536.287109375 347.999023438 523.572265625 341.962890625 513.9296875 c 0
 335.927734375 504.286132812 323.212890625 501.322265625 313.5703125 507.393554688 c 0
 279.642578125 528.607421875 185.321289062 537.786132812 138.927734375 517.786132812 c 0
 126.177734375 512.286132812 118.927734375 505.536132812 117.35546875 497.6796875 c 0
 112.999023438 476 191.713867188 412.21484375 243.28515625 371.572265625 c 1
 336.3203125 471.392578125 433.856445312 559.321289062 471.03515625 568.572265625 c 0
 482.0703125 571.357421875 493.249023438 564.607421875 496 553.572265625 c 0
 498.749023438 542.537109375 492.03515625 531.357421875 481 528.607421875 c 0
 459.5703125 523.286132812 376.28515625 452.357421875 276.249023438 345.643554688 c 1
 328.28515625 304.536132812 371.0703125 268.822265625 383.35546875 240.500976562 c 0
 402.28515625 196.786132812 428.78515625 115.25 393.60546875 60 c 0
 372.462890625 26.8212890625 333.8203125 9.2509765625 278.712890625 7.75 c 0
 253.0703125 7.0361328125 229.106445312 5.857421875 207.999023438 4.822265625 c 0
 182.0703125 3.5361328125 159.462890625 2.4296875 139.8203125 2.4296875 c 1
 139.85546875 2.3935546875 l 1
248.249023438 315.286132812 m 1
 152.25 209.571289062 85.3916015625 117.857421875 79.9990234375 83.892578125 c 0
 77.677734375 69.2509765625 78.677734375 59.3212890625 83.0341796875 54.5009765625 c 0
 95.5703125 40.5361328125 146.749023438 43.0712890625 206 46 c 0
 227.3203125 47.0712890625 251.499023438 48.2509765625 277.606445312 48.96484375 c 0
 318.177734375 50.072265625 345.534179688 61.25 358.856445312 82.1787109375 c 0
 384.75 122.857421875 358.177734375 195 345.534179688 224.143554688 c 0
 336.999023438 243.857421875 292.462890625 280.357421875 248.212890625 315.286132812 c 1
 248.249023438 315.286132812 l 1
EndSplineSet
EndChar

StartChar: nine
Encoding: 57 57 93
Width: 410
Flags: W
VStem: 48.5723 41.2139<333.091 408.107> 302.466 40.7139<430.566 484.016 488.49 533.844>
LayerCount: 2
Fore
SplineSet
322.821289062 1.0712890625 m 1
 313.072265625 1.0712890625 304.4296875 8 302.571289062 17.927734375 c 0
 278.428710938 148 284.21484375 289.499023438 292.107421875 378.28515625 c 1
 258.678710938 344.142578125 213.786132812 312.78515625 172 298 c 0
 119.71484375 279.499023438 89.5 292.892578125 73.357421875 307.356445312 c 0
 56.9296875 322.0703125 48.3935546875 340.856445312 48.572265625 361.712890625 c 0
 49.1435546875 420.071289062 115.357421875 481.962890625 183.107421875 540.392578125 c 0
 230.5 581.213867188 265.5 582.713867188 286.536132812 576.85546875 c 0
 304.5 571.78515625 328.786132812 556.8203125 342.465820312 514.25 c 0
 345.96484375 503.427734375 340.000976562 491.8203125 329.143554688 488.3203125 c 0
 318.322265625 484.784179688 306.678710938 490.78515625 303.21484375 501.642578125 c 0
 298.750976562 515.53515625 290.286132812 532.962890625 275.357421875 537.177734375 c 0
 259.392578125 541.642578125 236.143554688 531.712890625 210.000976562 509.177734375 c 0
 168.142578125 473.0703125 90.2138671875 405.927734375 89.7861328125 361.321289062 c 0
 89.71484375 352.321289062 93.21484375 344.928710938 100.857421875 338.0703125 c 0
 115.036132812 325.356445312 139.893554688 330.427734375 158.21484375 336.892578125 c 0
 223.072265625 359.821289062 296.822265625 431.962890625 302.465820312 467.03515625 c 0
 304.286132812 478.249023438 314.858398438 485.927734375 326.072265625 484.106445312 c 0
 337.286132812 482.321289062 344.965820312 471.75 343.1796875 460.53515625 c 0
 342.821289062 458.177734375 306.321289062 223.678710938 343.107421875 25.5 c 0
 345.178710938 14.3203125 337.786132812 3.5712890625 326.607421875 1.4638671875 c 0
 325.321289062 1.2138671875 324.071289062 1.1064453125 322.821289062 1.1064453125 c 1
 322.821289062 1.0712890625 l 1
EndSplineSet
EndChar

StartChar: the
Encoding: 128 128 94
Width: 985
Flags: W
HStem: -28 61.8213<770.103 856.195>
VStem: 700.214 61.0713<43.92 92.441>
LayerCount: 2
Fore
SplineSet
810.642578125 -28.072265625 m 1
 788.857421875 -28.072265625 755 -24.107421875 730.03515625 -2.96484375 c 0
 711.177734375 13 700.857421875 35.8564453125 700.213867188 63.10546875 c 0
 699.96484375 73.5712890625 700.213867188 83.6787109375 700.9296875 93.3564453125 c 1
 578.357421875 38.53515625 423.821289062 -13.5009765625 352.107421875 1.712890625 c 0
 322.963867188 7.892578125 306.786132812 30.78515625 310.892578125 60.1064453125 c 0
 313.21484375 76.8203125 319.78515625 123.713867188 487.856445312 285.28515625 c 1
 364.25 240.53515625 103.53515625 33.7490234375 100.822265625 31.6064453125 c 0
 87.8935546875 21.3212890625 69.1787109375 23.177734375 58.5 35.75 c 0
 47.8212890625 48.3564453125 49.0712890625 67.1064453125 61.3212890625 78.177734375 c 0
 166.142578125 172.8203125 389.25 429.3203125 473.071289062 544.606445312 c 0
 483 558.25 502.107421875 561.284179688 515.75 551.356445312 c 0
 529.392578125 541.427734375 532.427734375 522.321289062 522.5 508.678710938 c 0
 480.321289062 450.677734375 403.4296875 357.499023438 323.46484375 266.356445312 c 1
 382.963867188 303.963867188 440.9296875 335.712890625 483 348 c 0
 534.642578125 363.0703125 601.678710938 401.75 660.786132812 441.249023438 c 0
 688.46484375 464.891601562 711.177734375 483.713867188 726.25 496.03515625 c 0
 808.963867188 563.784179688 813.286132812 563.463867188 826.25 562.571289062 c 0
 842.25 561.463867188 854.927734375 547.927734375 854.927734375 531.85546875 c 0
 854.927734375 520.60546875 854.927734375 501.78515625 722.25 409.177734375 c 0
 713.4296875 403.03515625 703.25 396.03515625 692 388.606445312 c 0
 562.25 275.999023438 393.71484375 115.999023438 373.392578125 60.3203125 c 1
 442.893554688 54.1064453125 604.392578125 114.606445312 717.392578125 168.678710938 c 1
 736.463867188 217.499023438 768.642578125 249.856445312 799.857421875 266.106445312 c 0
 829.857421875 281.78515625 859.036132812 282.8203125 877.893554688 268.999023438 c 0
 891.786132812 258.784179688 898.178710938 241.927734375 894.96484375 223.891601562 c 0
 891.892578125 206.53515625 878.036132812 190.963867188 847.21484375 170.177734375 c 0
 828.178710938 157.321289062 800.356445312 141.606445312 767.357421875 124.928710938 c 0
 763.178710938 108 760.71484375 88.03515625 761.28515625 64.6064453125 c 0
 761.571289062 51.927734375 766.072265625 46.642578125 769.428710938 43.7841796875 c 0
 783.572265625 31.677734375 813.821289062 32.5712890625 823.286132812 33.8212890625 c 0
 840 36.03515625 855.356445312 24.392578125 857.642578125 7.7138671875 c 0
 859.927734375 -8.9287109375 848.392578125 -24.322265625 831.75 -26.6796875 c 0
 829.572265625 -27 821.643554688 -28 810.642578125 -28 c 1
 810.642578125 -28.072265625 l 1
EndSplineSet
EndChar

StartChar: l_alt
Encoding: 129 129 95
Width: 223
Flags: W
VStem: 55.0352 205.965
LayerCount: 2
Fore
SplineSet
82.427734375 -5.212890625 m 2
 69.607421875 -5.212890625 58 3.6435546875 55.03515625 16.6435546875 c 0
 42.5703125 70.6435546875 122.5 394.536132812 174.892578125 596.1796875 c 1
 164.286132812 593.607421875 152.713867188 597.357421875 145.75 606.643554688 c 0
 136.427734375 619.071289062 138.963867188 636.713867188 151.357421875 646 c 0
 185.321289062 671.465820312 208.036132812 720.463867188 208.25 720.96484375 c 0
 214.321289062 734.250976562 229.607421875 740.678710938 243.357421875 735.71484375 c 0
 257.107421875 730.75 264.78515625 716.107421875 261 702 c 0
 180.75 402.893554688 102.28515625 69.4287109375 109.857421875 29.1435546875 c 0
 113.357421875 14.0009765625 103.892578125 -1.0341796875 88.75 -4.5361328125 c 0
 86.642578125 -5.03515625 84.5 -5.25 82.427734375 -5.25 c 2
 82.427734375 -5.212890625 l 2
EndSplineSet
EndChar

StartChar: peace
Encoding: 130 130 96
Width: 811
Flags: W
HStem: 5.83105 57.6777<212.39 410.883> 276.412 21G<639.599 673.281> 697.929 56.7422<297.281 481.758>
LayerCount: 2
Fore
SplineSet
707.768554688 592.838867188 m 1
 707.8125 592.794921875 l 1
 774.778320312 487.794921875 767.231445312 360.608398438 687.0546875 243.866210938 c 0
 548.303710938 41.8125 397.723632812 8.0634765625 320.3125 5.96484375 c 0
 317.366210938 5.875 314.418945312 5.8310546875 311.473632812 5.8310546875 c 0
 222.1875 5.8310546875 142.5 43.107421875 91.7861328125 108.912109375 c 0
 36.7861328125 180.250976562 33.6611328125 282.21484375 82.947265625 396.098632812 c 0
 140.537109375 529.178710938 259.018554688 652.52734375 336.5625 660.116210938 c 0
 362.5 662.662109375 384.509765625 653.063476562 398.349609375 632.974609375 c 0
 407.3671875 619.893554688 404.0625 601.991210938 390.981445312 592.973632812 c 0
 377.903320312 583.956054688 360 587.258789062 350.982421875 600.340820312 c 0
 349.912109375 601.857421875 348.793945312 603.598632812 342.143554688 602.883789062 c 0
 297.143554688 598.46484375 190.625 500.116210938 135.715820312 373.243164062 c 0
 112.1875 318.912109375 81.1162109375 216.90234375 137.278320312 144.000976562 c 0
 141.5625 138.419921875 146.205078125 133.198242188 151.02734375 128.15234375 c 0
 370 324.178710938 431.741210938 543.95703125 458.125 637.973632812 c 0
 461.7421875 650.786132812 464.8203125 661.813476562 467.678710938 670.653320312 c 0
 470.403320312 678.956054688 476.5625 685.073242188 484.0625 688.198242188 c 1
 434.955078125 702.616210938 381.96484375 706.678710938 329.956054688 697.928710938 c 0
 314.28515625 695.428710938 299.46484375 705.875 296.831054688 721.545898438 c 0
 294.197265625 737.21484375 304.778320312 752.036132812 320.447265625 754.670898438 c 0
 471.518554688 780.028320312 630.8046875 713.508789062 707.768554688 592.838867188 c 1
318.662109375 63.5087890625 m 1
 318.662109375 63.46484375 l 1
 342.723632812 64.1357421875 375.178710938 68.5556640625 412.634765625 82.4375 c 1
 368.482421875 111.14453125 372.947265625 202.438476562 386.16015625 320.02734375 c 1
 340.84765625 246.232421875 279.822265625 167.885742188 197.09765625 92.4384765625 c 1
 232.1875 72.5732421875 273.884765625 62.349609375 318.662109375 63.5087890625 c 1
639.598632812 276.456054688 m 1
 639.553710938 276.412109375 l 1
 707.0078125 374.581054688 714.018554688 475.96484375 659.241210938 561.857421875 c 0
 627.098632812 612.305664062 577.634765625 651.412109375 520.224609375 675.473632812 c 1
 523.83984375 668.823242188 524.912109375 660.743164062 522.366210938 652.930664062 c 0
 519.8671875 645.206054688 516.919921875 634.669921875 513.482421875 622.438476562 c 0
 500.3125 575.51953125 478.75 498.823242188 435 409 c 0
 444.956054688 403.911132812 451.474609375 393.241210938 450.625 381.366210938 c 0
 449.732421875 368.912109375 447.767578125 351.903320312 445.447265625 332.169921875 c 0
 440.223632812 287.393554688 424.375 151.500976562 444.15234375 130.294921875 c 0
 454.15234375 124.938476562 459.643554688 114.448242188 459.197265625 103.732421875 c 1
 515.134765625 134.268554688 578.081054688 186.857421875 639.598632812 276.456054688 c 1
EndSplineSet
EndChar

StartChar: uni0083
Encoding: 131 131 97
Width: 775
Flags: W
VStem: 307.132 49.8682<492 605.718>
LayerCount: 2
Fore
SplineSet
199.811523438 12.2216796875 m 1
 196.194335938 12.2216796875 192.489257812 13.0263671875 189.095703125 14.767578125 c 0
 179.231445312 19.7216796875 174.0078125 30.75 176.463867188 41.5087890625 c 0
 176.686523438 42.580078125 200.928710938 154.901367188 139.587890625 239.232421875 c 0
 69.6318359375 335.393554688 -12.3759765625 550.169921875 73.205078125 635.75 c 0
 114.543945312 677.044921875 172.176757812 697.580078125 227.491210938 690.392578125 c 0
 271.686523438 684.723632812 308.337890625 662.267578125 327.936523438 628.786132812 c 0
 350.213867188 590.749023438 356.1953125 534.9453125 357 492 c 1
 432.845703125 566.731445312 516.375 636.1953125 591.061523438 627.892578125 c 0
 623.517578125 624.276367188 649.9453125 606.374023438 669.631835938 574.677734375 c 0
 759.142578125 430.615234375 698.025390625 287.580078125 488.025390625 149.543945312 c 0
 443.830078125 120.482421875 385.614257812 97.8466796875 334.276367188 77.892578125 c 0
 284.6328125 58.5625 233.293945312 38.6064453125 218.025390625 20.6611328125 c 0
 213.337890625 15.1689453125 206.59765625 12.2216796875 199.767578125 12.2216796875 c 1
 199.811523438 12.2216796875 l 1
205.66015625 643.874023438 m 1
 169.9453125 643.874023438 134.051757812 628.786132812 107.131835938 601.8671875 c 0
 50.3017578125 545.034179688 111.1953125 359.811523438 178.3828125 267.401367188 c 0
 223.470703125 205.4375 230.837890625 133.651367188 229.3203125 85.525390625 c 1
 253.875 97.9814453125 284.186523438 109.811523438 316.955078125 122.536132812 c 0
 366.061523438 141.643554688 421.776367188 163.338867188 461.731445312 189.588867188 c 0
 648.426757812 312.3125 703.158203125 429.9921875 628.962890625 549.365234375 c 0
 617.220703125 568.206054688 603.114257812 578.338867188 585.79296875 580.2578125 c 0
 517.981445312 587.8046875 413.204101562 481.1953125 362.84765625 429.9921875 c 0
 357.400390625 424.409179688 352.356445312 419.3203125 347.891601562 414.856445312 c 0
 340.705078125 407.668945312 329.811523438 405.793945312 320.66015625 410.168945312 c 0
 311.5078125 414.544921875 306.10546875 424.1875 307.131835938 434.276367188 c 0
 310.481445312 466.240234375 313.293945312 559.096679688 286.641601562 604.543945312 c 0
 274.587890625 625.124023438 250.793945312 639.098632812 221.418945312 642.892578125 c 0
 216.150390625 643.5625 210.8828125 643.874023438 205.616210938 643.874023438 c 1
 205.66015625 643.874023438 l 1
EndSplineSet
EndChar
